<?xml version="1.0" encoding="utf-8"?>
<!-- Generator: Adobe Illustrator 15.1.0, SVG Export Plug-In . SVG Version: 6.00 Build 0)  -->
<!DOCTYPE svg PUBLIC "-//W3C//DTD SVG 1.1//EN" "http://www.w3.org/Graphics/SVG/1.1/DTD/svg11.dtd">
<svg version="1.1" id="Layer_1" xmlns="http://www.w3.org/2000/svg" xmlns:xlink="http://www.w3.org/1999/xlink" x="0px" y="0px"
	 width="254.633px" height="37.283px" viewBox="0 0 254.633 37.283" enable-background="new 0 0 254.633 37.283"
	 xml:space="preserve">
<path fill="#231815" d="M128.756,0.217h-2.88H1.657c-0.792,0-1.44,0.648-1.44,1.44v33.969c0,0.793,0.648,1.44,1.44,1.44h124.22
	h2.879h124.221c0.792,0,1.439-0.647,1.439-1.44V1.657c0-0.792-0.647-1.44-1.439-1.44H128.756z"/>
<path fill="none" stroke="#231815" stroke-width="0.434" stroke-miterlimit="10" d="M128.756,0.217h-2.88H1.657
	c-0.792,0-1.44,0.648-1.44,1.44v33.969c0,0.793,0.648,1.44,1.44,1.44h124.22h2.879h124.221c0.792,0,1.439-0.647,1.439-1.44V1.657
	c0-0.792-0.647-1.44-1.439-1.44H128.756z"/>
<line fill="none" stroke="#FFFFFF" stroke-width="0.4" stroke-miterlimit="10" x1="101.705" y1="32.738" x2="101.705" y2="4.458"/>
<polyline fill="none" stroke="#FFFFFF" stroke-width="0.4" stroke-miterlimit="10" points="97.314,5.863 128.93,10.957 
	96.962,17.28 "/>
<rect x="154.199" y="20.442" fill="none" stroke="#FFFFFF" stroke-width="0.4" stroke-miterlimit="10" width="1.802" height="2.986"/>
<polyline fill="none" stroke="#FFFFFF" stroke-width="0.4" stroke-miterlimit="10" points="154.816,28.043 154.816,32.738 
	148.049,32.738 148.049,4.458 154.816,4.458 154.816,16.044 "/>
<line fill="none" stroke="#FFFFFF" stroke-width="0.4" stroke-miterlimit="10" x1="157.004" y1="23.428" x2="157.67" y2="23.428"/>
<polyline fill="none" stroke="#FFFFFF" stroke-width="0.4" stroke-miterlimit="10" points="144.053,4.392 144.053,23.428 
	133.702,23.428 135.801,20.793 133.702,20.793 133.702,23.428 125.224,23.428 125.224,21.057 123.274,20.443 123.274,23.428 
	114.879,23.428 113.751,20.644 112.621,23.428 104.227,23.428 "/>
</svg>
