<?xml version="1.0" encoding="utf-8"?>
<!-- Generator: Adobe Illustrator 15.1.0, SVG Export Plug-In . SVG Version: 6.00 Build 0)  -->
<!DOCTYPE svg PUBLIC "-//W3C//DTD SVG 1.1//EN" "http://www.w3.org/Graphics/SVG/1.1/DTD/svg11.dtd">
<svg version="1.1" id="Layer_1" xmlns="http://www.w3.org/2000/svg" xmlns:xlink="http://www.w3.org/1999/xlink" x="0px" y="0px"
	 width="242.646px" height="153.014px" viewBox="0 0 242.646 153.014" enable-background="new 0 0 242.646 153.014"
	 xml:space="preserve">
<pattern  x="-184.531" y="-320.056" width="34" height="29.251" patternUnits="userSpaceOnUse" id="Unnamed_Pattern_13" viewBox="7.018 -37.396 34 29.251" overflow="visible">
	<g>
		<polygon fill="none" points="7.018,-37.396 41.018,-37.396 41.018,-8.146 7.018,-8.146 		"/>
		<g>
			<defs>
				<rect id="SVGID_1_" x="7.018" y="-37.396" width="34" height="29.251"/>
			</defs>
			<clipPath id="SVGID_2_">
				<use xlink:href="#SVGID_1_"  overflow="visible"/>
			</clipPath>
			<polygon clip-path="url(#SVGID_2_)" fill="#00ADAB" points="0,-4.053 7.018,0 14.037,-4.053 14.037,-12.157 7.018,-16.209 
				0,-12.157 			"/>
			<polygon clip-path="url(#SVGID_2_)" fill="#00ADAB" points="8.748,-18.521 15.768,-14.47 22.785,-18.521 22.785,-26.625 
				15.768,-30.679 8.748,-26.625 			"/>
			<polygon clip-path="url(#SVGID_2_)" fill="#00ADAB" points="17,-4.053 24.018,0 31.037,-4.053 31.037,-12.157 24.018,-16.209 
				17,-12.157 			"/>
			<polygon clip-path="url(#SVGID_2_)" fill="#00ADAB" points="25.748,-18.521 32.768,-14.47 39.785,-18.521 39.785,-26.625 
				32.768,-30.679 25.748,-26.625 			"/>
			<polygon clip-path="url(#SVGID_2_)" fill="#00ADAB" points="34,-4.053 41.018,0 48.037,-4.053 48.037,-12.157 41.018,-16.209 
				34,-12.157 			"/>
			<polygon clip-path="url(#SVGID_2_)" fill="#00ADAB" points="0,-33.386 7.018,-29.334 14.037,-33.386 14.037,-41.49 
				7.018,-45.543 0,-41.49 			"/>
			<polygon clip-path="url(#SVGID_2_)" fill="#00ADAB" points="17,-33.386 24.018,-29.334 31.037,-33.386 31.037,-41.49 
				24.018,-45.543 17,-41.49 			"/>
			<polygon clip-path="url(#SVGID_2_)" fill="#00ADAB" points="34,-33.386 41.018,-29.334 48.037,-33.386 48.037,-41.49 
				41.018,-45.543 34,-41.49 			"/>
		</g>
	</g>
</pattern>
<path fill="#2CBDBD" d="M242.646,144.51c0,4.677-3.827,8.504-8.504,8.504H8.504c-4.677,0-8.504-3.827-8.504-8.504V8.504
	C0,3.827,3.827,0,8.504,0h225.638c4.677,0,8.504,3.827,8.504,8.504V144.51z"/>
<g opacity="0.5">
	<g>
		<defs>
			<rect id="SVGID_3_" x="188.341" width="54.305" height="153.014"/>
		</defs>
		<clipPath id="SVGID_4_">
			<use xlink:href="#SVGID_3_"  overflow="visible"/>
		</clipPath>
		<pattern  id="SVGID_5_" xlink:href="#Unnamed_Pattern_13" patternTransform="matrix(0.5954 0 0 -0.5954 -3806.6782 -1989.3872)">
		</pattern>
		<path clip-path="url(#SVGID_4_)" fill="url(#SVGID_5_)" d="M234.142,0h-45.801v153.015h45.801c4.678,0,8.504-3.827,8.504-8.504
			V8.504C242.646,3.827,238.819,0,234.142,0"/>
	</g>
</g>
<g>
	<path fill="#FFFFFF" d="M81.118,14.401h3.139c0.799,0,1.429,0.22,1.829,0.62c0.31,0.31,0.47,0.689,0.47,1.159v0.02
		c0,0.84-0.48,1.29-1,1.559c0.819,0.28,1.39,0.75,1.39,1.699v0.02c0,1.25-1.029,1.919-2.589,1.919h-3.238V14.401z M84.007,17.349
		c0.789,0,1.319-0.31,1.319-0.949v-0.02c0-0.55-0.44-0.89-1.229-0.89h-1.77v1.859H84.007z M84.366,20.308
		c0.84,0,1.35-0.33,1.35-0.959v-0.02c0-0.59-0.47-0.939-1.439-0.939h-1.949v1.919H84.366z"/>
	<path fill="#FFFFFF" d="M92.816,14.351h1.14l3.078,7.046h-1.299l-0.71-1.689h-3.309l-0.719,1.689h-1.26L92.816,14.351z
		 M94.575,18.619l-1.209-2.799l-1.199,2.799H94.575z"/>
	<path fill="#FFFFFF" d="M100.238,14.401h1.14l3.748,4.837v-4.837h1.209v6.996h-1.029l-3.858-4.977v4.977h-1.209V14.401z"/>
	<path fill="#FFFFFF" d="M110.138,14.401h1.229v3.518l3.328-3.518h1.509l-2.908,3.008l3.038,3.988h-1.489l-2.389-3.148l-1.089,1.12
		v2.029h-1.229V14.401z"/>
	<path fill="#FFFFFF" d="M124.078,17.919v-0.02c0-1.989,1.489-3.618,3.607-3.618c1.29,0,2.069,0.45,2.739,1.089l-0.79,0.91
		c-0.56-0.52-1.159-0.87-1.959-0.87c-1.339,0-2.309,1.1-2.309,2.469v0.02c0,1.369,0.97,2.489,2.309,2.489
		c0.859,0,1.409-0.35,2.009-0.91l0.79,0.8c-0.729,0.759-1.529,1.239-2.839,1.239C125.597,21.517,124.078,19.928,124.078,17.919z"/>
	<path fill="#FFFFFF" d="M136.246,14.351h1.14l3.078,7.046h-1.299l-0.71-1.689h-3.309l-0.719,1.689h-1.26L136.246,14.351z
		 M138.005,18.619l-1.209-2.799l-1.199,2.799H138.005z"/>
	<path fill="#FFFFFF" d="M143.668,14.401h3.118c0.88,0,1.569,0.26,2.02,0.7c0.369,0.379,0.579,0.899,0.579,1.509v0.02
		c0,1.149-0.689,1.839-1.669,2.119l1.889,2.648h-1.449l-1.719-2.438h-1.539v2.438h-1.229V14.401z M146.696,17.869
		c0.88,0,1.439-0.46,1.439-1.169v-0.02c0-0.75-0.54-1.16-1.449-1.16h-1.789v2.349H146.696z"/>
	<path fill="#FFFFFF" d="M152.897,14.401h2.608c2.199,0,3.718,1.509,3.718,3.478v0.02c0,1.969-1.519,3.498-3.718,3.498h-2.608
		V14.401z M155.506,20.278c1.47,0,2.429-0.99,2.429-2.359v-0.02c0-1.369-0.959-2.379-2.429-2.379h-1.379v4.758H155.506z"/>
</g>
<g opacity="0.5">
	<g>
		<defs>
			<rect id="SVGID_6_" x="24.904" y="38.585" width="93.617" height="94.452"/>
		</defs>
		<clipPath id="SVGID_7_">
			<use xlink:href="#SVGID_6_"  overflow="visible"/>
		</clipPath>
		<pattern  id="SVGID_8_" xlink:href="#Unnamed_Pattern_13" patternTransform="matrix(0.5954 0 0 -0.5954 -3806.6782 -1989.3872)">
		</pattern>
		<path clip-path="url(#SVGID_7_)" fill="url(#SVGID_8_)" d="M118.521,78.131c-0.737,1.008-1.763,1.426-2.919,1.539
			c-0.727,0.071-1.459,0.12-2.188,0.12c-27.763,0.006-55.523,0.008-83.285-0.006c-0.969,0-1.943-0.117-2.904-0.263
			c-1.047-0.159-1.861-0.73-2.32-1.774v-0.769c0.586-1.524,1.649-2.634,2.836-3.652c2.453-2.105,4.887-4.236,7.327-6.357
			c9.88-8.585,19.761-17.172,29.644-25.754c1.363-1.184,2.919-1.951,4.665-2.281c0.597-0.113,1.192-0.233,1.789-0.35h1.279
			c0.144,0.048,0.285,0.126,0.432,0.138c2.549,0.222,4.69,1.349,6.646,3.055c12.099,10.55,24.233,21.054,36.32,31.619
			c1.026,0.897,1.792,2.125,2.679,3.199V78.131z M71.752,71.857c3.915,0.016,7.088-3.286,7.106-7.396
			c0.02-4.145-3.088-7.453-7.017-7.471c-4.001-0.018-7.165,3.263-7.16,7.425C64.687,68.525,67.838,71.841,71.752,71.857"/>
		<pattern  id="SVGID_9_" xlink:href="#Unnamed_Pattern_13" patternTransform="matrix(0.5954 0 0 -0.5954 -3806.6782 -1989.3872)">
		</pattern>
		<path clip-path="url(#SVGID_7_)" fill="url(#SVGID_9_)" d="M26.916,133.037c-0.701-0.677-0.905-1.522-0.871-2.501
			c0.045-1.309-0.01-2.621,0.018-3.933c0.03-1.442,0.737-2.152,2.115-2.188c0.213-0.007,0.426-0.002,0.639-0.002
			c28.657,0,57.315,0,85.973,0.002c0.335,0,0.673-0.019,1.003,0.025c0.981,0.13,1.626,0.812,1.647,1.845
			c0.035,1.693,0.072,3.394-0.024,5.081c-0.033,0.57-0.471,1.115-0.723,1.671H26.916z"/>
		<pattern  id="SVGID_10_" xlink:href="#Unnamed_Pattern_13" patternTransform="matrix(0.5954 0 0 -0.5954 -3806.6782 -1989.3872)">
		</pattern>
		<path clip-path="url(#SVGID_7_)" fill="url(#SVGID_10_)" d="M55.132,102.866c0-5.273-0.002-10.549,0.001-15.822
			c0.001-1.971,0.587-2.588,2.448-2.59c2.009-0.004,4.02-0.008,6.028,0.002c1.499,0.008,2.172,0.697,2.181,2.289
			c0.019,3.102,0.006,6.203,0.006,9.303c0,7.48,0,14.96-0.001,22.439c0,2.164-0.539,2.729-2.587,2.731
			c-1.949,0.001-3.896,0.008-5.846-0.003c-1.567-0.01-2.224-0.684-2.227-2.334C55.126,113.543,55.132,108.204,55.132,102.866"/>
		<pattern  id="SVGID_11_" xlink:href="#Unnamed_Pattern_13" patternTransform="matrix(0.5954 0 0 -0.5954 -3806.6782 -1989.3872)">
		</pattern>
		<path clip-path="url(#SVGID_7_)" fill="url(#SVGID_11_)" d="M88.4,102.798c0,5.243,0.001,10.485,0,15.729
			c-0.001,2.161-0.513,2.689-2.604,2.69c-1.949,0-3.898,0.01-5.847-0.004c-1.52-0.011-2.187-0.699-2.188-2.275
			c-0.005-10.741-0.005-21.483,0-32.226c0.001-1.523,0.686-2.248,2.117-2.258c2.131-0.012,4.263-0.012,6.395,0
			c1.465,0.008,2.12,0.684,2.123,2.229C88.406,92.056,88.4,97.427,88.4,102.798"/>
		<pattern  id="SVGID_12_" xlink:href="#Unnamed_Pattern_13" patternTransform="matrix(0.5954 0 0 -0.5954 -3806.6782 -1989.3872)">
		</pattern>
		<path clip-path="url(#SVGID_7_)" fill="url(#SVGID_12_)" d="M43.168,102.905c0,5.242,0.001,10.486-0.001,15.729
			c0,1.956-0.595,2.58-2.455,2.583c-2.011,0.003-4.021,0.011-6.029-0.003c-1.522-0.011-2.166-0.679-2.168-2.284
			c-0.007-10.71-0.007-21.421-0.001-32.131c0.001-1.678,0.635-2.338,2.205-2.346c2.071-0.008,4.142-0.008,6.212,0
			c1.559,0.008,2.232,0.703,2.234,2.337C43.172,92.163,43.168,97.534,43.168,102.905"/>
		<pattern  id="SVGID_13_" xlink:href="#Unnamed_Pattern_13" patternTransform="matrix(0.5954 0 0 -0.5954 -3806.6782 -1989.3872)">
		</pattern>
		<path clip-path="url(#SVGID_7_)" fill="url(#SVGID_13_)" d="M111.039,102.795c0,5.339,0.003,10.68-0.001,16.018
			c-0.001,1.737-0.61,2.395-2.239,2.402c-2.071,0.01-4.143,0.012-6.212-0.001c-1.532-0.009-2.176-0.68-2.176-2.272
			c-0.004-10.742-0.005-21.485,0-32.229c0-1.578,0.66-2.252,2.189-2.259c2.071-0.009,4.142-0.009,6.213,0
			c1.578,0.006,2.223,0.677,2.224,2.323C111.043,92.117,111.039,97.457,111.039,102.795"/>
	</g>
</g>
<g>
	<path fill="#FFFFFF" d="M25.188,95.588h-6.715v-5.098c0-0.41,0.146-0.762,0.435-1.055c0.291-0.293,0.638-0.439,1.042-0.439h4.482
		v-3.595h-5.273c-0.211,0-0.387-0.071-0.527-0.216c-0.141-0.143-0.211-0.317-0.211-0.522s0.07-0.38,0.211-0.522
		c0.141-0.145,0.316-0.216,0.527-0.216h5.273c0.41,0,0.762,0.146,1.055,0.435c0.293,0.291,0.439,0.638,0.439,1.042v3.595
		c0,0.416-0.146,0.77-0.439,1.059c-0.293,0.291-0.645,0.436-1.055,0.436h-4.482v3.621h5.238c0.199,0,0.372,0.072,0.519,0.215
		c0.146,0.145,0.22,0.318,0.22,0.523s-0.073,0.379-0.22,0.523C25.56,95.516,25.387,95.588,25.188,95.588z"/>
	<path fill="#FFFFFF" d="M36.941,85.402v2.769c0,0.645-0.199,1.166-0.598,1.564c0.41,0.457,0.615,0.955,0.615,1.494v2.883
		c0,0.404-0.146,0.752-0.439,1.041c-0.293,0.291-0.645,0.436-1.055,0.436h-5.221c-0.205,0-0.38-0.072-0.522-0.215
		c-0.145-0.145-0.216-0.318-0.216-0.523s0.071-0.379,0.216-0.523c0.143-0.143,0.317-0.215,0.522-0.215h5.203v-2.883
		c0-0.205-0.072-0.383-0.216-0.531c-0.144-0.15-0.317-0.225-0.522-0.225h-2.971c-0.205,0-0.38-0.07-0.522-0.211
		C31.071,90.122,31,89.946,31,89.735c0-0.205,0.071-0.379,0.216-0.523c0.143-0.143,0.317-0.215,0.522-0.215h2.988
		c0.199,0,0.372-0.072,0.519-0.215c0.146-0.145,0.22-0.318,0.22-0.523v-2.856h-5.273c-0.205,0-0.38-0.071-0.522-0.216
		c-0.145-0.143-0.216-0.317-0.216-0.522s0.071-0.38,0.216-0.522c0.143-0.145,0.317-0.216,0.522-0.216h5.273
		c0.41,0,0.759,0.146,1.046,0.435C36.798,84.651,36.941,84.998,36.941,85.402z"/>
	<path fill="#FFFFFF" d="M43.202,94.112h3.419v-3.621h-4.465v-6.565h5.203c0.199,0,0.372,0.073,0.519,0.22s0.22,0.319,0.22,0.519
		c0,0.205-0.072,0.38-0.216,0.522c-0.144,0.145-0.317,0.216-0.522,0.216H43.65v3.612h2.971c0.398,0,0.744,0.146,1.037,0.439
		s0.439,0.639,0.439,1.037v3.621c0,0.404-0.146,0.752-0.435,1.041c-0.291,0.291-0.638,0.436-1.042,0.436h-3.419
		c-0.305,0-0.63-0.073-0.976-0.22l-1.116-0.466c-0.299-0.123-0.448-0.357-0.448-0.703c0-0.205,0.067-0.379,0.202-0.523
		c0.135-0.143,0.299-0.215,0.492-0.215c0.146,0,0.316,0.044,0.51,0.132l0.976,0.413C42.959,94.077,43.079,94.112,43.202,94.112z"/>
	<path fill="#FFFFFF" d="M52.276,83.925h0.738c0.205,0,0.379,0.073,0.522,0.22s0.216,0.319,0.216,0.519
		c0,0.205-0.072,0.38-0.216,0.522c-0.144,0.145-0.317,0.216-0.522,0.216v4.878h5.203c0.199,0,0.372,0.074,0.519,0.225
		c0.146,0.148,0.22,0.326,0.22,0.531v3.814c0,0.205-0.075,0.379-0.224,0.523c-0.15,0.143-0.327,0.215-0.532,0.215h-5.924
		c-0.205,0-0.382-0.073-0.532-0.22c-0.148-0.146-0.224-0.319-0.224-0.519V84.664c0-0.205,0.073-0.38,0.22-0.522
		C51.887,83.997,52.065,83.925,52.276,83.925z M52.997,91.774v2.338h4.465v-2.338H52.997z"/>
	<path fill="#FFFFFF" d="M80.97,85.402v2.769c0,0.645-0.199,1.166-0.598,1.564c0.41,0.457,0.615,0.955,0.615,1.494v2.883
		c0,0.404-0.146,0.752-0.439,1.041c-0.293,0.291-0.645,0.436-1.055,0.436h-5.221c-0.205,0-0.38-0.072-0.522-0.215
		c-0.145-0.145-0.216-0.318-0.216-0.523s0.071-0.379,0.216-0.523c0.143-0.143,0.317-0.215,0.522-0.215h5.203v-2.883
		c0-0.205-0.072-0.383-0.216-0.531c-0.144-0.15-0.317-0.225-0.522-0.225h-2.971c-0.205,0-0.38-0.07-0.522-0.211
		c-0.145-0.141-0.216-0.316-0.216-0.527c0-0.205,0.071-0.379,0.216-0.523c0.143-0.143,0.317-0.215,0.522-0.215h2.988
		c0.199,0,0.372-0.072,0.519-0.215c0.146-0.145,0.22-0.318,0.22-0.523v-2.856H74.22c-0.205,0-0.38-0.071-0.522-0.216
		c-0.145-0.143-0.216-0.317-0.216-0.522s0.071-0.38,0.216-0.522c0.143-0.145,0.317-0.216,0.522-0.216h5.273
		c0.41,0,0.759,0.146,1.046,0.435C80.826,84.651,80.97,84.998,80.97,85.402z"/>
	<path fill="#FFFFFF" d="M89.357,94.85v-3.076H84.91v-7.11c0-0.205,0.074-0.382,0.225-0.532c0.148-0.148,0.326-0.224,0.531-0.224
		c0.199,0,0.372,0.075,0.519,0.224c0.146,0.15,0.22,0.327,0.22,0.532v5.616h2.953v-4.324c0-0.205,0.071-0.383,0.215-0.531
		c0.144-0.15,0.318-0.225,0.523-0.225s0.379,0.074,0.523,0.225c0.143,0.148,0.215,0.326,0.215,0.531v4.324
		c0.205,0,0.379,0.072,0.523,0.215c0.143,0.145,0.215,0.318,0.215,0.523s-0.072,0.379-0.215,0.523
		c-0.145,0.143-0.318,0.215-0.523,0.215v3.094c0,0.205-0.073,0.379-0.22,0.523c-0.146,0.143-0.319,0.215-0.519,0.215
		c-0.205,0-0.38-0.072-0.523-0.215C89.429,95.229,89.357,95.055,89.357,94.85z"/>
	<path fill="#FFFFFF" d="M96.305,83.925h0.738c0.205,0,0.379,0.073,0.522,0.22s0.216,0.319,0.216,0.519
		c0,0.205-0.072,0.38-0.216,0.522c-0.144,0.145-0.317,0.216-0.522,0.216v4.878h5.203c0.199,0,0.372,0.074,0.519,0.225
		c0.146,0.148,0.22,0.326,0.22,0.531v3.814c0,0.205-0.075,0.379-0.224,0.523c-0.15,0.143-0.327,0.215-0.532,0.215h-5.924
		c-0.205,0-0.382-0.073-0.532-0.22c-0.148-0.146-0.224-0.319-0.224-0.519V84.664c0-0.205,0.073-0.38,0.22-0.522
		C95.915,83.997,96.094,83.925,96.305,83.925z M97.025,91.774v2.338h4.465v-2.338H97.025z"/>
	<path fill="#FFFFFF" d="M106.529,85.314v-0.633c0-0.205,0.071-0.38,0.216-0.522c0.143-0.145,0.317-0.216,0.522-0.216h6.697v4.535
		c0,0.24-0.091,0.439-0.272,0.598l-2.716,2.32v3.437c0,0.205-0.072,0.383-0.216,0.531c-0.144,0.15-0.317,0.225-0.522,0.225
		s-0.382-0.073-0.532-0.22c-0.148-0.146-0.224-0.319-0.224-0.519v-3.729c0-0.281,0.087-0.498,0.263-0.65l2.726-2.306v-2.746h-4.465
		c-0.105,0.422-0.352,0.633-0.738,0.633c-0.205,0-0.38-0.071-0.522-0.216C106.601,85.694,106.529,85.519,106.529,85.314z"/>
	<path fill="#FFFFFF" d="M129.246,94.112h2.268v-8.71h-2.232c-0.205,0-0.38-0.071-0.522-0.216c-0.145-0.143-0.216-0.317-0.216-0.522
		s0.071-0.38,0.216-0.522c0.143-0.145,0.317-0.216,0.522-0.216h3.709v10.187h1.477v-3.076c0-0.199,0.071-0.372,0.216-0.519
		c0.143-0.146,0.317-0.22,0.522-0.22s0.379,0.072,0.522,0.215c0.144,0.145,0.216,0.318,0.216,0.523v3.814
		c0,0.205-0.072,0.379-0.216,0.523c-0.144,0.143-0.317,0.215-0.522,0.215h-5.959c-0.205,0-0.38-0.074-0.522-0.225
		c-0.145-0.148-0.216-0.326-0.216-0.531c0-0.199,0.071-0.369,0.216-0.51C128.866,94.182,129.041,94.112,129.246,94.112z"/>
	<path fill="#FFFFFF" d="M140.263,94.112h2.268v-8.71h-2.232c-0.205,0-0.38-0.071-0.522-0.216c-0.145-0.143-0.216-0.317-0.216-0.522
		s0.071-0.38,0.216-0.522c0.143-0.145,0.317-0.216,0.522-0.216h3.709v10.187h1.477v-3.076c0-0.199,0.071-0.372,0.216-0.519
		c0.143-0.146,0.317-0.22,0.522-0.22s0.379,0.072,0.522,0.215c0.144,0.145,0.216,0.318,0.216,0.523v3.814
		c0,0.205-0.072,0.379-0.216,0.523c-0.144,0.143-0.317,0.215-0.522,0.215h-5.959c-0.205,0-0.38-0.074-0.522-0.225
		c-0.145-0.148-0.216-0.326-0.216-0.531c0-0.199,0.071-0.369,0.216-0.51C139.883,94.182,140.058,94.112,140.263,94.112z"/>
	<path fill="#FFFFFF" d="M150.558,94.165v-8.833c0-0.387,0.141-0.721,0.422-1.002s0.615-0.422,1.002-0.422h4.605
		c0.381,0,0.71,0.141,0.989,0.422c0.277,0.281,0.417,0.615,0.417,1.002v8.833c0,0.393-0.14,0.729-0.417,1.006
		c-0.279,0.279-0.614,0.418-1.007,0.418h-4.588c-0.398,0-0.735-0.139-1.011-0.418C150.695,94.893,150.558,94.557,150.558,94.165z
		 M156.534,94.112v-8.71h-4.5v8.71H156.534z"/>
	<path fill="#FFFFFF" d="M169.026,85.402v2.769c0,0.645-0.199,1.166-0.598,1.564c0.41,0.457,0.615,0.955,0.615,1.494v2.883
		c0,0.404-0.146,0.752-0.439,1.041c-0.293,0.291-0.645,0.436-1.055,0.436h-5.221c-0.205,0-0.38-0.072-0.522-0.215
		c-0.145-0.145-0.216-0.318-0.216-0.523s0.071-0.379,0.216-0.523c0.143-0.143,0.317-0.215,0.522-0.215h5.203v-2.883
		c0-0.205-0.072-0.383-0.216-0.531c-0.144-0.15-0.317-0.225-0.522-0.225h-2.971c-0.205,0-0.38-0.07-0.522-0.211
		c-0.145-0.141-0.216-0.316-0.216-0.527c0-0.205,0.071-0.379,0.216-0.523c0.143-0.143,0.317-0.215,0.522-0.215h2.988
		c0.199,0,0.372-0.072,0.519-0.215c0.146-0.145,0.22-0.318,0.22-0.523v-2.856h-5.273c-0.205,0-0.38-0.071-0.522-0.216
		c-0.145-0.143-0.216-0.317-0.216-0.522s0.071-0.38,0.216-0.522c0.143-0.145,0.317-0.216,0.522-0.216h5.273
		c0.41,0,0.759,0.146,1.046,0.435C168.883,84.651,169.026,84.998,169.026,85.402z"/>
	<path fill="#FFFFFF" d="M186.321,94.112h3.419v-3.621h-4.465v-6.565h5.203c0.199,0,0.372,0.073,0.519,0.22s0.22,0.319,0.22,0.519
		c0,0.205-0.072,0.38-0.216,0.522c-0.144,0.145-0.317,0.216-0.522,0.216h-3.709v3.612h2.971c0.398,0,0.744,0.146,1.037,0.439
		s0.439,0.639,0.439,1.037v3.621c0,0.404-0.146,0.752-0.435,1.041c-0.291,0.291-0.638,0.436-1.042,0.436h-3.419
		c-0.305,0-0.63-0.073-0.976-0.22l-1.116-0.466c-0.299-0.123-0.448-0.357-0.448-0.703c0-0.205,0.067-0.379,0.202-0.523
		c0.135-0.143,0.299-0.215,0.492-0.215c0.146,0,0.316,0.044,0.51,0.132l0.976,0.413C186.078,94.077,186.198,94.112,186.321,94.112z"
		/>
	<path fill="#FFFFFF" d="M194.586,94.165v-8.833c0-0.387,0.141-0.721,0.422-1.002s0.615-0.422,1.002-0.422h4.605
		c0.381,0,0.71,0.141,0.989,0.422c0.277,0.281,0.417,0.615,0.417,1.002v8.833c0,0.393-0.14,0.729-0.417,1.006
		c-0.279,0.279-0.614,0.418-1.007,0.418h-4.588c-0.398,0-0.735-0.139-1.011-0.418C194.724,94.893,194.586,94.557,194.586,94.165z
		 M200.562,94.112v-8.71h-4.5v8.71H200.562z"/>
	<path fill="#FFFFFF" d="M205.603,94.165v-8.833c0-0.387,0.141-0.721,0.422-1.002s0.615-0.422,1.002-0.422h4.605
		c0.381,0,0.71,0.141,0.989,0.422c0.277,0.281,0.417,0.615,0.417,1.002v8.833c0,0.393-0.14,0.729-0.417,1.006
		c-0.279,0.279-0.614,0.418-1.007,0.418h-4.588c-0.398,0-0.735-0.139-1.011-0.418C205.74,94.893,205.603,94.557,205.603,94.165z
		 M211.579,94.112v-8.71h-4.5v8.71H211.579z"/>
	<path fill="#FFFFFF" d="M223.333,95.588h-6.715v-5.098c0-0.41,0.146-0.762,0.435-1.055c0.291-0.293,0.638-0.439,1.042-0.439h4.482
		v-3.595h-5.273c-0.211,0-0.387-0.071-0.527-0.216c-0.141-0.143-0.211-0.317-0.211-0.522s0.07-0.38,0.211-0.522
		c0.141-0.145,0.316-0.216,0.527-0.216h5.273c0.41,0,0.762,0.146,1.055,0.435c0.293,0.291,0.439,0.638,0.439,1.042v3.595
		c0,0.416-0.146,0.77-0.439,1.059c-0.293,0.291-0.645,0.436-1.055,0.436h-4.482v3.621h5.238c0.199,0,0.372,0.072,0.519,0.215
		c0.146,0.145,0.22,0.318,0.22,0.523s-0.073,0.379-0.22,0.523C223.705,95.516,223.532,95.588,223.333,95.588z"/>
</g>
</svg>
