<?xml version="1.0" encoding="utf-8"?>
<!-- Generator: Adobe Illustrator 15.1.0, SVG Export Plug-In . SVG Version: 6.00 Build 0)  -->
<!DOCTYPE svg PUBLIC "-//W3C//DTD SVG 1.1//EN" "http://www.w3.org/Graphics/SVG/1.1/DTD/svg11.dtd">
<svg version="1.1" id="Layer_1" xmlns="http://www.w3.org/2000/svg" xmlns:xlink="http://www.w3.org/1999/xlink" x="0px" y="0px"
	 width="242.216px" height="153px" viewBox="-46.626 46.626 242.216 153" enable-background="new -46.626 46.626 242.216 153"
	 xml:space="preserve">
<path fill="#0F0F0F" d="M-46.626,55.129c0-4.677,3.764-8.503,8.364-8.503h225.489c4.6,0,8.363,3.826,8.363,8.503v135.994
	c0,4.676-3.764,8.503-8.363,8.503H-38.262c-4.6,0-8.364-3.827-8.364-8.504V55.129z"/>
<path fill="none" stroke="#FFFFFF" stroke-width="0.726" stroke-miterlimit="10" d="M184.96,191.896
	c1.178,0,2.143-0.979,2.143-2.178V56.533c0-1.198-0.963-2.178-2.143-2.178H-33.854c-1.178,0-2.142,0.98-2.142,2.178v48.629
	c0,1.197-0.804,2.178-1.786,2.178s-1.786,0.98-1.786,2.178v27.217c0,1.197,0.803,2.179,1.786,2.179s1.786,0.979,1.786,2.177v48.633
	c0,1.195,0.963,2.176,2.142,2.176H184.96V191.896z"/>
<line fill="none" stroke="#FFFFFF" stroke-width="0.726" stroke-miterlimit="10" x1="20.383" y1="54.287" x2="20.383" y2="46.787"/>
<line fill="none" stroke="#FFFFFF" stroke-width="0.726" stroke-miterlimit="10" x1="-27.687" y1="54.287" x2="-27.687" y2="46.787"/>
<path fill="#FFFFFF" d="M15.147,52.593c-0.262,0-0.475-0.217-0.475-0.484s0.215-0.484,0.475-0.484c0.265,0,0.477,0.217,0.477,0.484
	S15.409,52.593,15.147,52.593"/>
<path fill="#FFFFFF" d="M11.777,52.593c-0.264,0-0.476-0.217-0.476-0.484s0.213-0.484,0.476-0.484s0.474,0.217,0.474,0.484
	S12.041,52.593,11.777,52.593"/>
<path fill="#FFFFFF" d="M8.405,52.593c-0.263,0-0.476-0.217-0.476-0.484s0.216-0.484,0.476-0.484c0.261,0,0.477,0.217,0.477,0.484
	S8.667,52.593,8.405,52.593"/>
<path fill="#FFFFFF" d="M5.034,52.593c-0.263,0-0.474-0.217-0.474-0.484s0.213-0.484,0.474-0.484c0.265,0,0.476,0.217,0.476,0.484
	S5.297,52.593,5.034,52.593"/>
<path fill="#FFFFFF" d="M1.663,52.593c-0.263,0-0.475-0.217-0.475-0.484s0.214-0.484,0.475-0.484c0.262,0,0.476,0.217,0.476,0.484
	S1.925,52.593,1.663,52.593"/>
<path fill="#FFFFFF" d="M-1.708,52.593c-0.263,0-0.475-0.217-0.475-0.484s0.213-0.484,0.475-0.484c0.265,0,0.475,0.217,0.475,0.484
	S-1.444,52.593-1.708,52.593"/>
<path fill="#FFFFFF" d="M-5.08,52.593c-0.264,0-0.476-0.217-0.476-0.484s0.214-0.484,0.476-0.484c0.263,0,0.475,0.217,0.475,0.484
	C-4.602,52.376-4.817,52.593-5.08,52.593"/>
<path fill="#FFFFFF" d="M-10.572,52.593c-0.263,0-0.475-0.217-0.475-0.484s0.214-0.484,0.475-0.484c0.264,0,0.475,0.217,0.475,0.484
	C-10.095,52.376-10.308,52.593-10.572,52.593"/>
<path fill="#FFFFFF" d="M-13.94,52.593c-0.265,0-0.476-0.217-0.476-0.484s0.213-0.484,0.476-0.484s0.474,0.217,0.474,0.484
	S-13.68,52.593-13.94,52.593"/>
<path fill="#FFFFFF" d="M-17.313,52.593c-0.262,0-0.475-0.217-0.475-0.484s0.215-0.484,0.475-0.484c0.263,0,0.476,0.217,0.476,0.484
	S-17.052,52.593-17.313,52.593"/>
<path fill="#FFFFFF" d="M-20.685,52.593c-0.263,0-0.475-0.217-0.475-0.484s0.213-0.484,0.475-0.484c0.265,0,0.475,0.217,0.475,0.484
	S-20.42,52.593-20.685,52.593"/>
<path fill="#FFFFFF" d="M-24.056,52.593c-0.265,0-0.476-0.217-0.476-0.484s0.214-0.484,0.476-0.484c0.263,0,0.474,0.217,0.474,0.484
	C-23.58,52.376-23.793,52.593-24.056,52.593"/>
<path fill="#302F2F" d="M143.578,183.312c-1.963,0-3.569-1.633-3.569-3.629v-54.498c0-1.996,1.606-3.629,3.569-3.629h32.709
	c1.964,0,3.569,1.633,3.569,3.629v54.498c0,1.996-1.605,3.629-3.569,3.629H143.578L143.578,183.312z"/>
<g>
	<path fill="#FFFFFF" d="M149.301,126.212l0.486,0.494l-0.486,0.479h-2.221l-0.559-0.976L149.301,126.212L149.301,126.212z
		 M146.266,126.212l-0.486,0.978h-2.294l-0.484-0.481l0.484-0.494L146.266,126.212L146.266,126.212z M150.445,127.359v2.396
		l-0.497,0.508l-0.474-0.508v-2.396l0.474-0.492L150.445,127.359z M143.314,127.359v2.396l-0.472,0.508l-0.497-0.508v-2.396
		l0.497-0.492L143.314,127.359z M149.301,129.917l0.486,0.493l-0.486,0.48h-2.779l0.559-0.976L149.301,129.917L149.301,129.917z
		 M145.779,129.917l0.486,0.978h-2.78l-0.484-0.482l0.484-0.493L145.779,129.917L145.779,129.917z"/>
	<path fill="#FFFFFF" d="M149.301,132.271l0.486,0.494l-0.486,0.479h-2.221l-0.559-0.976h2.779V132.271z M146.266,132.271
		l-0.486,0.976h-2.294l-0.484-0.479l0.484-0.494h2.78V132.271z M146.922,133.419v2.396l-0.535,0.926l-0.448-0.926v-2.396
		l0.448-0.926L146.922,133.419z M150.445,133.419v2.396l-0.497,0.506l-0.474-0.506v-2.396l0.474-0.494L150.445,133.419z
		 M143.314,133.419v2.396l-0.472,0.506l-0.497-0.506v-2.396l0.497-0.494L143.314,133.419z M149.301,135.975l0.486,0.493
		l-0.486,0.481h-2.779l0.559-0.977h2.221V135.975z M145.779,135.975l0.486,0.977h-2.78l-0.484-0.481l0.484-0.493h2.294V135.975z"/>
	<path fill="#FFFFFF" d="M149.301,138.316l0.486,0.494l-0.486,0.48h-2.221l-0.559-0.975H149.301L149.301,138.316z M146.266,138.316
		l-0.486,0.977h-2.294l-0.484-0.48l0.484-0.492h2.78V138.316z M150.445,139.465v2.396l-0.497,0.507l-0.474-0.507v-2.396l0.474-0.492
		L150.445,139.465z M143.314,139.465v2.396l-0.472,0.507l-0.497-0.507v-2.396l0.497-0.492L143.314,139.465z M149.301,142.021
		l0.486,0.494l-0.486,0.479h-2.779l0.559-0.976h2.221V142.021z M145.779,142.021l0.486,0.976h-2.78l-0.484-0.479l0.484-0.494h2.294
		V142.021z"/>
	<path fill="#FFFFFF" d="M149.301,144.361l0.486,0.494l-0.486,0.481h-2.221l-0.559-0.976H149.301L149.301,144.361z M146.266,144.361
		l-0.486,0.978h-2.294l-0.484-0.479l0.484-0.494h2.78V144.361z M150.445,145.511v2.396l-0.497,0.508l-0.474-0.508v-2.396
		l0.474-0.493L150.445,145.511z M143.314,145.511v2.396l-0.472,0.508l-0.497-0.508v-2.396l0.497-0.493L143.314,145.511z
		 M149.301,148.066l0.486,0.492l-0.486,0.482h-2.779l0.559-0.977h2.221V148.066L149.301,148.066z M145.779,148.066l0.486,0.977
		h-2.78l-0.484-0.48l0.484-0.494h2.294V148.066z"/>
</g>
<g>
	<path fill="#FFFFFF" d="M150.445,157.296l-0.971-0.987v-1l0.971-0.976V157.296z M149.301,156.468l0.983,1h-3.763l0.559-1H149.301z
		 M145.779,156.468l0.486,1h-3.92l0.969-1H145.779z"/>
	<path fill="#FFFFFF" d="M150.445,163.021l-0.971-0.987v-1l0.971-0.976V163.021z M149.301,162.193l0.983,1h-3.763l0.559-1H149.301z
		 M145.779,162.193l0.486,1h-3.92l0.969-1H145.779z"/>
	<path fill="#FFFFFF" d="M150.445,172.46l-0.971-0.987v-1l0.971-0.976V172.46z M149.301,171.632l0.983,1h-3.763l0.559-1H149.301z
		 M145.779,171.632l0.486,1h-3.92l0.969-1H145.779z"/>
	<path fill="#FFFFFF" d="M149.301,175.223l0.486,0.493l-0.486,0.479h-2.221l-0.559-0.975h2.779V175.223z M143.314,176.173v2.593
		l-0.472,0.508l-0.497-0.508v-3.543L143.314,176.173z M146.922,176.371v2.396l-0.535,0.926l-0.448-0.926v-2.396l0.448-0.928
		L146.922,176.371z M150.445,176.371v3.333l-0.971-0.938v-2.396l0.474-0.494L150.445,176.371z M145.779,178.926l0.486,0.977h-2.78
		l-0.484-0.481l0.484-0.493L145.779,178.926L145.779,178.926z"/>
</g>
<g>
	<path fill="#FFFFFF" d="M177.187,141.287v1.025l-2.931,1.105l2.931,1.107v1.002l-4.189-1.709v-0.821L177.187,141.287z"/>
	<path fill="#FFFFFF" d="M177.187,146.405v0.932h-4.16v-0.932H177.187z"/>
</g>
<g>
	<path fill="#FFFFFF" d="M169.388,125.798l-1.327,1.324h-5.581l-0.664-1.324H169.388z M161.181,125.798l-0.639,1.324h-5.9
		l-1.328-1.324H161.181z M162.164,127.448v5.997l-0.665,1.426l-0.639-1.426v-5.997l0.639-1.399L162.164,127.448z M169.709,134.796
		l-1.329-1.351v-6l1.329-1.322V134.796z M168.064,133.796l1.327,1.324h-7.572l0.663-1.324H168.064z M160.54,133.796l0.637,1.324
		h-7.867l1.33-1.324H160.54z"/>
	<path fill="#FFFFFF" d="M169.388,139.074l-1.327,1.322h-5.581l-0.664-1.322H169.388z M161.181,139.074l-0.639,1.322h-5.9
		l-1.328-1.322H161.181z M169.709,156.068l-1.329-1.375v-5.947l0.96-1.023l-0.96-1V140.7l1.329-1.325V156.068z M168.161,147.07
		l0.637,0.65l-0.737,0.674h-5.973l-0.492-0.674l0.492-0.65H168.161z M160.689,147.07l0.491,0.65l-0.491,0.674h-6.713l-0.663-0.674
		l0.663-0.65H160.689z M168.064,155.068l1.327,1.324h-7.572l0.664-1.324H168.064z M160.54,155.068l0.637,1.324h-7.867l1.33-1.324
		H160.54z"/>
	<path fill="#FFFFFF" d="M169.388,160.35l-1.327,1.323h-5.581l-0.664-1.323H169.388z M161.181,160.35l-0.639,1.323h-5.582
		l-1.328-1.323H161.181z M162.164,161.998v5.999l-0.665,1.425l-0.639-1.425v-5.999l0.639-1.398L162.164,161.998z M169.709,169.348
		l-1.329-1.352v-5.999l1.329-1.324V169.348z M154.64,161.998v5.999l-1.33,1.351v-8.674L154.64,161.998z"/>
	<path fill="#FFFFFF" d="M169.709,171.85v1.248l-6.073,2.75h-1.917v-0.574l7.475-3.424H169.709z M153.95,171.85l7.354,3.473v0.525
		h-1.944l-6.046-2.726v-1.272H153.95z M163.638,176.296l6.073,2.726v1.25h-0.516l-7.475-3.351v-0.625H163.638z M161.304,176.296
		v0.603l-7.354,3.373h-0.637v-1.25l6.046-2.726H161.304L161.304,176.296z"/>
</g>
<path fill="#FFFFFF" d="M111.165,167.098c-7.166,0-12.974-5.906-12.974-13.191c0-7.286,5.808-13.191,12.974-13.191
	c7.166,0,12.973,5.905,12.973,13.191C124.138,161.189,118.331,167.098,111.165,167.098"/>
<path fill="#111111" d="M111.165,166.188c-6.673,0-12.083-5.5-12.083-12.282c0-6.784,5.41-12.284,12.083-12.284
	s12.083,5.5,12.083,12.284C123.248,160.688,117.837,166.188,111.165,166.188"/>
<path fill="#FFFFFF" d="M111.165,165.102c-6.082,0-11.01-5.014-11.01-11.195c0-6.184,4.93-11.195,11.01-11.195
	c6.081,0,11.01,5.014,11.01,11.195S117.247,165.102,111.165,165.102"/>
<path fill="#111111" d="M111.165,161.574c-4.166,0-7.543-3.436-7.543-7.669c0-4.235,3.377-7.669,7.543-7.669
	s7.543,3.434,7.543,7.669S115.33,161.574,111.165,161.574"/>
<path fill="#FFFFFF" d="M-30.55,118.654c0.136-0.09,0.251-0.215,0.346-0.377c0.093-0.16,0.14-0.344,0.14-0.551
	c0.006-0.217-0.027-0.41-0.102-0.582c-0.072-0.172-0.176-0.317-0.306-0.439c-0.13-0.121-0.285-0.214-0.463-0.277
	c-0.179-0.062-0.374-0.095-0.581-0.095s-0.401,0.032-0.58,0.095c-0.182,0.063-0.336,0.156-0.466,0.277
	c-0.13,0.122-0.229,0.268-0.304,0.439c-0.072,0.172-0.106,0.365-0.102,0.582c0,0.207,0.048,0.391,0.143,0.551
	c0.094,0.162,0.208,0.287,0.342,0.377l-0.318,0.428c-0.213-0.186-0.37-0.395-0.471-0.626c-0.102-0.233-0.155-0.476-0.16-0.729
	c-0.005-0.301,0.04-0.572,0.136-0.815c0.098-0.243,0.229-0.45,0.401-0.622c0.171-0.171,0.375-0.303,0.612-0.393
	c0.236-0.09,0.492-0.133,0.766-0.133c0.277,0,0.532,0.043,0.769,0.133c0.234,0.09,0.438,0.222,0.609,0.393
	c0.172,0.172,0.307,0.379,0.402,0.622c0.097,0.243,0.144,0.515,0.138,0.815c-0.007,0.254-0.06,0.496-0.16,0.729
	c-0.102,0.231-0.261,0.44-0.471,0.626L-30.55,118.654z"/>
<path fill="#FFFFFF" d="M-31.518,123.518c-0.273,0-0.528-0.048-0.761-0.146c-0.233-0.099-0.437-0.233-0.608-0.408
	c-0.171-0.174-0.304-0.382-0.401-0.622s-0.144-0.506-0.144-0.796c0-0.285,0.048-0.548,0.144-0.788
	c0.098-0.24,0.23-0.447,0.401-0.622c0.171-0.174,0.375-0.31,0.608-0.407c0.233-0.099,0.488-0.147,0.761-0.147
	c0.277,0,0.53,0.049,0.763,0.147c0.234,0.098,0.437,0.233,0.608,0.407c0.172,0.175,0.306,0.382,0.401,0.622
	c0.096,0.24,0.144,0.503,0.144,0.788c0,0.29-0.049,0.556-0.144,0.796c-0.097,0.24-0.229,0.448-0.401,0.622
	c-0.171,0.175-0.374,0.31-0.608,0.408C-30.988,123.47-31.24,123.518-31.518,123.518 M-31.518,122.948
	c0.204,0,0.393-0.033,0.569-0.099c0.179-0.066,0.331-0.16,0.462-0.281c0.13-0.123,0.231-0.269,0.307-0.44
	c0.074-0.171,0.113-0.366,0.113-0.582c0-0.217-0.039-0.411-0.113-0.582c-0.075-0.172-0.178-0.317-0.307-0.437
	c-0.132-0.118-0.283-0.211-0.462-0.276c-0.176-0.065-0.365-0.099-0.569-0.099c-0.202,0-0.39,0.033-0.566,0.099
	c-0.179,0.065-0.331,0.158-0.462,0.276c-0.13,0.119-0.231,0.265-0.307,0.437c-0.076,0.171-0.113,0.365-0.113,0.582
	c0,0.216,0.037,0.411,0.113,0.582c0.075,0.172,0.177,0.317,0.307,0.44c0.131,0.121,0.283,0.215,0.462,0.281
	C-31.908,122.915-31.72,122.948-31.518,122.948"/>
<path fill="#FFFFFF" d="M-28.29,125.229c-0.109,0-0.198-0.041-0.268-0.119c-0.07-0.08-0.104-0.166-0.104-0.262
	s0.034-0.184,0.104-0.262c0.07-0.079,0.158-0.118,0.268-0.118c0.108,0,0.198,0.039,0.268,0.118c0.07,0.078,0.104,0.166,0.104,0.262
	s-0.035,0.182-0.104,0.262C-28.091,125.188-28.181,125.229-28.29,125.229 M-33.338,125.109v-0.521h3.646v0.521H-33.338z"/>
<path fill="#FFFFFF" d="M-30.067,128.018v-0.231c0-0.386-0.107-0.649-0.323-0.793c-0.216-0.144-0.524-0.214-0.929-0.214h-2.02
	v-0.522h2.315c0.457,0,0.809,0.113,1.055,0.341c0.248,0.229,0.371,0.578,0.371,1.055v0.503c0,0.476-0.123,0.825-0.371,1.053
	c-0.246,0.229-0.598,0.342-1.055,0.342h-2.315v-0.522h2.02c0.405,0,0.715-0.069,0.929-0.213
	C-30.175,128.67-30.067,128.402-30.067,128.018"/>
</svg>
