<?xml version="1.0" encoding="utf-8"?>
<!-- Generator: Adobe Illustrator 15.1.0, SVG Export Plug-In . SVG Version: 6.00 Build 0)  -->
<!DOCTYPE svg PUBLIC "-//W3C//DTD SVG 1.1//EN" "http://www.w3.org/Graphics/SVG/1.1/DTD/svg11.dtd">
<svg version="1.1" id="Layer_1" xmlns="http://www.w3.org/2000/svg" xmlns:xlink="http://www.w3.org/1999/xlink" x="0px" y="0px"
	 width="246.252px" height="153px" viewBox="-46.626 46.626 246.252 153" enable-background="new -46.626 46.626 246.252 153"
	 xml:space="preserve">
<path fill="#0F0F0F" d="M-46.626,55.129c0-4.677,3.826-8.503,8.503-8.503h229.246c4.677,0,8.503,3.826,8.503,8.503v135.994
	c0,4.676-3.826,8.503-8.503,8.503H-38.123c-4.677,0-8.503-3.827-8.503-8.504V55.129z"/>
<path fill="none" stroke="#FFFFFF" stroke-width="0.726" stroke-miterlimit="10" d="M188.82,191.897
	c1.197,0,2.177-0.979,2.177-2.178V56.533c0-1.198-0.979-2.178-2.177-2.178H-33.641c-1.198,0-2.178,0.98-2.178,2.178v48.629
	c0,1.198-0.817,2.178-1.816,2.178s-1.815,0.98-1.815,2.177v27.218c0,1.197,0.816,2.178,1.815,2.178s1.816,0.979,1.816,2.177v48.632
	c0,1.196,0.979,2.176,2.178,2.176H188.82L188.82,191.897z"/>
<line fill="none" stroke="#FFFFFF" stroke-width="0.726" stroke-miterlimit="10" x1="21.5" y1="54.287" x2="21.5" y2="46.787"/>
<line fill="none" stroke="#FFFFFF" stroke-width="0.726" stroke-miterlimit="10" x1="-27.371" y1="54.287" x2="-27.371" y2="46.787"/>
<path fill="#FFFFFF" d="M16.177,52.593c-0.267,0-0.483-0.217-0.483-0.484s0.218-0.484,0.483-0.484c0.269,0,0.484,0.217,0.484,0.484
	S16.443,52.593,16.177,52.593"/>
<path fill="#FFFFFF" d="M12.75,52.593c-0.268,0-0.484-0.217-0.484-0.484s0.217-0.484,0.484-0.484s0.482,0.217,0.482,0.484
	S13.018,52.593,12.75,52.593"/>
<path fill="#FFFFFF" d="M9.322,52.593c-0.268,0-0.484-0.217-0.484-0.484s0.219-0.484,0.484-0.484s0.484,0.217,0.484,0.484
	S9.589,52.593,9.322,52.593"/>
<path fill="#FFFFFF" d="M5.895,52.593c-0.267,0-0.482-0.217-0.482-0.484s0.217-0.484,0.482-0.484c0.269,0,0.484,0.217,0.484,0.484
	S6.162,52.593,5.895,52.593"/>
<path fill="#FFFFFF" d="M2.468,52.593c-0.268,0-0.483-0.217-0.483-0.484s0.217-0.484,0.483-0.484s0.483,0.217,0.483,0.484
	S2.734,52.593,2.468,52.593"/>
<path fill="#FFFFFF" d="M-0.96,52.593c-0.267,0-0.483-0.217-0.483-0.484s0.217-0.484,0.483-0.484c0.269,0,0.483,0.217,0.483,0.484
	S-0.691,52.593-0.96,52.593"/>
<path fill="#FFFFFF" d="M-4.387,52.593c-0.269,0-0.484-0.217-0.484-0.484s0.217-0.484,0.484-0.484c0.267,0,0.482,0.217,0.482,0.484
	C-3.902,52.376-4.12,52.593-4.387,52.593"/>
<path fill="#FFFFFF" d="M-9.971,52.593c-0.268,0-0.483-0.217-0.483-0.484s0.217-0.484,0.483-0.484c0.268,0,0.483,0.217,0.483,0.484
	C-9.486,52.376-9.703,52.593-9.971,52.593"/>
<path fill="#FFFFFF" d="M-13.396,52.593c-0.269,0-0.484-0.217-0.484-0.484s0.217-0.484,0.484-0.484c0.267,0,0.482,0.217,0.482,0.484
	S-13.131,52.593-13.396,52.593"/>
<path fill="#FFFFFF" d="M-16.825,52.593c-0.267,0-0.483-0.217-0.483-0.484s0.218-0.484,0.483-0.484c0.267,0,0.484,0.217,0.484,0.484
	S-16.559,52.593-16.825,52.593"/>
<path fill="#FFFFFF" d="M-20.253,52.593c-0.267,0-0.483-0.217-0.483-0.484s0.217-0.484,0.483-0.484c0.269,0,0.483,0.217,0.483,0.484
	S-19.984,52.593-20.253,52.593"/>
<path fill="#FFFFFF" d="M-23.68,52.593c-0.269,0-0.484-0.217-0.484-0.484s0.217-0.484,0.484-0.484c0.267,0,0.482,0.217,0.482,0.484
	C-23.196,52.376-23.413,52.593-23.68,52.593"/>
<path fill="#302F2F" d="M146.748,183.313c-1.996,0-3.629-1.633-3.629-3.629v-54.498c0-1.997,1.633-3.629,3.629-3.629h33.254
	c1.996,0,3.629,1.633,3.629,3.629v54.498c0,1.996-1.633,3.629-3.629,3.629H146.748L146.748,183.313z"/>
<g>
	<path fill="#FFFFFF" d="M152.566,126.212l0.494,0.494l-0.494,0.48h-2.258l-0.568-0.976L152.566,126.212L152.566,126.212z
		 M149.48,126.212l-0.494,0.977h-2.332l-0.493-0.481l0.493-0.494L149.48,126.212L149.48,126.212z M153.729,127.36v2.396
		l-0.506,0.507l-0.481-0.507v-2.396l0.481-0.493L153.729,127.36z M146.48,127.36v2.396l-0.48,0.507l-0.506-0.507v-2.396l0.506-0.493
		L146.48,127.36z M152.566,129.917l0.494,0.493l-0.494,0.481h-2.826l0.568-0.976L152.566,129.917L152.566,129.917z M148.986,129.917
		l0.494,0.977h-2.826l-0.493-0.482l0.493-0.493L148.986,129.917L148.986,129.917z"/>
	<path fill="#FFFFFF" d="M152.566,132.271l0.494,0.494l-0.494,0.48h-2.258l-0.568-0.975H152.566L152.566,132.271z M149.48,132.271
		l-0.494,0.976h-2.332l-0.493-0.479l0.493-0.494h2.826V132.271z M150.148,133.419v2.395l-0.545,0.926l-0.455-0.926v-2.395
		l0.455-0.926L150.148,133.419z M153.729,133.419v2.395l-0.506,0.506l-0.481-0.506v-2.395l0.481-0.494L153.729,133.419z
		 M146.48,133.419v2.395l-0.48,0.506l-0.506-0.506v-2.395l0.506-0.494L146.48,133.419z M152.566,135.974l0.494,0.494l-0.494,0.481
		h-2.826l0.568-0.976H152.566L152.566,135.974z M148.986,135.974l0.494,0.977h-2.826l-0.493-0.481l0.493-0.493h2.332V135.974z"/>
	<path fill="#FFFFFF" d="M152.566,138.317l0.494,0.494l-0.494,0.48h-2.258l-0.568-0.975H152.566L152.566,138.317z M149.48,138.317
		l-0.494,0.976h-2.332l-0.493-0.481l0.493-0.492h2.826V138.317z M153.729,139.465v2.396l-0.506,0.507l-0.481-0.507v-2.396
		l0.481-0.493L153.729,139.465z M146.48,139.465v2.396l-0.48,0.507l-0.506-0.507v-2.396l0.506-0.493L146.48,139.465z
		 M152.566,142.021l0.494,0.494l-0.494,0.48h-2.826l0.568-0.975H152.566L152.566,142.021z M148.986,142.021l0.494,0.976h-2.826
		l-0.493-0.479l0.493-0.494h2.332V142.021z"/>
	<path fill="#FFFFFF" d="M152.566,144.362l0.494,0.494l-0.494,0.481h-2.258l-0.568-0.976H152.566L152.566,144.362z M149.48,144.362
		l-0.494,0.977h-2.332l-0.493-0.48l0.493-0.494h2.826V144.362z M153.729,145.511v2.395l-0.506,0.508l-0.481-0.508v-2.395
		l0.481-0.494L153.729,145.511z M146.48,145.511v2.395l-0.48,0.508l-0.506-0.508v-2.395l0.506-0.494L146.48,145.511z
		 M152.566,148.067l0.494,0.492l-0.494,0.482h-2.826l0.568-0.977h2.258V148.067z M148.986,148.067l0.494,0.976h-2.826l-0.493-0.481
		l0.493-0.494H148.986L148.986,148.067z"/>
</g>
<g>
	<path fill="#FFFFFF" d="M153.729,157.296l-0.987-0.988v-1l0.987-0.975V157.296z M152.566,156.468l1,1h-3.826l0.568-1H152.566z
		 M148.986,156.468l0.494,1h-3.986l0.986-1H148.986z"/>
	<path fill="#FFFFFF" d="M153.729,163.021l-0.987-0.987v-1l0.987-0.976V163.021z M152.566,162.194l1,1h-3.826l0.568-1H152.566z
		 M148.986,162.194l0.494,1h-3.986l0.986-1H148.986z"/>
	<path fill="#FFFFFF" d="M153.729,172.46l-0.987-0.988v-1l0.987-0.975V172.46z M152.566,171.632l1,1h-3.826l0.568-1H152.566z
		 M148.986,171.632l0.494,1h-3.986l0.986-1H148.986z"/>
	<path fill="#FFFFFF" d="M152.566,175.222l0.494,0.494l-0.494,0.48h-2.258l-0.568-0.975H152.566L152.566,175.222z M146.48,176.173
		v2.592l-0.48,0.508l-0.506-0.508v-3.543L146.48,176.173z M150.148,176.371v2.396l-0.545,0.926l-0.455-0.926v-2.396l0.455-0.927
		L150.148,176.371z M153.729,176.371v3.333l-0.987-0.938v-2.396l0.481-0.494L153.729,176.371z M148.986,178.926l0.494,0.976h-2.826
		l-0.493-0.481l0.493-0.493L148.986,178.926L148.986,178.926z"/>
</g>
<g>
	<path fill="#FFFFFF" d="M180.916,141.287v1.026l-2.979,1.105l2.979,1.107v1.002l-4.26-1.709v-0.821L180.916,141.287z"/>
	<path fill="#FFFFFF" d="M180.916,146.405v0.932h-4.229v-0.932H180.916z"/>
</g>
<g>
	<path fill="#FFFFFF" d="M172.988,125.798l-1.35,1.324h-5.674l-0.675-1.324H172.988z M164.643,125.798l-0.649,1.324h-5.999
		l-1.35-1.324H164.643z M165.643,127.448v5.998l-0.676,1.425l-0.65-1.425v-5.998l0.65-1.399L165.643,127.448z M173.314,134.796
		l-1.351-1.35v-6l1.351-1.323V134.796z M171.641,133.796l1.35,1.324h-7.698l0.674-1.324H171.641z M163.992,133.796l0.648,1.324
		h-7.998l1.351-1.324H163.992z"/>
	<path fill="#FFFFFF" d="M172.988,139.074l-1.35,1.323h-5.674l-0.675-1.323H172.988z M164.643,139.074l-0.649,1.323h-5.999
		l-1.35-1.323H164.643z M173.314,156.069l-1.351-1.375v-5.948l0.976-1.024l-0.976-1v-6.022l1.351-1.325V156.069z M171.74,147.071
		l0.648,0.65l-0.75,0.674h-6.072l-0.5-0.674l0.5-0.65H171.74z M164.143,147.071l0.5,0.65l-0.5,0.674h-6.824l-0.674-0.674l0.674-0.65
		H164.143z M171.641,155.069l1.35,1.324h-7.698l0.675-1.324H171.641z M163.992,155.069l0.648,1.324h-7.998l1.351-1.324H163.992z"/>
	<path fill="#FFFFFF" d="M172.988,160.349l-1.35,1.324h-5.674l-0.675-1.324H172.988z M164.643,160.349l-0.649,1.324h-5.675
		l-1.35-1.324H164.643z M165.643,161.998v5.999l-0.676,1.425l-0.65-1.425v-5.999l0.65-1.399L165.643,161.998z M173.314,169.347
		l-1.351-1.351v-5.999l1.351-1.324V169.347z M157.993,161.998v5.999l-1.351,1.35v-8.673L157.993,161.998z"/>
	<path fill="#FFFFFF" d="M173.314,171.849v1.248l-6.174,2.75h-1.949v-0.574l7.599-3.424H173.314z M157.293,171.849l7.475,3.473
		v0.525h-1.976l-6.147-2.725v-1.273H157.293z M167.141,176.296l6.174,2.725v1.25h-0.523l-7.6-3.35v-0.625H167.141z M164.768,176.296
		v0.602l-7.475,3.373h-0.648v-1.25l6.147-2.725H164.768L164.768,176.296z"/>
</g>
<path fill="#FFFFFF" d="M113.794,167.097c-7.285,0-13.19-5.906-13.19-13.191c0-7.286,5.905-13.191,13.19-13.191
	s13.19,5.905,13.19,13.191C126.984,161.19,121.079,167.097,113.794,167.097"/>
<path fill="#111111" d="M113.794,166.188c-6.784,0-12.284-5.5-12.284-12.283c0-6.784,5.5-12.284,12.284-12.284
	s12.284,5.5,12.284,12.284C126.078,160.688,120.578,166.188,113.794,166.188"/>
<path fill="#FFFFFF" d="M113.794,165.101c-6.183,0-11.194-5.013-11.194-11.195c0-6.184,5.012-11.195,11.194-11.195
	s11.194,5.014,11.194,11.195C124.988,160.088,119.977,165.101,113.794,165.101"/>
<path fill="#111111" d="M113.794,161.574c-4.235,0-7.669-3.435-7.669-7.669c0-4.235,3.434-7.668,7.669-7.668
	s7.669,3.433,7.669,7.668C121.463,158.14,118.029,161.574,113.794,161.574"/>
<path fill="#FFFFFF" d="M-30.282,118.654c0.138-0.09,0.255-0.215,0.351-0.376c0.095-0.161,0.142-0.345,0.142-0.551
	c0.006-0.217-0.028-0.411-0.103-0.582c-0.074-0.172-0.179-0.318-0.311-0.44c-0.132-0.121-0.289-0.214-0.471-0.277
	c-0.182-0.063-0.379-0.095-0.59-0.095s-0.408,0.032-0.59,0.095c-0.185,0.063-0.342,0.156-0.474,0.277
	c-0.132,0.122-0.233,0.268-0.309,0.44c-0.074,0.171-0.108,0.365-0.104,0.582c0,0.206,0.049,0.39,0.145,0.551
	c0.095,0.161,0.211,0.286,0.348,0.376l-0.324,0.428c-0.217-0.185-0.376-0.394-0.479-0.626c-0.104-0.233-0.158-0.475-0.163-0.729
	c-0.005-0.301,0.041-0.573,0.139-0.816c0.099-0.243,0.233-0.45,0.408-0.622c0.174-0.171,0.381-0.302,0.622-0.392
	c0.24-0.09,0.5-0.134,0.779-0.134c0.281,0,0.541,0.044,0.781,0.134c0.238,0.09,0.446,0.221,0.62,0.392
	c0.175,0.172,0.312,0.379,0.408,0.622c0.099,0.243,0.146,0.515,0.14,0.816c-0.007,0.254-0.061,0.496-0.162,0.729
	c-0.104,0.232-0.265,0.441-0.479,0.626L-30.282,118.654z"/>
<path fill="#FFFFFF" d="M-31.266,123.518c-0.278,0-0.537-0.048-0.774-0.146s-0.444-0.234-0.618-0.408
	c-0.174-0.174-0.31-0.382-0.408-0.622c-0.098-0.24-0.146-0.506-0.146-0.796c0-0.285,0.049-0.548,0.146-0.788
	c0.1-0.241,0.234-0.448,0.408-0.622c0.174-0.174,0.381-0.31,0.618-0.408s0.496-0.147,0.774-0.147c0.281,0,0.539,0.049,0.776,0.147
	c0.238,0.098,0.444,0.234,0.618,0.408c0.175,0.174,0.311,0.381,0.408,0.622c0.098,0.24,0.146,0.503,0.146,0.788
	c0,0.29-0.05,0.556-0.146,0.796c-0.098,0.24-0.233,0.448-0.408,0.622c-0.174,0.174-0.38,0.31-0.618,0.408
	C-30.727,123.47-30.984,123.518-31.266,123.518 M-31.266,122.948c0.207,0,0.399-0.033,0.578-0.099
	c0.182-0.066,0.336-0.16,0.47-0.281c0.132-0.122,0.235-0.268,0.312-0.44c0.076-0.171,0.115-0.366,0.115-0.582
	c0-0.217-0.039-0.411-0.115-0.582c-0.076-0.172-0.181-0.317-0.312-0.436c-0.134-0.119-0.288-0.211-0.47-0.277
	c-0.179-0.066-0.371-0.099-0.578-0.099c-0.205,0-0.397,0.033-0.576,0.099c-0.182,0.066-0.336,0.158-0.469,0.277
	c-0.133,0.119-0.235,0.264-0.312,0.436c-0.077,0.171-0.115,0.365-0.115,0.582c0,0.216,0.038,0.411,0.115,0.582
	c0.076,0.172,0.18,0.318,0.312,0.44c0.133,0.121,0.287,0.215,0.469,0.281C-31.663,122.915-31.471,122.948-31.266,122.948"/>
<path fill="#FFFFFF" d="M-27.984,125.229c-0.111,0-0.201-0.041-0.272-0.119c-0.071-0.08-0.106-0.166-0.106-0.262
	s0.035-0.184,0.106-0.262c0.071-0.079,0.161-0.118,0.272-0.118c0.11,0,0.202,0.039,0.272,0.118c0.071,0.078,0.106,0.166,0.106,0.262
	s-0.035,0.182-0.106,0.262C-27.782,125.188-27.874,125.229-27.984,125.229 M-33.117,125.11v-0.522h3.707v0.522H-33.117z"/>
<path fill="#FFFFFF" d="M-29.791,128.017v-0.231c0-0.386-0.109-0.649-0.328-0.793c-0.22-0.144-0.533-0.214-0.945-0.214h-2.053
	v-0.522h2.354c0.464,0,0.822,0.113,1.072,0.341c0.252,0.229,0.377,0.578,0.377,1.055v0.502c0,0.476-0.125,0.826-0.377,1.053
	c-0.25,0.229-0.608,0.342-1.072,0.342h-2.354v-0.523h2.053c0.412,0,0.727-0.069,0.945-0.213S-29.791,128.403-29.791,128.017"/>
</svg>
