<?xml version="1.0" encoding="utf-8"?>
<!-- Generator: Adobe Illustrator 15.1.0, SVG Export Plug-In . SVG Version: 6.00 Build 0)  -->
<!DOCTYPE svg PUBLIC "-//W3C//DTD SVG 1.1//EN" "http://www.w3.org/Graphics/SVG/1.1/DTD/svg11.dtd">
<svg version="1.1" id="Layer_1" xmlns="http://www.w3.org/2000/svg" xmlns:xlink="http://www.w3.org/1999/xlink" x="0px" y="0px"
	 width="242.646px" height="153.014px" viewBox="0 0 242.646 153.014" enable-background="new 0 0 242.646 153.014"
	 xml:space="preserve">
<pattern  x="-184.531" y="-319.565" width="34" height="29.251" patternUnits="userSpaceOnUse" id="Unnamed_Pattern_3" viewBox="7.018 -37.396 34 29.251" overflow="visible">
	<g>
		<polygon fill="none" points="7.018,-37.396 41.018,-37.396 41.018,-8.146 7.018,-8.146 		"/>
		<g>
			<defs>
				<rect id="SVGID_1_" x="7.018" y="-37.396" width="34" height="29.251"/>
			</defs>
			<clipPath id="SVGID_2_">
				<use xlink:href="#SVGID_1_"  overflow="visible"/>
			</clipPath>
			<polygon clip-path="url(#SVGID_2_)" fill="#DE278B" points="0,-4.053 7.018,0 14.037,-4.053 14.037,-12.157 7.018,-16.209 
				0,-12.157 			"/>
			<polygon clip-path="url(#SVGID_2_)" fill="#DE278B" points="8.748,-18.521 15.768,-14.47 22.785,-18.521 22.785,-26.625 
				15.768,-30.679 8.748,-26.625 			"/>
			<polygon clip-path="url(#SVGID_2_)" fill="#DE278B" points="17,-4.053 24.018,0 31.037,-4.053 31.037,-12.157 24.018,-16.209 
				17,-12.157 			"/>
			<polygon clip-path="url(#SVGID_2_)" fill="#DE278B" points="25.748,-18.521 32.768,-14.47 39.785,-18.521 39.785,-26.625 
				32.768,-30.679 25.748,-26.625 			"/>
			<polygon clip-path="url(#SVGID_2_)" fill="#DE278B" points="34,-4.053 41.018,0 48.037,-4.053 48.037,-12.157 41.018,-16.209 
				34,-12.157 			"/>
			<polygon clip-path="url(#SVGID_2_)" fill="#DE278B" points="0,-33.386 7.018,-29.334 14.037,-33.386 14.037,-41.49 
				7.018,-45.543 0,-41.49 			"/>
			<polygon clip-path="url(#SVGID_2_)" fill="#DE278B" points="17,-33.386 24.018,-29.334 31.037,-33.386 31.037,-41.49 
				24.018,-45.543 17,-41.49 			"/>
			<polygon clip-path="url(#SVGID_2_)" fill="#DE278B" points="34,-33.386 41.018,-29.334 48.037,-33.386 48.037,-41.49 
				41.018,-45.543 34,-41.49 			"/>
		</g>
	</g>
</pattern>
<path fill="#EB2E92" d="M242.646,144.51c0,4.677-3.827,8.504-8.504,8.504H8.504c-4.677,0-8.504-3.827-8.504-8.504V8.504
	C0,3.827,3.827,0,8.504,0h225.638c4.677,0,8.504,3.827,8.504,8.504V144.51z"/>
<g opacity="0.6">
	<g>
		<defs>
			<rect id="SVGID_3_" x="16.771" y="29.886" width="73.277" height="102.826"/>
		</defs>
		<clipPath id="SVGID_4_">
			<use xlink:href="#SVGID_3_"  overflow="visible"/>
		</clipPath>
		<pattern  id="SVGID_5_" xlink:href="#Unnamed_Pattern_3" patternTransform="matrix(0.5954 0 0 -0.5954 -3806.6782 -1983.3418)">
		</pattern>
		<path clip-path="url(#SVGID_4_)" fill="url(#SVGID_5_)" d="M49.205,120.7c-11.771-1.202-23.424-5.405-32.434-11.893l10.811-15.976
			c7.688,5.405,14.896,8.648,22.345,9.85V88.266C30.585,83.822,20.735,77.214,20.735,62.32v-0.241
			c0-14.175,10.331-24.025,28.71-25.346v-6.847h12.493v7.206c9.85,1.082,18.139,4.446,25.347,9.37l-9.851,16.097
			c-4.925-3.483-10.691-5.886-16.098-7.208v13.936c19.101,4.444,28.71,11.291,28.71,26.187v0.241
			c0,14.654-11.291,23.664-28.349,25.227v11.771H49.205V120.7z M50.046,54.271c-5.886,0.481-8.169,2.882-8.169,6.006v0.24
			c0,3.124,1.683,4.926,8.169,6.727V54.271z M69.267,97.275v-0.239c0-3.243-1.802-5.046-8.049-6.847v13.214
			C66.743,102.8,69.267,100.759,69.267,97.275"/>
	</g>
</g>
<g opacity="0.6">
	<g>
		<defs>
			<rect id="SVGID_6_" x="188.341" width="54.305" height="153.014"/>
		</defs>
		<clipPath id="SVGID_7_">
			<use xlink:href="#SVGID_6_"  overflow="visible"/>
		</clipPath>
		<pattern  id="SVGID_8_" xlink:href="#Unnamed_Pattern_3" patternTransform="matrix(0.5954 0 0 -0.5954 -3806.6782 -1983.3418)">
		</pattern>
		<path clip-path="url(#SVGID_7_)" fill="url(#SVGID_8_)" d="M234.142,0h-45.801v153.014h45.801c4.678,0,8.504-3.827,8.504-8.505
			V8.504C242.646,3.827,238.819,0,234.142,0"/>
	</g>
</g>
<g>
	<path fill="#FFFFFF" d="M19.176,88.904h2.268v-8.71h-2.232c-0.205,0-0.38-0.071-0.522-0.216c-0.145-0.143-0.216-0.317-0.216-0.522
		s0.071-0.38,0.216-0.522c0.143-0.145,0.317-0.216,0.522-0.216h3.709v10.187h1.477v-3.076c0-0.199,0.071-0.372,0.216-0.519
		c0.143-0.146,0.317-0.22,0.522-0.22s0.379,0.072,0.522,0.215c0.144,0.145,0.216,0.318,0.216,0.523v3.814
		c0,0.205-0.072,0.379-0.216,0.523c-0.144,0.143-0.317,0.215-0.522,0.215h-5.959c-0.205,0-0.38-0.074-0.522-0.225
		c-0.145-0.148-0.216-0.326-0.216-0.531c0-0.199,0.071-0.369,0.216-0.51C18.796,88.974,18.971,88.904,19.176,88.904z"/>
	<path fill="#FFFFFF" d="M36.203,90.38h-6.715v-5.098c0-0.41,0.146-0.762,0.435-1.055c0.291-0.293,0.638-0.439,1.042-0.439h4.482
		v-3.595h-5.273c-0.211,0-0.387-0.071-0.527-0.216c-0.141-0.143-0.211-0.317-0.211-0.522s0.07-0.38,0.211-0.522
		c0.141-0.145,0.316-0.216,0.527-0.216h5.273c0.41,0,0.762,0.146,1.055,0.435c0.293,0.291,0.439,0.638,0.439,1.042v3.595
		c0,0.416-0.146,0.77-0.439,1.059c-0.293,0.291-0.645,0.436-1.055,0.436h-4.482v3.621h5.238c0.199,0,0.372,0.072,0.519,0.215
		c0.146,0.145,0.22,0.318,0.22,0.523s-0.073,0.379-0.22,0.523C36.575,90.308,36.402,90.38,36.203,90.38z"/>
	<path fill="#FFFFFF" d="M47.939,80.194v2.769c0,0.645-0.199,1.166-0.598,1.564c0.41,0.457,0.615,0.955,0.615,1.494v2.883
		c0,0.404-0.146,0.752-0.439,1.041c-0.293,0.291-0.645,0.436-1.055,0.436h-5.221c-0.205,0-0.38-0.072-0.522-0.215
		c-0.145-0.145-0.216-0.318-0.216-0.523s0.071-0.379,0.216-0.523c0.143-0.143,0.317-0.215,0.522-0.215h5.203v-2.883
		c0-0.205-0.072-0.383-0.216-0.531c-0.144-0.15-0.317-0.225-0.522-0.225h-2.971c-0.205,0-0.38-0.07-0.522-0.211
		c-0.145-0.141-0.216-0.316-0.216-0.527c0-0.205,0.071-0.379,0.216-0.523c0.143-0.143,0.317-0.215,0.522-0.215h2.988
		c0.199,0,0.372-0.072,0.519-0.215c0.146-0.145,0.22-0.318,0.22-0.523v-2.856h-5.273c-0.205,0-0.38-0.071-0.522-0.216
		c-0.145-0.143-0.216-0.317-0.216-0.522s0.071-0.38,0.216-0.522c0.143-0.145,0.317-0.216,0.522-0.216h5.273
		c0.41,0,0.759,0.146,1.046,0.435C47.796,79.443,47.939,79.79,47.939,80.194z"/>
	<path fill="#FFFFFF" d="M56.346,89.642v-3.076h-4.447v-7.11c0-0.205,0.074-0.382,0.225-0.532c0.148-0.148,0.326-0.224,0.531-0.224
		c0.199,0,0.372,0.075,0.519,0.224c0.146,0.15,0.22,0.327,0.22,0.532v5.616h2.953v-4.324c0-0.205,0.071-0.383,0.215-0.531
		c0.144-0.15,0.318-0.225,0.523-0.225s0.379,0.074,0.523,0.225c0.143,0.148,0.215,0.326,0.215,0.531v4.324
		c0.205,0,0.379,0.072,0.523,0.215c0.143,0.145,0.215,0.318,0.215,0.523s-0.072,0.379-0.215,0.523
		c-0.145,0.143-0.318,0.215-0.523,0.215v3.094c0,0.205-0.073,0.379-0.22,0.523c-0.146,0.143-0.319,0.215-0.519,0.215
		c-0.205,0-0.38-0.072-0.523-0.215C56.417,90.021,56.346,89.847,56.346,89.642z"/>
	<path fill="#FFFFFF" d="M80.231,90.38h-6.715v-5.098c0-0.41,0.146-0.762,0.435-1.055c0.291-0.293,0.638-0.439,1.042-0.439h4.482
		v-3.595h-5.273c-0.211,0-0.387-0.071-0.527-0.216c-0.141-0.143-0.211-0.317-0.211-0.522s0.07-0.38,0.211-0.522
		c0.141-0.145,0.316-0.216,0.527-0.216h5.273c0.41,0,0.762,0.146,1.055,0.435c0.293,0.291,0.439,0.638,0.439,1.042v3.595
		c0,0.416-0.146,0.77-0.439,1.059c-0.293,0.291-0.645,0.436-1.055,0.436h-4.482v3.621h5.238c0.199,0,0.372,0.072,0.519,0.215
		c0.146,0.145,0.22,0.318,0.22,0.523s-0.073,0.379-0.22,0.523C80.604,90.308,80.431,90.38,80.231,90.38z"/>
	<path fill="#FFFFFF" d="M84.497,88.957v-8.833c0-0.387,0.141-0.721,0.422-1.002s0.615-0.422,1.002-0.422h4.605
		c0.381,0,0.71,0.141,0.989,0.422c0.277,0.281,0.417,0.615,0.417,1.002v8.833c0,0.393-0.14,0.729-0.417,1.006
		c-0.279,0.279-0.614,0.418-1.007,0.418h-4.588c-0.398,0-0.735-0.139-1.011-0.418C84.635,89.685,84.497,89.349,84.497,88.957z
		 M90.474,88.904v-8.71h-4.5v8.71H90.474z"/>
	<path fill="#FFFFFF" d="M95.514,80.106v-0.633c0-0.205,0.071-0.38,0.216-0.522c0.143-0.145,0.317-0.216,0.522-0.216h6.697v4.535
		c0,0.24-0.091,0.439-0.272,0.598l-2.716,2.32v3.437c0,0.205-0.072,0.383-0.216,0.531c-0.144,0.15-0.317,0.225-0.522,0.225
		s-0.382-0.073-0.532-0.22c-0.148-0.146-0.224-0.319-0.224-0.519v-3.729c0-0.281,0.087-0.498,0.263-0.65l2.726-2.306v-2.746H96.99
		c-0.105,0.422-0.352,0.633-0.738,0.633c-0.205,0-0.38-0.071-0.522-0.216C95.585,80.486,95.514,80.311,95.514,80.106z"/>
	<path fill="#FFFFFF" d="M109.263,88.904h3.419v-3.621h-4.465v-6.565h5.203c0.199,0,0.372,0.073,0.519,0.22s0.22,0.319,0.22,0.519
		c0,0.205-0.072,0.38-0.216,0.522c-0.144,0.145-0.317,0.216-0.522,0.216h-3.709v3.612h2.971c0.398,0,0.744,0.146,1.037,0.439
		s0.439,0.639,0.439,1.037v3.621c0,0.404-0.146,0.752-0.435,1.041c-0.291,0.291-0.638,0.436-1.042,0.436h-3.419
		c-0.305,0-0.63-0.073-0.976-0.22l-1.116-0.466c-0.299-0.123-0.448-0.357-0.448-0.703c0-0.205,0.067-0.379,0.202-0.523
		c0.135-0.143,0.299-0.215,0.492-0.215c0.146,0,0.316,0.044,0.51,0.132l0.976,0.413C109.02,88.869,109.14,88.904,109.263,88.904z"/>
	<path fill="#FFFFFF" d="M131.259,88.904h3.419v-3.621h-4.465v-6.565h5.203c0.199,0,0.372,0.073,0.519,0.22s0.22,0.319,0.22,0.519
		c0,0.205-0.072,0.38-0.216,0.522c-0.144,0.145-0.317,0.216-0.522,0.216h-3.709v3.612h2.971c0.398,0,0.744,0.146,1.037,0.439
		s0.439,0.639,0.439,1.037v3.621c0,0.404-0.146,0.752-0.435,1.041c-0.291,0.291-0.638,0.436-1.042,0.436h-3.419
		c-0.305,0-0.63-0.073-0.976-0.22l-1.116-0.466c-0.299-0.123-0.448-0.357-0.448-0.703c0-0.205,0.067-0.379,0.202-0.523
		c0.135-0.143,0.299-0.215,0.492-0.215c0.146,0,0.316,0.044,0.51,0.132l0.976,0.413C131.016,88.869,131.136,88.904,131.259,88.904z"
		/>
	<path fill="#FFFFFF" d="M139.542,80.106v-0.633c0-0.205,0.071-0.38,0.216-0.522c0.143-0.145,0.317-0.216,0.522-0.216h6.697v4.535
		c0,0.24-0.091,0.439-0.272,0.598l-2.716,2.32v3.437c0,0.205-0.072,0.383-0.216,0.531c-0.144,0.15-0.317,0.225-0.522,0.225
		s-0.382-0.073-0.532-0.22c-0.148-0.146-0.224-0.319-0.224-0.519v-3.729c0-0.281,0.087-0.498,0.263-0.65l2.726-2.306v-2.746h-4.465
		c-0.105,0.422-0.352,0.633-0.738,0.633c-0.205,0-0.38-0.071-0.522-0.216C139.613,80.486,139.542,80.311,139.542,80.106z"/>
	<path fill="#FFFFFF" d="M150.558,88.957v-8.833c0-0.387,0.141-0.721,0.422-1.002s0.615-0.422,1.002-0.422h4.605
		c0.381,0,0.71,0.141,0.989,0.422c0.277,0.281,0.417,0.615,0.417,1.002v8.833c0,0.393-0.14,0.729-0.417,1.006
		c-0.279,0.279-0.614,0.418-1.007,0.418h-4.588c-0.398,0-0.735-0.139-1.011-0.418C150.695,89.685,150.558,89.349,150.558,88.957z
		 M156.534,88.904v-8.71h-4.5v8.71H156.534z"/>
	<path fill="#FFFFFF" d="M168.288,90.38h-6.715v-5.098c0-0.41,0.146-0.762,0.435-1.055c0.291-0.293,0.638-0.439,1.042-0.439h4.482
		v-3.595h-5.273c-0.211,0-0.387-0.071-0.527-0.216c-0.141-0.143-0.211-0.317-0.211-0.522s0.07-0.38,0.211-0.522
		c0.141-0.145,0.316-0.216,0.527-0.216h5.273c0.41,0,0.762,0.146,1.055,0.435c0.293,0.291,0.439,0.638,0.439,1.042v3.595
		c0,0.416-0.146,0.77-0.439,1.059c-0.293,0.291-0.645,0.436-1.055,0.436h-4.482v3.621h5.238c0.199,0,0.372,0.072,0.519,0.215
		c0.146,0.145,0.22,0.318,0.22,0.523s-0.073,0.379-0.22,0.523C168.66,90.308,168.487,90.38,168.288,90.38z"/>
	<path fill="#FFFFFF" d="M188.448,89.642v-3.076h-4.447v-7.11c0-0.205,0.074-0.382,0.225-0.532c0.148-0.148,0.326-0.224,0.531-0.224
		c0.199,0,0.372,0.075,0.519,0.224c0.146,0.15,0.22,0.327,0.22,0.532v5.616h2.953v-4.324c0-0.205,0.071-0.383,0.215-0.531
		c0.144-0.15,0.318-0.225,0.523-0.225s0.379,0.074,0.523,0.225c0.143,0.148,0.215,0.326,0.215,0.531v4.324
		c0.205,0,0.379,0.072,0.523,0.215c0.143,0.145,0.215,0.318,0.215,0.523s-0.072,0.379-0.215,0.523
		c-0.145,0.143-0.318,0.215-0.523,0.215v3.094c0,0.205-0.073,0.379-0.22,0.523c-0.146,0.143-0.319,0.215-0.519,0.215
		c-0.205,0-0.38-0.072-0.523-0.215C188.52,90.021,188.448,89.847,188.448,89.642z"/>
	<path fill="#FFFFFF" d="M202.057,80.194v2.769c0,0.645-0.199,1.166-0.598,1.564c0.41,0.457,0.615,0.955,0.615,1.494v2.883
		c0,0.404-0.146,0.752-0.439,1.041c-0.293,0.291-0.645,0.436-1.055,0.436h-5.221c-0.205,0-0.38-0.072-0.522-0.215
		c-0.145-0.145-0.216-0.318-0.216-0.523s0.071-0.379,0.216-0.523c0.143-0.143,0.317-0.215,0.522-0.215h5.203v-2.883
		c0-0.205-0.072-0.383-0.216-0.531c-0.144-0.15-0.317-0.225-0.522-0.225h-2.971c-0.205,0-0.38-0.07-0.522-0.211
		c-0.145-0.141-0.216-0.316-0.216-0.527c0-0.205,0.071-0.379,0.216-0.523c0.143-0.143,0.317-0.215,0.522-0.215h2.988
		c0.199,0,0.372-0.072,0.519-0.215c0.146-0.145,0.22-0.318,0.22-0.523v-2.856h-5.273c-0.205,0-0.38-0.071-0.522-0.216
		c-0.145-0.143-0.216-0.317-0.216-0.522s0.071-0.38,0.216-0.522c0.143-0.145,0.317-0.216,0.522-0.216h5.273
		c0.41,0,0.759,0.146,1.046,0.435C201.913,79.443,202.057,79.79,202.057,80.194z"/>
	<path fill="#FFFFFF" d="M212.335,90.38h-6.715v-5.098c0-0.41,0.146-0.762,0.435-1.055c0.291-0.293,0.638-0.439,1.042-0.439h4.482
		v-3.595h-5.273c-0.211,0-0.387-0.071-0.527-0.216c-0.141-0.143-0.211-0.317-0.211-0.522s0.07-0.38,0.211-0.522
		c0.141-0.145,0.316-0.216,0.527-0.216h5.273c0.41,0,0.762,0.146,1.055,0.435c0.293,0.291,0.439,0.638,0.439,1.042v3.595
		c0,0.416-0.146,0.77-0.439,1.059c-0.293,0.291-0.645,0.436-1.055,0.436h-4.482v3.621h5.238c0.199,0,0.372,0.072,0.519,0.215
		c0.146,0.145,0.22,0.318,0.22,0.523s-0.073,0.379-0.22,0.523C212.707,90.308,212.534,90.38,212.335,90.38z"/>
	<path fill="#FFFFFF" d="M217.321,88.904h2.268v-8.71h-2.232c-0.205,0-0.38-0.071-0.522-0.216c-0.145-0.143-0.216-0.317-0.216-0.522
		s0.071-0.38,0.216-0.522c0.143-0.145,0.317-0.216,0.522-0.216h3.709v10.187h1.477v-3.076c0-0.199,0.071-0.372,0.216-0.519
		c0.143-0.146,0.317-0.22,0.522-0.22s0.379,0.072,0.522,0.215c0.144,0.145,0.216,0.318,0.216,0.523v3.814
		c0,0.205-0.072,0.379-0.216,0.523c-0.144,0.143-0.317,0.215-0.522,0.215h-5.959c-0.205,0-0.38-0.074-0.522-0.225
		c-0.145-0.148-0.216-0.326-0.216-0.531c0-0.199,0.071-0.369,0.216-0.51C216.941,88.974,217.116,88.904,217.321,88.904z"/>
</g>
<g>
	<path fill="#FFFFFF" d="M74.559,17.92V17.9c0-1.989,1.489-3.618,3.607-3.618c1.29,0,2.069,0.45,2.739,1.089l-0.79,0.91
		c-0.56-0.52-1.159-0.87-1.959-0.87c-1.339,0-2.309,1.1-2.309,2.469v0.02c0,1.369,0.97,2.489,2.309,2.489
		c0.859,0,1.409-0.35,2.009-0.91l0.79,0.8c-0.729,0.759-1.529,1.239-2.839,1.239C76.077,21.518,74.559,19.929,74.559,17.92z"/>
	<path fill="#FFFFFF" d="M84.248,14.402h3.118c0.88,0,1.569,0.26,2.02,0.7c0.369,0.379,0.579,0.899,0.579,1.509v0.02
		c0,1.149-0.689,1.839-1.669,2.119l1.889,2.648h-1.449l-1.719-2.438h-1.539v2.438h-1.229V14.402z M87.276,17.87
		c0.88,0,1.439-0.46,1.439-1.169v-0.02c0-0.75-0.54-1.16-1.449-1.16h-1.789v2.349H87.276z"/>
	<path fill="#FFFFFF" d="M93.478,14.402h5.188v1.099h-3.958v1.819h3.508v1.099h-3.508v1.879h4.008v1.1h-5.237V14.402z"/>
	<path fill="#FFFFFF" d="M102.178,14.402h2.608c2.199,0,3.718,1.509,3.718,3.478v0.02c0,1.969-1.519,3.498-3.718,3.498h-2.608
		V14.402z M104.786,20.279c1.47,0,2.429-0.99,2.429-2.359V17.9c0-1.369-0.959-2.379-2.429-2.379h-1.379v4.758H104.786z"/>
	<path fill="#FFFFFF" d="M112.068,14.402h1.229v6.996h-1.229V14.402z"/>
	<path fill="#FFFFFF" d="M118.887,15.541h-2.219v-1.139h5.678v1.139h-2.22v5.857h-1.239V15.541z"/>
	<path fill="#FFFFFF" d="M130.338,17.92V17.9c0-1.989,1.489-3.618,3.607-3.618c1.29,0,2.069,0.45,2.739,1.089l-0.79,0.91
		c-0.56-0.52-1.159-0.87-1.959-0.87c-1.339,0-2.309,1.1-2.309,2.469v0.02c0,1.369,0.97,2.489,2.309,2.489
		c0.859,0,1.409-0.35,2.009-0.91l0.79,0.8c-0.729,0.759-1.529,1.239-2.839,1.239C131.856,21.518,130.338,19.929,130.338,17.92z"/>
	<path fill="#FFFFFF" d="M142.506,14.352h1.14l3.078,7.046h-1.299l-0.71-1.689h-3.309l-0.719,1.689h-1.26L142.506,14.352z
		 M144.265,18.62l-1.209-2.799l-1.199,2.799H144.265z"/>
	<path fill="#FFFFFF" d="M149.928,14.402h3.118c0.88,0,1.569,0.26,2.02,0.7c0.369,0.379,0.579,0.899,0.579,1.509v0.02
		c0,1.149-0.689,1.839-1.669,2.119l1.889,2.648h-1.449l-1.719-2.438h-1.539v2.438h-1.229V14.402z M152.956,17.87
		c0.88,0,1.439-0.46,1.439-1.169v-0.02c0-0.75-0.54-1.16-1.449-1.16h-1.789v2.349H152.956z"/>
	<path fill="#FFFFFF" d="M159.157,14.402h2.608c2.199,0,3.718,1.509,3.718,3.478v0.02c0,1.969-1.519,3.498-3.718,3.498h-2.608
		V14.402z M161.766,20.279c1.47,0,2.429-0.99,2.429-2.359V17.9c0-1.369-0.959-2.379-2.429-2.379h-1.379v4.758H161.766z"/>
</g>
</svg>
