<?xml version="1.0" encoding="utf-8"?>
<!-- Generator: Adobe Illustrator 15.1.0, SVG Export Plug-In . SVG Version: 6.00 Build 0)  -->
<!DOCTYPE svg PUBLIC "-//W3C//DTD SVG 1.1//EN" "http://www.w3.org/Graphics/SVG/1.1/DTD/svg11.dtd">
<svg version="1.1" id="Layer_1" xmlns="http://www.w3.org/2000/svg" xmlns:xlink="http://www.w3.org/1999/xlink" x="0px" y="0px"
	 width="242.646px" height="153.014px" viewBox="0 0 242.646 153.014" enable-background="new 0 0 242.646 153.014"
	 xml:space="preserve">
<pattern  x="-338.531" y="-310.86" width="34" height="29.251" patternUnits="userSpaceOnUse" id="Unnamed_Pattern_15" viewBox="7.018 -37.396 34 29.251" overflow="visible">
	<g>
		<polygon fill="none" points="7.018,-37.396 41.018,-37.396 41.018,-8.146 7.018,-8.146 		"/>
		<g>
			<defs>
				<rect id="SVGID_1_" x="7.018" y="-37.396" width="34" height="29.251"/>
			</defs>
			<clipPath id="SVGID_2_">
				<use xlink:href="#SVGID_1_"  overflow="visible"/>
			</clipPath>
			<polygon clip-path="url(#SVGID_2_)" fill="#7A358B" points="0,-4.053 7.018,0 14.037,-4.053 14.037,-12.157 7.018,-16.209 
				0,-12.157 			"/>
			<polygon clip-path="url(#SVGID_2_)" fill="#7A358B" points="8.748,-18.521 15.768,-14.47 22.785,-18.521 22.785,-26.625 
				15.768,-30.679 8.748,-26.625 			"/>
			<polygon clip-path="url(#SVGID_2_)" fill="#7A358B" points="17,-4.053 24.018,0 31.037,-4.053 31.037,-12.157 24.018,-16.209 
				17,-12.157 			"/>
			<polygon clip-path="url(#SVGID_2_)" fill="#7A358B" points="25.748,-18.521 32.768,-14.47 39.785,-18.521 39.785,-26.625 
				32.768,-30.679 25.748,-26.625 			"/>
			<polygon clip-path="url(#SVGID_2_)" fill="#7A358B" points="34,-4.053 41.018,0 48.037,-4.053 48.037,-12.157 41.018,-16.209 
				34,-12.157 			"/>
			<polygon clip-path="url(#SVGID_2_)" fill="#7A358B" points="0,-33.386 7.018,-29.334 14.037,-33.386 14.037,-41.49 
				7.018,-45.543 0,-41.49 			"/>
			<polygon clip-path="url(#SVGID_2_)" fill="#7A358B" points="17,-33.386 24.018,-29.334 31.037,-33.386 31.037,-41.49 
				24.018,-45.543 17,-41.49 			"/>
			<polygon clip-path="url(#SVGID_2_)" fill="#7A358B" points="34,-33.386 41.018,-29.334 48.037,-33.386 48.037,-41.49 
				41.018,-45.543 34,-41.49 			"/>
		</g>
	</g>
</pattern>
<path fill="#823A94" d="M242.646,144.51c0,4.677-3.827,8.504-8.504,8.504H8.504c-4.677,0-8.504-3.827-8.504-8.504V8.504
	C0,3.827,3.827,0,8.504,0h225.638c4.677,0,8.504,3.827,8.504,8.504V144.51z"/>
<g opacity="0.5">
	<g>
		<defs>
			<rect id="SVGID_3_" x="188.341" width="54.305" height="153.014"/>
		</defs>
		<clipPath id="SVGID_4_">
			<use xlink:href="#SVGID_3_"  overflow="visible"/>
		</clipPath>
		<pattern  id="SVGID_5_" xlink:href="#Unnamed_Pattern_15" patternTransform="matrix(0.5954 0 0 -0.5954 -3732.0894 -2015.1284)">
		</pattern>
		<path clip-path="url(#SVGID_4_)" fill="url(#SVGID_5_)" d="M234.142,0h-45.801v153.014h45.801c4.677,0,8.504-3.827,8.504-8.504
			V8.504C242.646,3.827,238.818,0,234.142,0"/>
	</g>
</g>
<line fill="none" x1="273.469" y1="171.14" x2="-338.531" y2="171.14"/>
<g>
	<path fill="#FFFFFF" d="M60.528,14.396h2.429c2.199,0,3.718,1.509,3.718,3.478v0.021c0,1.969-1.519,3.498-3.718,3.498h-2.429
		V14.396z M62.957,20.663c1.77,0,2.898-1.199,2.898-2.749v-0.02c0-1.549-1.129-2.769-2.898-2.769h-1.639v5.537H62.957z"/>
	<path fill="#FFFFFF" d="M70.349,14.396h3.009c0.859,0,1.549,0.26,1.988,0.699c0.34,0.34,0.54,0.83,0.54,1.38v0.02
		c0,1.159-0.8,1.839-1.898,2.039l2.148,2.858h-0.97l-2.028-2.719h-1.999v2.719h-0.79V14.396z M73.287,17.965
		c1.05,0,1.799-0.54,1.799-1.439v-0.021c0-0.859-0.659-1.379-1.789-1.379h-2.158v2.839H73.287z"/>
	<path fill="#FFFFFF" d="M79.648,14.396h0.789v6.996h-0.789V14.396z"/>
	<path fill="#FFFFFF" d="M83.889,14.396h0.88l2.488,6.026l2.499-6.026h0.85l-3.009,7.046h-0.699L83.889,14.396z"/>
	<path fill="#FFFFFF" d="M93.988,14.396h5.058v0.72h-4.268v2.389h3.817v0.72h-3.817v2.448h4.317v0.72h-5.107V14.396z"/>
	<path fill="#FFFFFF" d="M102.688,14.396h3.009c0.859,0,1.549,0.26,1.988,0.699c0.34,0.34,0.54,0.83,0.54,1.38v0.02
		c0,1.159-0.8,1.839-1.898,2.039l2.148,2.858h-0.97l-2.028-2.719h-1.999v2.719h-0.79V14.396z M105.627,17.965
		c1.05,0,1.799-0.54,1.799-1.439v-0.021c0-0.859-0.659-1.379-1.789-1.379h-2.158v2.839H105.627z"/>
	<path fill="#FFFFFF" d="M111.458,20.373l0.49-0.579c0.729,0.659,1.429,0.989,2.398,0.989c0.939,0,1.56-0.5,1.56-1.189v-0.021
		c0-0.649-0.35-1.02-1.819-1.329c-1.609-0.35-2.349-0.869-2.349-2.019v-0.021c0-1.099,0.97-1.908,2.299-1.908
		c1.02,0,1.749,0.289,2.459,0.859l-0.46,0.609c-0.649-0.529-1.3-0.76-2.02-0.76c-0.909,0-1.489,0.5-1.489,1.13v0.02
		c0,0.66,0.36,1.029,1.899,1.359c1.56,0.34,2.278,0.909,2.278,1.979v0.021c0,1.199-0.999,1.979-2.389,1.979
		C113.207,21.492,112.298,21.123,111.458,20.373z"/>
	<path fill="#FFFFFF" d="M125.317,14.396h0.79v6.267h3.938v0.729h-4.728V14.396z"/>
	<path fill="#FFFFFF" d="M133.578,14.396h0.789v6.996h-0.789V14.396z"/>
	<path fill="#FFFFFF" d="M138.108,17.914v-0.02c0-1.979,1.479-3.618,3.538-3.618c1.27,0,2.028,0.45,2.729,1.109l-0.54,0.58
		c-0.59-0.56-1.249-0.96-2.198-0.96c-1.55,0-2.709,1.26-2.709,2.868v0.021c0,1.619,1.17,2.889,2.709,2.889
		c0.959,0,1.589-0.37,2.259-1.01l0.52,0.51c-0.729,0.739-1.529,1.229-2.799,1.229C139.598,21.513,138.108,19.924,138.108,17.914z"/>
	<path fill="#FFFFFF" d="M147.798,14.396h5.058v0.72h-4.268v2.389h3.817v0.72h-3.817v2.448h4.317v0.72h-5.107V14.396z"/>
	<path fill="#FFFFFF" d="M156.497,14.396h0.74l4.407,5.606v-5.606h0.77v6.996h-0.63l-4.518-5.737v5.737h-0.77V14.396z"/>
	<path fill="#FFFFFF" d="M165.928,20.373l0.49-0.579c0.729,0.659,1.429,0.989,2.398,0.989c0.939,0,1.56-0.5,1.56-1.189v-0.021
		c0-0.649-0.35-1.02-1.819-1.329c-1.609-0.35-2.349-0.869-2.349-2.019v-0.021c0-1.099,0.97-1.908,2.299-1.908
		c1.02,0,1.749,0.289,2.459,0.859l-0.46,0.609c-0.649-0.529-1.3-0.76-2.02-0.76c-0.909,0-1.488,0.5-1.488,1.13v0.02
		c0,0.66,0.359,1.029,1.898,1.359c1.56,0.34,2.278,0.909,2.278,1.979v0.021c0,1.199-0.999,1.979-2.389,1.979
		C167.677,21.492,166.768,21.123,165.928,20.373z"/>
	<path fill="#FFFFFF" d="M174.787,14.396h5.058v0.72h-4.268v2.389h3.817v0.72h-3.817v2.448h4.317v0.72h-5.107V14.396z"/>
</g>
<g opacity="0.5">
	<g>
		<defs>
			<rect id="SVGID_6_" x="27.163" y="44.121" width="86.273" height="85.489"/>
		</defs>
		<clipPath id="SVGID_7_">
			<use xlink:href="#SVGID_6_"  overflow="visible"/>
		</clipPath>
		<pattern  id="SVGID_8_" xlink:href="#Unnamed_Pattern_15" patternTransform="matrix(0.5954 0 0 -0.5954 -3745.0894 -2015.1284)">
		</pattern>
		<path clip-path="url(#SVGID_7_)" fill="url(#SVGID_8_)" d="M27.163,129.61c0.203-2.255,0.293-4.451,0.616-6.61
			c1.12-7.45,3.883-14.249,8.336-20.341c3.767-5.149,8.433-9.282,13.998-12.409c0.55-0.31,0.884-0.224,1.327,0.153
			c4.569,3.893,9.859,6.196,15.812,6.799c8.245,0.835,15.587-1.484,21.976-6.762c0.527-0.435,0.88-0.478,1.465-0.139
			c10.478,6.051,17.342,14.945,20.863,26.469c1.173,3.84,1.741,7.787,1.875,11.798c0.011,0.33,0.001,0.661,0.001,1.042H27.163z"/>
		<pattern  id="SVGID_9_" xlink:href="#Unnamed_Pattern_15" patternTransform="matrix(0.5954 0 0 -0.5954 -3745.0894 -2015.1284)">
		</pattern>
		<path clip-path="url(#SVGID_7_)" fill="url(#SVGID_9_)" d="M70.377,91.853c-12.779,0.081-23.258-10.025-23.859-22.629
			C45.859,55.462,56.519,44.6,69.447,44.137c13.48-0.483,24.683,10.082,24.777,23.684C94.319,81.512,83.279,91.912,70.377,91.853"/>
	</g>
</g>
<line fill="none" x1="273.469" y1="171.14" x2="-338.531" y2="171.14"/>
<line fill="none" x1="273.469" y1="171.14" x2="-338.531" y2="171.14"/>
<line fill="none" x1="273.469" y1="171.14" x2="-338.531" y2="171.14"/>
<line fill="none" x1="273.469" y1="171.14" x2="-338.531" y2="171.14"/>
<line fill="none" x1="273.469" y1="171.14" x2="-338.531" y2="171.14"/>
<line fill="none" x1="-338.531" y1="171.14" x2="273.469" y2="171.14"/>
</svg>
