<?xml version="1.0" encoding="utf-8"?>
<!-- Generator: Adobe Illustrator 15.1.0, SVG Export Plug-In . SVG Version: 6.00 Build 0)  -->
<!DOCTYPE svg PUBLIC "-//W3C//DTD SVG 1.1//EN" "http://www.w3.org/Graphics/SVG/1.1/DTD/svg11.dtd">
<svg version="1.1" id="Layer_1" xmlns="http://www.w3.org/2000/svg" xmlns:xlink="http://www.w3.org/1999/xlink" x="0px" y="0px"
	 width="72px" height="72px" viewBox="0 0 72 72" enable-background="new 0 0 72 72" xml:space="preserve">
<path fill="#3E739D" d="M53.109,20.283v4.425c0,0.709-0.575,1.284-1.285,1.284h-4.328c-0.71,0-1.285-0.575-1.285-1.284v-4.425
	c0-0.709,0.575-1.284,1.285-1.284h4.328C52.534,18.999,53.109,19.574,53.109,20.283 M36.525,42.083c3.258,0,5.898-2.641,5.898-5.899
	c0-3.256-2.641-5.897-5.898-5.897s-5.899,2.641-5.899,5.897C30.626,39.442,33.267,42.083,36.525,42.083 M72,36
	c0,19.883-16.116,36-36,36C16.119,72,0,55.883,0,36S16.119,0,36,0C55.883,0,72,16.117,72,36 M56.769,30.185H44.942
	c1.205,1.694,1.917,3.763,1.917,5.999c0,5.722-4.639,10.361-10.361,10.361c-5.72,0-10.359-4.639-10.359-10.361
	c0-2.236,0.711-4.305,1.917-5.999H16.282v18.157c0,4.422,3.586,8.006,8.008,8.006h24.471c4.423,0,8.008-3.584,8.008-8.006V30.185z
	 M36.498,44.166c4.402,0,7.982-3.58,7.982-7.982c0-2.388-1.057-4.534-2.726-5.999c-0.586-0.512-1.246-0.941-1.964-1.268
	c-1.004-0.456-2.119-0.713-3.292-0.713c-1.172,0-2.287,0.257-3.291,0.713c-0.717,0.327-1.378,0.756-1.963,1.268
	c-1.669,1.465-2.726,3.611-2.726,5.999C28.518,40.586,32.098,44.166,36.498,44.166 M56.769,23.658c0-4.422-3.586-8.007-8.008-8.007
	H26.879v10.095h-1.641V15.651H24.29c-0.063,0-0.124,0.003-0.186,0.004v10.091h-1.642v-9.883c-0.397,0.093-0.784,0.215-1.156,0.364
	v9.519h-1.641v-8.622c-2.046,1.45-3.383,3.835-3.383,6.534v5.259h12.837c1.879-1.907,4.49-3.092,7.379-3.092
	c2.89,0,5.5,1.185,7.381,3.092h12.889L56.769,23.658L56.769,23.658z"/>
</svg>
