<?xml version="1.0" encoding="utf-8"?>
<!-- Generator: Adobe Illustrator 15.1.0, SVG Export Plug-In . SVG Version: 6.00 Build 0)  -->
<!DOCTYPE svg PUBLIC "-//W3C//DTD SVG 1.1//EN" "http://www.w3.org/Graphics/SVG/1.1/DTD/svg11.dtd">
<svg version="1.1" id="Layer_1" xmlns="http://www.w3.org/2000/svg" xmlns:xlink="http://www.w3.org/1999/xlink" x="0px" y="0px"
	 width="242.646px" height="153.014px" viewBox="0 0 242.646 153.014" enable-background="new 0 0 242.646 153.014"
	 xml:space="preserve">
<pattern  x="-184.531" y="-319.747" width="34" height="29.251" patternUnits="userSpaceOnUse" id="Unnamed_Pattern_7" viewBox="7.018 -37.396 34 29.251" overflow="visible">
	<g>
		<polygon fill="none" points="7.018,-37.396 41.018,-37.396 41.018,-8.146 7.018,-8.146 		"/>
		<g>
			<defs>
				<rect id="SVGID_1_" x="7.018" y="-37.396" width="34" height="29.251"/>
			</defs>
			<clipPath id="SVGID_2_">
				<use xlink:href="#SVGID_1_"  overflow="visible"/>
			</clipPath>
			<polygon clip-path="url(#SVGID_2_)" fill="#BA1F36" points="0,-4.053 7.018,0 14.037,-4.053 14.037,-12.157 7.018,-16.209 
				0,-12.157 			"/>
			<polygon clip-path="url(#SVGID_2_)" fill="#BA1F36" points="8.748,-18.521 15.768,-14.47 22.785,-18.521 22.785,-26.625 
				15.768,-30.679 8.748,-26.625 			"/>
			<polygon clip-path="url(#SVGID_2_)" fill="#BA1F36" points="17,-4.053 24.018,0 31.037,-4.053 31.037,-12.157 24.018,-16.209 
				17,-12.157 			"/>
			<polygon clip-path="url(#SVGID_2_)" fill="#BA1F36" points="25.748,-18.521 32.768,-14.47 39.785,-18.521 39.785,-26.625 
				32.768,-30.679 25.748,-26.625 			"/>
			<polygon clip-path="url(#SVGID_2_)" fill="#BA1F36" points="34,-4.053 41.018,0 48.037,-4.053 48.037,-12.157 41.018,-16.209 
				34,-12.157 			"/>
			<polygon clip-path="url(#SVGID_2_)" fill="#BA1F36" points="0,-33.386 7.018,-29.334 14.037,-33.386 14.037,-41.49 
				7.018,-45.543 0,-41.49 			"/>
			<polygon clip-path="url(#SVGID_2_)" fill="#BA1F36" points="17,-33.386 24.018,-29.334 31.037,-33.386 31.037,-41.49 
				24.018,-45.543 17,-41.49 			"/>
			<polygon clip-path="url(#SVGID_2_)" fill="#BA1F36" points="34,-33.386 41.018,-29.334 48.037,-33.386 48.037,-41.49 
				41.018,-45.543 34,-41.49 			"/>
		</g>
	</g>
</pattern>
<path fill="#E82444" d="M242.646,144.51c0,4.677-3.827,8.504-8.504,8.504H8.504c-4.677,0-8.504-3.827-8.504-8.504V8.504
	C0,3.827,3.827,0,8.504,0h225.638c4.677,0,8.504,3.827,8.504,8.504V144.51z"/>
<g opacity="0.6">
	<g>
		<defs>
			<rect id="SVGID_3_" x="16.771" y="32.007" width="95" height="95"/>
		</defs>
		<clipPath id="SVGID_4_">
			<use xlink:href="#SVGID_3_"  overflow="visible"/>
		</clipPath>
		<pattern  id="SVGID_5_" xlink:href="#Unnamed_Pattern_7" patternTransform="matrix(0.5954 0 0 -0.5954 -3806.6782 -1996.5391)">
		</pattern>
		<polygon clip-path="url(#SVGID_4_)" fill="url(#SVGID_5_)" points="111.771,60.657 83.12,60.657 83.12,32.007 45.422,32.007 
			45.422,60.657 16.771,60.657 16.771,98.355 45.422,98.355 45.422,127.007 83.12,127.007 83.12,98.355 111.771,98.355 		"/>
	</g>
</g>
<g opacity="0.6">
	<g>
		<defs>
			<rect id="SVGID_6_" x="188.341" width="54.305" height="153.014"/>
		</defs>
		<clipPath id="SVGID_7_">
			<use xlink:href="#SVGID_6_"  overflow="visible"/>
		</clipPath>
		<pattern  id="SVGID_8_" xlink:href="#Unnamed_Pattern_7" patternTransform="matrix(0.5954 0 0 -0.5954 -3806.6782 -1996.5391)">
		</pattern>
		<path clip-path="url(#SVGID_7_)" fill="url(#SVGID_8_)" d="M234.142,0h-45.801v153.014h45.801c4.677,0,8.504-3.827,8.504-8.504
			V8.504C242.646,3.827,238.818,0,234.142,0"/>
	</g>
</g>
<g>
	<path fill="#FFFFFF" d="M81.919,14.399h1.229v6.996h-1.229V14.399z"/>
	<path fill="#FFFFFF" d="M87.019,14.399h1.14l3.748,4.837v-4.837h1.209v6.996h-1.029l-3.858-4.978v4.978h-1.209V14.399z"/>
	<path fill="#FFFFFF" d="M96.448,20.376l0.739-0.88c0.67,0.58,1.34,0.91,2.209,0.91c0.76,0,1.239-0.35,1.239-0.88v-0.02
		c0-0.5-0.279-0.77-1.579-1.069c-1.489-0.36-2.328-0.8-2.328-2.089v-0.021c0-1.199,0.999-2.028,2.389-2.028
		c1.02,0,1.829,0.31,2.538,0.879l-0.659,0.93c-0.63-0.47-1.26-0.72-1.899-0.72c-0.72,0-1.14,0.37-1.14,0.83v0.02
		c0,0.54,0.32,0.779,1.659,1.1c1.479,0.359,2.249,0.89,2.249,2.049v0.02c0,1.31-1.029,2.089-2.498,2.089
		C98.297,21.495,97.288,21.126,96.448,20.376z"/>
	<path fill="#FFFFFF" d="M105.209,18.427v-4.027h1.229v3.978c0,1.3,0.67,1.999,1.77,1.999c1.089,0,1.759-0.659,1.759-1.949v-4.027
		h1.229v3.968c0,2.089-1.18,3.139-3.009,3.139C106.368,21.506,105.209,20.456,105.209,18.427z"/>
	<path fill="#FFFFFF" d="M114.889,14.399h3.118c0.88,0,1.569,0.26,2.02,0.699c0.369,0.38,0.579,0.899,0.579,1.51v0.02
		c0,1.149-0.689,1.839-1.669,2.119l1.889,2.648h-1.449l-1.719-2.438h-1.539v2.438h-1.229V14.399z M117.917,17.867
		c0.88,0,1.439-0.46,1.439-1.169v-0.021c0-0.749-0.54-1.159-1.449-1.159h-1.789v2.349H117.917z"/>
	<path fill="#FFFFFF" d="M126.597,14.35h1.14l3.078,7.046h-1.299l-0.71-1.689h-3.309l-0.719,1.689h-1.26L126.597,14.35z
		 M128.355,18.617l-1.209-2.799l-1.199,2.799H128.355z"/>
	<path fill="#FFFFFF" d="M134.019,14.399h1.14l3.748,4.837v-4.837h1.209v6.996h-1.029l-3.858-4.978v4.978h-1.209V14.399z"/>
	<path fill="#FFFFFF" d="M143.608,17.917v-0.02c0-1.989,1.489-3.618,3.607-3.618c1.29,0,2.069,0.45,2.739,1.09l-0.79,0.909
		c-0.56-0.52-1.159-0.869-1.959-0.869c-1.339,0-2.309,1.099-2.309,2.469v0.02c0,1.369,0.97,2.488,2.309,2.488
		c0.859,0,1.409-0.35,2.009-0.909l0.79,0.8c-0.729,0.76-1.529,1.239-2.839,1.239C145.127,21.516,143.608,19.927,143.608,17.917z"/>
	<path fill="#FFFFFF" d="M153.298,14.399h5.188v1.1h-3.958v1.818h3.508v1.1h-3.508v1.879h4.008v1.1h-5.237V14.399z"/>
</g>
</svg>
