<?xml version="1.0" encoding="utf-8"?>
<!-- Generator: Adobe Illustrator 15.1.0, SVG Export Plug-In . SVG Version: 6.00 Build 0)  -->
<!DOCTYPE svg PUBLIC "-//W3C//DTD SVG 1.1//EN" "http://www.w3.org/Graphics/SVG/1.1/DTD/svg11.dtd">
<svg version="1.1" id="Layer_1" xmlns="http://www.w3.org/2000/svg" xmlns:xlink="http://www.w3.org/1999/xlink" x="0px" y="0px"
	 width="465.731px" height="395.05px" viewBox="0 0 465.731 395.05" enable-background="new 0 0 465.731 395.05"
	 xml:space="preserve">
<pattern  x="-73.394" y="-199.03" width="34" height="29.251" patternUnits="userSpaceOnUse" id="Unnamed_Pattern_1" viewBox="7.018 -37.396 34 29.251" overflow="visible">
	<g>
		<polygon fill="none" points="7.018,-37.396 41.018,-37.396 41.018,-8.146 7.018,-8.146 		"/>
		<g>
			<defs>
				<rect id="SVGID_1_" x="7.018" y="-37.396" width="34" height="29.251"/>
			</defs>
			<clipPath id="SVGID_2_">
				<use xlink:href="#SVGID_1_"  overflow="visible"/>
			</clipPath>
			<polygon clip-path="url(#SVGID_2_)" fill="#DE278B" points="0,-4.053 7.018,0 14.037,-4.053 14.037,-12.157 7.018,-16.209 
				0,-12.157 			"/>
			<polygon clip-path="url(#SVGID_2_)" fill="#DE278B" points="8.748,-18.521 15.768,-14.47 22.785,-18.521 22.785,-26.625 
				15.768,-30.679 8.748,-26.625 			"/>
			<polygon clip-path="url(#SVGID_2_)" fill="#DE278B" points="17,-4.053 24.018,0 31.037,-4.053 31.037,-12.157 24.018,-16.209 
				17,-12.157 			"/>
			<polygon clip-path="url(#SVGID_2_)" fill="#DE278B" points="25.748,-18.521 32.768,-14.47 39.785,-18.521 39.785,-26.625 
				32.768,-30.679 25.748,-26.625 			"/>
			<polygon clip-path="url(#SVGID_2_)" fill="#DE278B" points="34,-4.053 41.018,0 48.037,-4.053 48.037,-12.157 41.018,-16.209 
				34,-12.157 			"/>
			<polygon clip-path="url(#SVGID_2_)" fill="#DE278B" points="0,-33.386 7.018,-29.334 14.037,-33.386 14.037,-41.49 
				7.018,-45.543 0,-41.49 			"/>
			<polygon clip-path="url(#SVGID_2_)" fill="#DE278B" points="17,-33.386 24.018,-29.334 31.037,-33.386 31.037,-41.49 
				24.018,-45.543 17,-41.49 			"/>
			<polygon clip-path="url(#SVGID_2_)" fill="#DE278B" points="34,-33.386 41.018,-29.334 48.037,-33.386 48.037,-41.49 
				41.018,-45.543 34,-41.49 			"/>
		</g>
	</g>
</pattern>
<polygon fill="#1B2E37" points="465.731,1.483 22.112,1.483 0,395.05 465.731,395.05 "/>
<g opacity="0.5">
	<g>
		<defs>
			<rect id="SVGID_3_" x="21.966" y="104.113" width="336.283" height="1.705"/>
		</defs>
		<clipPath id="SVGID_4_">
			<use xlink:href="#SVGID_3_"  overflow="visible"/>
		</clipPath>
		<path clip-path="url(#SVGID_4_)" fill="#A77E2C" d="M21.966,105.022c0.243-0.541,1.032-0.977,3.129-0.899
			c1.549-0.01,2.675,0.591,2.771,0.925c-0.087,0.247-1.023,0.77-2.896,0.77C23.778,105.818,22.268,105.76,21.966,105.022"/>
		<path clip-path="url(#SVGID_4_)" fill="#A77E2C" d="M30.226,105.022c0.243-0.541,1.032-0.977,3.129-0.899
			c1.549-0.01,2.675,0.591,2.771,0.925c-0.087,0.247-1.023,0.77-2.896,0.77C32.038,105.818,30.526,105.76,30.226,105.022"/>
		<path clip-path="url(#SVGID_4_)" fill="#A77E2C" d="M38.485,105.022c0.243-0.541,1.032-0.977,3.129-0.899
			c1.549-0.01,2.675,0.591,2.771,0.925c-0.087,0.247-1.023,0.77-2.896,0.77C40.297,105.818,38.787,105.76,38.485,105.022"/>
		<path clip-path="url(#SVGID_4_)" fill="#A77E2C" d="M46.745,105.022c0.243-0.541,1.032-0.977,3.129-0.899
			c1.549-0.01,2.675,0.591,2.771,0.925c-0.087,0.247-1.023,0.77-2.895,0.77C48.557,105.818,47.046,105.76,46.745,105.022"/>
		<path clip-path="url(#SVGID_4_)" fill="#A77E2C" d="M55.004,105.022c0.243-0.541,1.032-0.977,3.129-0.899
			c1.549-0.01,2.675,0.591,2.771,0.925c-0.087,0.247-1.023,0.77-2.896,0.77C56.816,105.818,55.306,105.76,55.004,105.022"/>
		<path clip-path="url(#SVGID_4_)" fill="#A77E2C" d="M63.264,105.022c0.243-0.541,1.032-0.977,3.129-0.899
			c1.549-0.01,2.675,0.591,2.771,0.925c-0.087,0.247-1.023,0.77-2.895,0.77C65.076,105.818,63.565,105.76,63.264,105.022"/>
		<path clip-path="url(#SVGID_4_)" fill="#A77E2C" d="M71.523,105.022c0.243-0.541,1.032-0.977,3.129-0.899
			c1.549-0.01,2.675,0.591,2.771,0.925c-0.087,0.247-1.023,0.77-2.896,0.77C73.335,105.818,71.825,105.76,71.523,105.022"/>
		<path clip-path="url(#SVGID_4_)" fill="#A77E2C" d="M79.783,105.022c0.243-0.541,1.032-0.977,3.129-0.899
			c1.549-0.01,2.675,0.591,2.771,0.925c-0.087,0.247-1.023,0.77-2.896,0.77C81.595,105.818,80.085,105.76,79.783,105.022"/>
		<path clip-path="url(#SVGID_4_)" fill="#A77E2C" d="M88.042,105.022c0.243-0.541,1.032-0.977,3.129-0.899
			c1.549-0.01,2.675,0.591,2.771,0.925c-0.087,0.247-1.023,0.77-2.896,0.77C89.854,105.818,88.343,105.76,88.042,105.022"/>
		<path clip-path="url(#SVGID_4_)" fill="#A77E2C" d="M96.302,105.022c0.243-0.541,1.032-0.977,3.129-0.899
			c1.549-0.01,2.675,0.591,2.771,0.925c-0.087,0.247-1.023,0.77-2.896,0.77C98.114,105.818,96.604,105.76,96.302,105.022"/>
		<path clip-path="url(#SVGID_4_)" fill="#A77E2C" d="M104.562,105.022c0.243-0.541,1.032-0.977,3.129-0.899
			c1.549-0.01,2.675,0.591,2.771,0.925c-0.087,0.247-1.023,0.77-2.895,0.77C106.374,105.818,104.864,105.76,104.562,105.022"/>
		<path clip-path="url(#SVGID_4_)" fill="#A77E2C" d="M112.821,105.022c0.243-0.541,1.032-0.977,3.129-0.899
			c1.549-0.01,2.675,0.591,2.771,0.925c-0.087,0.247-1.023,0.77-2.896,0.77C114.633,105.818,113.123,105.76,112.821,105.022"/>
		<path clip-path="url(#SVGID_4_)" fill="#A77E2C" d="M121.081,105.022c0.243-0.541,1.032-0.977,3.129-0.899
			c1.549-0.01,2.675,0.591,2.771,0.925c-0.087,0.247-1.023,0.77-2.895,0.77C122.893,105.818,121.383,105.76,121.081,105.022"/>
		<path clip-path="url(#SVGID_4_)" fill="#A77E2C" d="M129.34,105.022c0.243-0.541,1.032-0.977,3.129-0.899
			c1.549-0.01,2.675,0.591,2.771,0.925c-0.087,0.247-1.023,0.77-2.896,0.77C131.152,105.818,129.643,105.76,129.34,105.022"/>
		<path clip-path="url(#SVGID_4_)" fill="#A77E2C" d="M137.6,105.022c0.243-0.541,1.032-0.977,3.129-0.899
			c1.549-0.01,2.675,0.591,2.771,0.925c-0.087,0.247-1.023,0.77-2.896,0.77C139.412,105.818,137.902,105.76,137.6,105.022"/>
		<path clip-path="url(#SVGID_4_)" fill="#A77E2C" d="M145.859,105.022c0.243-0.541,1.032-0.977,3.129-0.899
			c1.549-0.01,2.675,0.591,2.771,0.925c-0.087,0.247-1.023,0.77-2.896,0.77C147.671,105.818,146.161,105.76,145.859,105.022"/>
		<path clip-path="url(#SVGID_4_)" fill="#A77E2C" d="M154.119,105.022c0.243-0.541,1.032-0.977,3.129-0.899
			c1.549-0.01,2.675,0.591,2.771,0.925c-0.087,0.247-1.023,0.77-2.896,0.77C155.931,105.818,154.421,105.76,154.119,105.022"/>
		<path clip-path="url(#SVGID_4_)" fill="#A77E2C" d="M162.378,105.022c0.243-0.541,1.032-0.977,3.129-0.899
			c1.549-0.01,2.675,0.591,2.771,0.925c-0.087,0.247-1.023,0.77-2.895,0.77C164.19,105.818,162.681,105.76,162.378,105.022"/>
		<path clip-path="url(#SVGID_4_)" fill="#A77E2C" d="M170.638,105.022c0.243-0.541,1.032-0.977,3.129-0.899
			c1.549-0.01,2.675,0.591,2.771,0.925c-0.087,0.247-1.023,0.77-2.896,0.77C172.45,105.818,170.94,105.76,170.638,105.022"/>
		<path clip-path="url(#SVGID_4_)" fill="#A77E2C" d="M178.897,105.022c0.243-0.541,1.032-0.977,3.129-0.899
			c1.549-0.01,2.675,0.591,2.771,0.925c-0.087,0.247-1.023,0.77-2.895,0.77C180.709,105.818,179.2,105.76,178.897,105.022"/>
		<path clip-path="url(#SVGID_4_)" fill="#A77E2C" d="M187.157,105.022c0.243-0.541,1.032-0.977,3.129-0.899
			c1.549-0.01,2.675,0.591,2.771,0.925c-0.087,0.247-1.023,0.77-2.896,0.77C188.969,105.818,187.459,105.76,187.157,105.022"/>
		<path clip-path="url(#SVGID_4_)" fill="#A77E2C" d="M195.417,105.022c0.243-0.541,1.032-0.977,3.129-0.899
			c1.549-0.01,2.675,0.591,2.771,0.925c-0.087,0.247-1.023,0.77-2.896,0.77C197.229,105.818,195.719,105.76,195.417,105.022"/>
		<path clip-path="url(#SVGID_4_)" fill="#A77E2C" d="M203.677,105.022c0.243-0.541,1.032-0.977,3.129-0.899
			c1.549-0.01,2.675,0.591,2.771,0.925c-0.087,0.247-1.023,0.77-2.896,0.77C205.489,105.818,203.978,105.76,203.677,105.022"/>
		<path clip-path="url(#SVGID_4_)" fill="#A77E2C" d="M211.936,105.022c0.243-0.541,1.032-0.977,3.129-0.899
			c1.549-0.01,2.675,0.591,2.771,0.925c-0.087,0.247-1.023,0.77-2.896,0.77C213.748,105.818,212.238,105.76,211.936,105.022"/>
		<path clip-path="url(#SVGID_4_)" fill="#A77E2C" d="M220.196,105.022c0.243-0.541,1.032-0.977,3.129-0.899
			c1.549-0.01,2.675,0.591,2.771,0.925c-0.087,0.247-1.022,0.77-2.895,0.77C222.007,105.818,220.498,105.76,220.196,105.022"/>
		<path clip-path="url(#SVGID_4_)" fill="#A77E2C" d="M228.456,105.022c0.242-0.541,1.031-0.977,3.129-0.899
			c1.549-0.01,2.675,0.591,2.771,0.925c-0.087,0.247-1.022,0.77-2.896,0.77C230.267,105.818,228.757,105.76,228.456,105.022"/>
		<path clip-path="url(#SVGID_4_)" fill="#A77E2C" d="M236.714,105.022c0.243-0.541,1.032-0.977,3.13-0.899
			c1.549-0.01,2.675,0.591,2.771,0.925c-0.087,0.247-1.023,0.77-2.896,0.77C238.527,105.818,237.017,105.76,236.714,105.022"/>
		<path clip-path="url(#SVGID_4_)" fill="#A77E2C" d="M244.974,105.022c0.243-0.541,1.032-0.977,3.129-0.899
			c1.55-0.01,2.676,0.591,2.771,0.925c-0.087,0.247-1.023,0.77-2.896,0.77C246.787,105.818,245.276,105.76,244.974,105.022"/>
		<path clip-path="url(#SVGID_4_)" fill="#A77E2C" d="M253.234,105.022c0.243-0.541,1.032-0.977,3.129-0.899
			c1.549-0.01,2.675,0.591,2.771,0.925c-0.088,0.247-1.023,0.77-2.896,0.77C255.045,105.818,253.536,105.76,253.234,105.022"/>
		<path clip-path="url(#SVGID_4_)" fill="#A77E2C" d="M261.494,105.022c0.243-0.541,1.032-0.977,3.129-0.899
			c1.549-0.01,2.675,0.591,2.771,0.925c-0.087,0.247-1.022,0.77-2.896,0.77C263.305,105.818,261.794,105.76,261.494,105.022"/>
		<path clip-path="url(#SVGID_4_)" fill="#A77E2C" d="M269.753,105.022c0.242-0.541,1.031-0.977,3.129-0.899
			c1.549-0.01,2.675,0.591,2.771,0.925c-0.087,0.247-1.022,0.77-2.896,0.77C271.565,105.818,270.055,105.76,269.753,105.022"/>
		<path clip-path="url(#SVGID_4_)" fill="#A77E2C" d="M278.012,105.022c0.243-0.541,1.032-0.977,3.129-0.899
			c1.55-0.01,2.676,0.591,2.771,0.925c-0.087,0.247-1.023,0.77-2.896,0.77C279.825,105.818,278.315,105.76,278.012,105.022"/>
		<path clip-path="url(#SVGID_4_)" fill="#A77E2C" d="M286.272,105.022c0.243-0.541,1.032-0.977,3.129-0.899
			c1.55-0.01,2.676,0.591,2.771,0.925c-0.087,0.247-1.023,0.77-2.896,0.77C288.084,105.818,286.575,105.76,286.272,105.022"/>
		<path clip-path="url(#SVGID_4_)" fill="#A77E2C" d="M294.532,105.022c0.243-0.541,1.032-0.977,3.129-0.899
			c1.549-0.01,2.675,0.591,2.771,0.925c-0.087,0.247-1.023,0.77-2.896,0.77C296.344,105.818,294.833,105.76,294.532,105.022"/>
		<path clip-path="url(#SVGID_4_)" fill="#A77E2C" d="M302.792,105.022c0.243-0.541,1.032-0.977,3.129-0.899
			c1.549-0.01,2.675,0.591,2.771,0.925c-0.087,0.247-1.022,0.77-2.896,0.77C304.603,105.818,303.093,105.76,302.792,105.022"/>
		<path clip-path="url(#SVGID_4_)" fill="#A77E2C" d="M311.051,105.022c0.242-0.541,1.031-0.977,3.129-0.899
			c1.549-0.01,2.675,0.591,2.771,0.925c-0.087,0.247-1.022,0.77-2.896,0.77C312.863,105.818,311.353,105.76,311.051,105.022"/>
		<path clip-path="url(#SVGID_4_)" fill="#A77E2C" d="M319.311,105.022c0.242-0.541,1.031-0.977,3.129-0.899
			c1.549-0.01,2.675,0.591,2.771,0.925c-0.087,0.247-1.022,0.77-2.896,0.77C321.123,105.818,319.612,105.76,319.311,105.022"/>
		<path clip-path="url(#SVGID_4_)" fill="#A77E2C" d="M327.57,105.022c0.243-0.541,1.032-0.977,3.129-0.899
			c1.55-0.01,2.676,0.591,2.771,0.925c-0.087,0.247-1.023,0.77-2.896,0.77C329.382,105.818,327.872,105.76,327.57,105.022"/>
		<path clip-path="url(#SVGID_4_)" fill="#A77E2C" d="M335.83,105.022c0.243-0.541,1.032-0.977,3.129-0.899
			c1.549-0.01,2.675,0.591,2.771,0.925c-0.088,0.247-1.023,0.77-2.896,0.77C337.641,105.818,336.131,105.76,335.83,105.022"/>
		<path clip-path="url(#SVGID_4_)" fill="#A77E2C" d="M344.089,105.022c0.243-0.541,1.032-0.977,3.129-0.899
			c1.549-0.01,2.675,0.591,2.771,0.925c-0.087,0.247-1.022,0.77-2.896,0.77C345.901,105.818,344.391,105.76,344.089,105.022"/>
		<path clip-path="url(#SVGID_4_)" fill="#A77E2C" d="M352.349,105.022c0.242-0.541,1.031-0.977,3.129-0.899
			c1.549-0.01,2.675,0.591,2.771,0.925c-0.087,0.247-1.022,0.77-2.895,0.77C354.161,105.818,352.651,105.76,352.349,105.022"/>
	</g>
</g>
<g opacity="0.5">
	<g>
		<defs>
			<rect id="SVGID_5_" x="21.966" y="6.114" width="336.283" height="1.704"/>
		</defs>
		<clipPath id="SVGID_6_">
			<use xlink:href="#SVGID_5_"  overflow="visible"/>
		</clipPath>
		<path clip-path="url(#SVGID_6_)" fill="#A77E2C" d="M21.966,7.022c0.243-0.541,1.032-0.977,3.129-0.899
			c1.549-0.01,2.675,0.591,2.771,0.925c-0.087,0.247-1.023,0.77-2.896,0.77C23.778,7.818,22.268,7.76,21.966,7.022"/>
		<path clip-path="url(#SVGID_6_)" fill="#A77E2C" d="M30.226,7.022c0.243-0.541,1.032-0.977,3.129-0.899
			c1.549-0.01,2.675,0.591,2.771,0.925c-0.087,0.247-1.023,0.77-2.896,0.77C32.038,7.818,30.526,7.76,30.226,7.022"/>
		<path clip-path="url(#SVGID_6_)" fill="#A77E2C" d="M38.485,7.022c0.243-0.541,1.032-0.977,3.129-0.899
			c1.549-0.01,2.675,0.591,2.771,0.925c-0.087,0.247-1.023,0.77-2.896,0.77C40.297,7.818,38.787,7.76,38.485,7.022"/>
		<path clip-path="url(#SVGID_6_)" fill="#A77E2C" d="M46.745,7.022c0.243-0.541,1.032-0.977,3.129-0.899
			c1.549-0.01,2.675,0.591,2.771,0.925c-0.087,0.247-1.023,0.77-2.895,0.77C48.557,7.818,47.046,7.76,46.745,7.022"/>
		<path clip-path="url(#SVGID_6_)" fill="#A77E2C" d="M55.004,7.022c0.243-0.541,1.032-0.977,3.129-0.899
			c1.549-0.01,2.675,0.591,2.771,0.925c-0.087,0.247-1.023,0.77-2.896,0.77C56.816,7.818,55.306,7.76,55.004,7.022"/>
		<path clip-path="url(#SVGID_6_)" fill="#A77E2C" d="M63.264,7.022c0.243-0.541,1.032-0.977,3.129-0.899
			c1.549-0.01,2.675,0.591,2.771,0.925c-0.087,0.247-1.023,0.77-2.895,0.77C65.076,7.818,63.565,7.76,63.264,7.022"/>
		<path clip-path="url(#SVGID_6_)" fill="#A77E2C" d="M71.523,7.022c0.243-0.541,1.032-0.977,3.129-0.899
			c1.549-0.01,2.675,0.591,2.771,0.925c-0.087,0.247-1.023,0.77-2.896,0.77C73.335,7.818,71.825,7.76,71.523,7.022"/>
		<path clip-path="url(#SVGID_6_)" fill="#A77E2C" d="M79.783,7.022c0.243-0.541,1.032-0.977,3.129-0.899
			c1.549-0.01,2.675,0.591,2.771,0.925c-0.087,0.247-1.023,0.77-2.896,0.77C81.595,7.818,80.085,7.76,79.783,7.022"/>
		<path clip-path="url(#SVGID_6_)" fill="#A77E2C" d="M88.042,7.022c0.243-0.541,1.032-0.977,3.129-0.899
			c1.549-0.01,2.675,0.591,2.771,0.925c-0.087,0.247-1.023,0.77-2.896,0.77C89.854,7.818,88.343,7.76,88.042,7.022"/>
		<path clip-path="url(#SVGID_6_)" fill="#A77E2C" d="M96.302,7.022c0.243-0.541,1.032-0.977,3.129-0.899
			c1.549-0.01,2.675,0.591,2.771,0.925c-0.087,0.247-1.023,0.77-2.896,0.77C98.114,7.818,96.604,7.76,96.302,7.022"/>
		<path clip-path="url(#SVGID_6_)" fill="#A77E2C" d="M104.562,7.022c0.243-0.541,1.032-0.977,3.129-0.899
			c1.549-0.01,2.675,0.591,2.771,0.925c-0.087,0.247-1.023,0.77-2.895,0.77C106.374,7.818,104.864,7.76,104.562,7.022"/>
		<path clip-path="url(#SVGID_6_)" fill="#A77E2C" d="M112.821,7.022c0.243-0.541,1.032-0.977,3.129-0.899
			c1.549-0.01,2.675,0.591,2.771,0.925c-0.087,0.247-1.023,0.77-2.896,0.77C114.633,7.818,113.123,7.76,112.821,7.022"/>
		<path clip-path="url(#SVGID_6_)" fill="#A77E2C" d="M121.081,7.022c0.243-0.541,1.032-0.977,3.129-0.899
			c1.549-0.01,2.675,0.591,2.771,0.925c-0.087,0.247-1.023,0.77-2.895,0.77C122.893,7.818,121.383,7.76,121.081,7.022"/>
		<path clip-path="url(#SVGID_6_)" fill="#A77E2C" d="M129.34,7.022c0.243-0.541,1.032-0.977,3.129-0.899
			c1.549-0.01,2.675,0.591,2.771,0.925c-0.087,0.247-1.023,0.77-2.896,0.77C131.152,7.818,129.643,7.76,129.34,7.022"/>
		<path clip-path="url(#SVGID_6_)" fill="#A77E2C" d="M137.6,7.022c0.243-0.541,1.032-0.977,3.129-0.899
			c1.549-0.01,2.675,0.591,2.771,0.925c-0.087,0.247-1.023,0.77-2.896,0.77C139.412,7.818,137.902,7.76,137.6,7.022"/>
		<path clip-path="url(#SVGID_6_)" fill="#A77E2C" d="M145.859,7.022c0.243-0.541,1.032-0.977,3.129-0.899
			c1.549-0.01,2.675,0.591,2.771,0.925c-0.087,0.247-1.023,0.77-2.896,0.77C147.671,7.818,146.161,7.76,145.859,7.022"/>
		<path clip-path="url(#SVGID_6_)" fill="#A77E2C" d="M154.119,7.022c0.243-0.541,1.032-0.977,3.129-0.899
			c1.549-0.01,2.675,0.591,2.771,0.925c-0.087,0.247-1.023,0.77-2.896,0.77C155.931,7.818,154.421,7.76,154.119,7.022"/>
		<path clip-path="url(#SVGID_6_)" fill="#A77E2C" d="M162.378,7.022c0.243-0.541,1.032-0.977,3.129-0.899
			c1.549-0.01,2.675,0.591,2.771,0.925c-0.087,0.247-1.023,0.77-2.895,0.77C164.19,7.818,162.681,7.76,162.378,7.022"/>
		<path clip-path="url(#SVGID_6_)" fill="#A77E2C" d="M170.638,7.022c0.243-0.541,1.032-0.977,3.129-0.899
			c1.549-0.01,2.675,0.591,2.771,0.925c-0.087,0.247-1.023,0.77-2.896,0.77C172.45,7.818,170.94,7.76,170.638,7.022"/>
		<path clip-path="url(#SVGID_6_)" fill="#A77E2C" d="M178.897,7.022c0.243-0.541,1.032-0.977,3.129-0.899
			c1.549-0.01,2.675,0.591,2.771,0.925c-0.087,0.247-1.023,0.77-2.895,0.77C180.709,7.818,179.2,7.76,178.897,7.022"/>
		<path clip-path="url(#SVGID_6_)" fill="#A77E2C" d="M187.157,7.022c0.243-0.541,1.032-0.977,3.129-0.899
			c1.549-0.01,2.675,0.591,2.771,0.925c-0.087,0.247-1.023,0.77-2.896,0.77C188.969,7.818,187.459,7.76,187.157,7.022"/>
		<path clip-path="url(#SVGID_6_)" fill="#A77E2C" d="M195.417,7.022c0.243-0.541,1.032-0.977,3.129-0.899
			c1.549-0.01,2.675,0.591,2.771,0.925c-0.087,0.247-1.023,0.77-2.896,0.77C197.229,7.818,195.719,7.76,195.417,7.022"/>
		<path clip-path="url(#SVGID_6_)" fill="#A77E2C" d="M203.677,7.022c0.243-0.541,1.032-0.977,3.129-0.899
			c1.549-0.01,2.675,0.591,2.771,0.925c-0.087,0.247-1.023,0.77-2.896,0.77C205.489,7.818,203.978,7.76,203.677,7.022"/>
		<path clip-path="url(#SVGID_6_)" fill="#A77E2C" d="M211.936,7.022c0.243-0.541,1.032-0.977,3.129-0.899
			c1.549-0.01,2.675,0.591,2.771,0.925c-0.087,0.247-1.023,0.77-2.896,0.77C213.748,7.818,212.238,7.76,211.936,7.022"/>
		<path clip-path="url(#SVGID_6_)" fill="#A77E2C" d="M220.196,7.022c0.243-0.541,1.032-0.977,3.129-0.899
			c1.549-0.01,2.675,0.591,2.771,0.925c-0.087,0.247-1.022,0.77-2.895,0.77C222.007,7.818,220.498,7.76,220.196,7.022"/>
		<path clip-path="url(#SVGID_6_)" fill="#A77E2C" d="M228.456,7.022c0.242-0.541,1.031-0.977,3.129-0.899
			c1.549-0.01,2.675,0.591,2.771,0.925c-0.087,0.247-1.022,0.77-2.896,0.77C230.267,7.818,228.757,7.76,228.456,7.022"/>
		<path clip-path="url(#SVGID_6_)" fill="#A77E2C" d="M236.714,7.022c0.243-0.541,1.032-0.977,3.13-0.899
			c1.549-0.01,2.675,0.591,2.771,0.925c-0.087,0.247-1.023,0.77-2.896,0.77C238.527,7.818,237.017,7.76,236.714,7.022"/>
		<path clip-path="url(#SVGID_6_)" fill="#A77E2C" d="M244.974,7.022c0.243-0.541,1.032-0.977,3.129-0.899
			c1.55-0.01,2.676,0.591,2.771,0.925c-0.087,0.247-1.023,0.77-2.896,0.77C246.787,7.818,245.276,7.76,244.974,7.022"/>
		<path clip-path="url(#SVGID_6_)" fill="#A77E2C" d="M253.234,7.022c0.243-0.541,1.032-0.977,3.129-0.899
			c1.549-0.01,2.675,0.591,2.771,0.925c-0.088,0.247-1.023,0.77-2.896,0.77C255.045,7.818,253.536,7.76,253.234,7.022"/>
		<path clip-path="url(#SVGID_6_)" fill="#A77E2C" d="M261.494,7.022c0.243-0.541,1.032-0.977,3.129-0.899
			c1.549-0.01,2.675,0.591,2.771,0.925c-0.087,0.247-1.022,0.77-2.896,0.77C263.305,7.818,261.794,7.76,261.494,7.022"/>
		<path clip-path="url(#SVGID_6_)" fill="#A77E2C" d="M269.753,7.022c0.242-0.541,1.031-0.977,3.129-0.899
			c1.549-0.01,2.675,0.591,2.771,0.925c-0.087,0.247-1.022,0.77-2.896,0.77C271.565,7.818,270.055,7.76,269.753,7.022"/>
		<path clip-path="url(#SVGID_6_)" fill="#A77E2C" d="M278.012,7.022c0.243-0.541,1.032-0.977,3.129-0.899
			c1.55-0.01,2.676,0.591,2.771,0.925c-0.087,0.247-1.023,0.77-2.896,0.77C279.825,7.818,278.315,7.76,278.012,7.022"/>
		<path clip-path="url(#SVGID_6_)" fill="#A77E2C" d="M286.272,7.022c0.243-0.541,1.032-0.977,3.129-0.899
			c1.55-0.01,2.676,0.591,2.771,0.925c-0.087,0.247-1.023,0.77-2.896,0.77C288.084,7.818,286.575,7.76,286.272,7.022"/>
		<path clip-path="url(#SVGID_6_)" fill="#A77E2C" d="M294.532,7.022c0.243-0.541,1.032-0.977,3.129-0.899
			c1.549-0.01,2.675,0.591,2.771,0.925c-0.087,0.247-1.023,0.77-2.896,0.77C296.344,7.818,294.833,7.76,294.532,7.022"/>
		<path clip-path="url(#SVGID_6_)" fill="#A77E2C" d="M302.792,7.022c0.243-0.541,1.032-0.977,3.129-0.899
			c1.549-0.01,2.675,0.591,2.771,0.925c-0.087,0.247-1.022,0.77-2.896,0.77C304.603,7.818,303.093,7.76,302.792,7.022"/>
		<path clip-path="url(#SVGID_6_)" fill="#A77E2C" d="M311.051,7.022c0.242-0.541,1.031-0.977,3.129-0.899
			c1.549-0.01,2.675,0.591,2.771,0.925c-0.087,0.247-1.022,0.77-2.896,0.77C312.863,7.818,311.353,7.76,311.051,7.022"/>
		<path clip-path="url(#SVGID_6_)" fill="#A77E2C" d="M319.311,7.022c0.242-0.541,1.031-0.977,3.129-0.899
			c1.549-0.01,2.675,0.591,2.771,0.925c-0.087,0.247-1.022,0.77-2.896,0.77C321.123,7.818,319.612,7.76,319.311,7.022"/>
		<path clip-path="url(#SVGID_6_)" fill="#A77E2C" d="M327.57,7.022c0.243-0.541,1.032-0.977,3.129-0.899
			c1.55-0.01,2.676,0.591,2.771,0.925c-0.087,0.247-1.023,0.77-2.896,0.77C329.382,7.818,327.872,7.76,327.57,7.022"/>
		<path clip-path="url(#SVGID_6_)" fill="#A77E2C" d="M335.83,7.022c0.243-0.541,1.032-0.977,3.129-0.899
			c1.549-0.01,2.675,0.591,2.771,0.925c-0.088,0.247-1.023,0.77-2.896,0.77C337.641,7.818,336.131,7.76,335.83,7.022"/>
		<path clip-path="url(#SVGID_6_)" fill="#A77E2C" d="M344.089,7.022c0.243-0.541,1.032-0.977,3.129-0.899
			c1.549-0.01,2.675,0.591,2.771,0.925c-0.087,0.247-1.022,0.77-2.896,0.77C345.901,7.818,344.391,7.76,344.089,7.022"/>
		<path clip-path="url(#SVGID_6_)" fill="#A77E2C" d="M352.349,7.022c0.242-0.541,1.031-0.977,3.129-0.899
			c1.549-0.01,2.675,0.591,2.771,0.925c-0.087,0.247-1.022,0.77-2.895,0.77C354.161,7.818,352.651,7.76,352.349,7.022"/>
	</g>
</g>
<g opacity="0.5">
	<g>
		<defs>
			<rect id="SVGID_7_" x="369.253" y="4.935" width="1.703" height="382.644"/>
		</defs>
		<clipPath id="SVGID_8_">
			<use xlink:href="#SVGID_7_"  overflow="visible"/>
		</clipPath>
		<path clip-path="url(#SVGID_8_)" fill="#A77E2C" d="M370.049,4.935c0.541,0.246,0.977,1.046,0.899,3.171
			c0.01,1.57-0.592,2.711-0.926,2.808c-0.247-0.088-0.77-1.037-0.77-2.934C369.253,6.771,369.311,5.241,370.049,4.935"/>
		<path clip-path="url(#SVGID_8_)" fill="#A77E2C" d="M370.049,13.305c0.541,0.246,0.977,1.046,0.899,3.171
			c0.01,1.57-0.592,2.711-0.926,2.808c-0.247-0.088-0.77-1.037-0.77-2.934C369.253,15.141,369.311,13.611,370.049,13.305"/>
		<path clip-path="url(#SVGID_8_)" fill="#A77E2C" d="M370.049,21.676c0.541,0.246,0.977,1.046,0.899,3.171
			c0.01,1.57-0.592,2.711-0.926,2.808c-0.247-0.088-0.77-1.037-0.77-2.934C369.253,23.512,369.311,21.981,370.049,21.676"/>
		<path clip-path="url(#SVGID_8_)" fill="#A77E2C" d="M370.049,30.046c0.541,0.246,0.977,1.046,0.899,3.171
			c0.01,1.57-0.592,2.711-0.926,2.808c-0.247-0.088-0.77-1.037-0.77-2.934C369.253,31.882,369.311,30.351,370.049,30.046"/>
		<path clip-path="url(#SVGID_8_)" fill="#A77E2C" d="M370.049,38.416c0.541,0.246,0.977,1.046,0.899,3.171
			c0.01,1.57-0.592,2.711-0.926,2.808c-0.247-0.088-0.77-1.037-0.77-2.934C369.253,40.252,369.311,38.722,370.049,38.416"/>
		<path clip-path="url(#SVGID_8_)" fill="#A77E2C" d="M370.049,46.787c0.541,0.246,0.977,1.046,0.899,3.171
			c0.01,1.57-0.592,2.711-0.926,2.808c-0.247-0.088-0.77-1.037-0.77-2.934C369.253,48.623,369.311,47.093,370.049,46.787"/>
		<path clip-path="url(#SVGID_8_)" fill="#A77E2C" d="M370.049,55.157c0.541,0.246,0.977,1.046,0.899,3.171
			c0.01,1.57-0.592,2.711-0.926,2.808c-0.247-0.088-0.77-1.037-0.77-2.934C369.253,56.993,369.311,55.463,370.049,55.157"/>
		<path clip-path="url(#SVGID_8_)" fill="#A77E2C" d="M370.049,63.527c0.541,0.246,0.977,1.046,0.899,3.171
			c0.01,1.57-0.592,2.711-0.926,2.808c-0.247-0.088-0.77-1.037-0.77-2.934C369.253,65.364,369.311,63.833,370.049,63.527"/>
		<path clip-path="url(#SVGID_8_)" fill="#A77E2C" d="M370.049,71.897c0.541,0.246,0.977,1.046,0.899,3.171
			c0.01,1.57-0.592,2.711-0.926,2.808c-0.247-0.088-0.77-1.037-0.77-2.934C369.253,73.734,369.311,72.204,370.049,71.897"/>
		<path clip-path="url(#SVGID_8_)" fill="#A77E2C" d="M370.049,80.268c0.541,0.246,0.977,1.046,0.899,3.171
			c0.01,1.57-0.592,2.711-0.926,2.808c-0.247-0.088-0.77-1.037-0.77-2.934C369.253,82.104,369.311,80.574,370.049,80.268"/>
		<path clip-path="url(#SVGID_8_)" fill="#A77E2C" d="M370.049,88.638c0.541,0.246,0.977,1.046,0.899,3.171
			c0.01,1.57-0.592,2.711-0.926,2.808c-0.247-0.088-0.77-1.037-0.77-2.934C369.253,90.474,369.311,88.943,370.049,88.638"/>
		<path clip-path="url(#SVGID_8_)" fill="#A77E2C" d="M370.049,97.009c0.541,0.246,0.977,1.046,0.899,3.171
			c0.01,1.57-0.592,2.711-0.926,2.808c-0.247-0.088-0.77-1.037-0.77-2.934C369.253,98.845,369.311,97.313,370.049,97.009"/>
		<path clip-path="url(#SVGID_8_)" fill="#A77E2C" d="M370.049,105.379c0.541,0.246,0.977,1.046,0.899,3.171
			c0.01,1.57-0.592,2.711-0.926,2.808c-0.247-0.088-0.77-1.037-0.77-2.934C369.253,107.215,369.311,105.685,370.049,105.379"/>
		<path clip-path="url(#SVGID_8_)" fill="#A77E2C" d="M370.049,113.75c0.541,0.246,0.977,1.046,0.899,3.171
			c0.01,1.57-0.592,2.711-0.926,2.808c-0.247-0.088-0.77-1.037-0.77-2.934C369.253,115.585,369.311,114.055,370.049,113.75"/>
		<path clip-path="url(#SVGID_8_)" fill="#A77E2C" d="M370.049,122.12c0.541,0.246,0.977,1.046,0.899,3.171
			c0.01,1.57-0.592,2.711-0.926,2.808c-0.247-0.088-0.77-1.037-0.77-2.934C369.253,123.956,369.311,122.426,370.049,122.12"/>
		<path clip-path="url(#SVGID_8_)" fill="#A77E2C" d="M370.049,130.49c0.541,0.246,0.977,1.046,0.899,3.171
			c0.01,1.57-0.592,2.711-0.926,2.808c-0.247-0.088-0.77-1.037-0.77-2.934C369.253,132.326,369.311,130.796,370.049,130.49"/>
		<path clip-path="url(#SVGID_8_)" fill="#A77E2C" d="M370.049,138.86c0.541,0.246,0.977,1.046,0.899,3.171
			c0.01,1.57-0.592,2.711-0.926,2.808c-0.247-0.088-0.77-1.037-0.77-2.934C369.253,140.696,369.311,139.167,370.049,138.86"/>
		<path clip-path="url(#SVGID_8_)" fill="#A77E2C" d="M370.049,147.23c0.541,0.246,0.977,1.046,0.899,3.171
			c0.01,1.57-0.592,2.711-0.926,2.808c-0.247-0.088-0.77-1.037-0.77-2.934C369.253,149.067,369.311,147.537,370.049,147.23"/>
		<path clip-path="url(#SVGID_8_)" fill="#A77E2C" d="M370.049,155.601c0.541,0.246,0.977,1.046,0.899,3.171
			c0.01,1.57-0.592,2.711-0.926,2.808c-0.247-0.088-0.77-1.037-0.77-2.934C369.253,157.437,369.311,155.907,370.049,155.601"/>
		<path clip-path="url(#SVGID_8_)" fill="#A77E2C" d="M370.049,163.971c0.541,0.246,0.977,1.046,0.899,3.171
			c0.01,1.57-0.592,2.711-0.926,2.808c-0.247-0.088-0.77-1.037-0.77-2.934C369.253,165.807,369.311,164.277,370.049,163.971"/>
		<path clip-path="url(#SVGID_8_)" fill="#A77E2C" d="M370.049,172.341c0.541,0.246,0.977,1.046,0.899,3.171
			c0.01,1.57-0.592,2.711-0.926,2.808c-0.247-0.088-0.77-1.037-0.77-2.934C369.253,174.179,369.311,172.647,370.049,172.341"/>
		<path clip-path="url(#SVGID_8_)" fill="#A77E2C" d="M370.049,180.712c0.541,0.246,0.977,1.046,0.899,3.171
			c0.01,1.57-0.592,2.711-0.926,2.808c-0.247-0.088-0.77-1.037-0.77-2.934C369.253,182.548,369.311,181.018,370.049,180.712"/>
		<path clip-path="url(#SVGID_8_)" fill="#A77E2C" d="M370.049,189.083c0.541,0.246,0.977,1.046,0.899,3.171
			c0.01,1.57-0.592,2.711-0.926,2.808c-0.247-0.088-0.77-1.037-0.77-2.934C369.253,190.918,369.311,189.388,370.049,189.083"/>
		<path clip-path="url(#SVGID_8_)" fill="#A77E2C" d="M370.049,197.453c0.541,0.246,0.977,1.046,0.899,3.171
			c0.01,1.57-0.592,2.711-0.926,2.808c-0.247-0.088-0.77-1.037-0.77-2.934C369.253,199.289,369.311,197.759,370.049,197.453"/>
		<path clip-path="url(#SVGID_8_)" fill="#A77E2C" d="M370.049,205.823c0.541,0.246,0.977,1.046,0.899,3.171
			c0.01,1.57-0.592,2.711-0.926,2.809c-0.247-0.088-0.77-1.037-0.77-2.935C369.253,207.659,369.311,206.128,370.049,205.823"/>
		<path clip-path="url(#SVGID_8_)" fill="#A77E2C" d="M370.049,214.193c0.541,0.246,0.977,1.047,0.899,3.172
			c0.01,1.569-0.592,2.711-0.926,2.808c-0.247-0.088-0.77-1.037-0.77-2.935C369.253,216.029,369.311,214.5,370.049,214.193"/>
		<path clip-path="url(#SVGID_8_)" fill="#A77E2C" d="M370.049,222.564c0.541,0.246,0.977,1.046,0.899,3.171
			c0.01,1.569-0.592,2.711-0.926,2.808c-0.247-0.088-0.77-1.037-0.77-2.934C369.253,224.4,369.311,222.87,370.049,222.564"/>
		<path clip-path="url(#SVGID_8_)" fill="#A77E2C" d="M370.049,230.934c0.541,0.246,0.977,1.046,0.899,3.171
			c0.01,1.57-0.592,2.711-0.926,2.809c-0.247-0.089-0.77-1.037-0.77-2.935C369.253,232.77,369.311,231.24,370.049,230.934"/>
		<path clip-path="url(#SVGID_8_)" fill="#A77E2C" d="M370.049,239.304c0.541,0.246,0.977,1.046,0.899,3.171
			c0.01,1.57-0.592,2.711-0.926,2.809c-0.247-0.089-0.77-1.037-0.77-2.935C369.253,241.14,369.311,239.611,370.049,239.304"/>
		<path clip-path="url(#SVGID_8_)" fill="#A77E2C" d="M370.049,247.674c0.541,0.246,0.977,1.046,0.899,3.171
			c0.01,1.57-0.592,2.711-0.926,2.809c-0.247-0.088-0.77-1.037-0.77-2.935C369.253,249.51,369.311,247.981,370.049,247.674"/>
		<path clip-path="url(#SVGID_8_)" fill="#A77E2C" d="M370.049,256.044c0.541,0.246,0.977,1.047,0.899,3.172
			c0.01,1.569-0.592,2.711-0.926,2.808c-0.247-0.088-0.77-1.037-0.77-2.934C369.253,257.881,369.311,256.351,370.049,256.044"/>
		<path clip-path="url(#SVGID_8_)" fill="#A77E2C" d="M370.049,264.416c0.541,0.246,0.977,1.046,0.899,3.171
			c0.01,1.569-0.592,2.711-0.926,2.808c-0.247-0.088-0.77-1.037-0.77-2.934C369.253,266.251,369.311,264.721,370.049,264.416"/>
		<path clip-path="url(#SVGID_8_)" fill="#A77E2C" d="M370.049,272.786c0.541,0.246,0.977,1.046,0.899,3.171
			c0.01,1.57-0.592,2.711-0.926,2.808c-0.247-0.088-0.77-1.036-0.77-2.934C369.253,274.622,369.311,273.091,370.049,272.786"/>
		<path clip-path="url(#SVGID_8_)" fill="#A77E2C" d="M370.049,281.156c0.541,0.246,0.977,1.046,0.899,3.171
			c0.01,1.57-0.592,2.711-0.926,2.809c-0.247-0.088-0.77-1.037-0.77-2.935C369.253,282.992,369.311,281.462,370.049,281.156"/>
		<path clip-path="url(#SVGID_8_)" fill="#A77E2C" d="M370.049,289.526c0.541,0.246,0.977,1.046,0.899,3.171
			c0.01,1.57-0.592,2.712-0.926,2.809c-0.247-0.088-0.77-1.037-0.77-2.935C369.253,291.362,369.311,289.833,370.049,289.526"/>
		<path clip-path="url(#SVGID_8_)" fill="#A77E2C" d="M370.049,297.897c0.541,0.245,0.977,1.046,0.899,3.171
			c0.01,1.569-0.592,2.711-0.926,2.808c-0.247-0.088-0.77-1.037-0.77-2.934C369.253,299.733,369.311,298.203,370.049,297.897"/>
		<path clip-path="url(#SVGID_8_)" fill="#A77E2C" d="M370.049,306.267c0.541,0.246,0.977,1.046,0.899,3.171
			c0.01,1.57-0.592,2.711-0.926,2.808c-0.247-0.088-0.77-1.037-0.77-2.934C369.253,308.103,369.311,306.573,370.049,306.267"/>
		<path clip-path="url(#SVGID_8_)" fill="#A77E2C" d="M370.049,314.637c0.541,0.246,0.977,1.046,0.899,3.171
			c0.01,1.57-0.592,2.711-0.926,2.809c-0.247-0.089-0.77-1.037-0.77-2.935C369.253,316.473,369.311,314.943,370.049,314.637"/>
		<path clip-path="url(#SVGID_8_)" fill="#A77E2C" d="M370.049,323.007c0.541,0.246,0.977,1.046,0.899,3.171
			c0.01,1.57-0.592,2.712-0.926,2.809c-0.247-0.088-0.77-1.037-0.77-2.935C369.253,324.843,369.311,323.314,370.049,323.007"/>
		<path clip-path="url(#SVGID_8_)" fill="#A77E2C" d="M370.049,331.378c0.541,0.245,0.977,1.046,0.899,3.171
			c0.01,1.569-0.592,2.711-0.926,2.808c-0.247-0.088-0.77-1.037-0.77-2.934C369.253,333.214,369.311,331.684,370.049,331.378"/>
		<path clip-path="url(#SVGID_8_)" fill="#A77E2C" d="M370.049,339.749c0.541,0.246,0.977,1.046,0.899,3.171
			c0.01,1.57-0.592,2.711-0.926,2.808c-0.247-0.088-0.77-1.037-0.77-2.934C369.253,341.584,369.311,340.054,370.049,339.749"/>
		<path clip-path="url(#SVGID_8_)" fill="#A77E2C" d="M370.049,348.119c0.541,0.246,0.977,1.046,0.899,3.171
			c0.01,1.57-0.592,2.711-0.926,2.808c-0.247-0.088-0.77-1.037-0.77-2.934C369.253,349.955,369.311,348.424,370.049,348.119"/>
		<path clip-path="url(#SVGID_8_)" fill="#A77E2C" d="M370.049,356.489c0.541,0.246,0.977,1.046,0.899,3.171
			c0.01,1.57-0.592,2.711-0.926,2.809c-0.247-0.088-0.77-1.037-0.77-2.935C369.253,358.325,369.311,356.795,370.049,356.489"/>
		<path clip-path="url(#SVGID_8_)" fill="#A77E2C" d="M370.049,364.859c0.541,0.246,0.977,1.046,0.899,3.171
			c0.01,1.57-0.592,2.712-0.926,2.809c-0.247-0.088-0.77-1.037-0.77-2.935C369.253,366.695,369.311,365.166,370.049,364.859"/>
		<path clip-path="url(#SVGID_8_)" fill="#A77E2C" d="M370.049,373.23c0.541,0.245,0.977,1.046,0.899,3.171
			c0.01,1.569-0.592,2.711-0.926,2.808c-0.247-0.088-0.77-1.037-0.77-2.934C369.253,375.066,369.311,373.536,370.049,373.23"/>
		<path clip-path="url(#SVGID_8_)" fill="#A77E2C" d="M370.049,381.6c0.541,0.246,0.977,1.046,0.899,3.171
			c0.01,1.57-0.592,2.711-0.926,2.808c-0.247-0.088-0.77-1.037-0.77-2.934C369.253,383.436,369.311,381.906,370.049,381.6"/>
	</g>
</g>
<rect x="64.291" y="150.968" fill="#1B2E37" width="134.667" height="129.333"/>
<rect x="64.291" y="150.968" fill="none" stroke="#14232A" stroke-width="4.952" stroke-miterlimit="10" width="134.667" height="129.333"/>
<line fill="none" stroke="#14232A" stroke-width="4.968" stroke-miterlimit="10" x1="18.635" y1="112.907" x2="360.606" y2="112.907"/>
<g opacity="0.5">
	<g>
		<defs>
			<rect id="SVGID_9_" x="372.955" y="104.113" width="88.106" height="1.705"/>
		</defs>
		<clipPath id="SVGID_10_">
			<use xlink:href="#SVGID_9_"  overflow="visible"/>
		</clipPath>
		<path clip-path="url(#SVGID_10_)" fill="#A77E2C" d="M372.956,105.022c0.242-0.541,1.028-0.977,3.115-0.899
			c1.543-0.01,2.663,0.591,2.759,0.925c-0.086,0.247-1.02,0.77-2.883,0.77C374.759,105.818,373.255,105.76,372.956,105.022"/>
		<path clip-path="url(#SVGID_10_)" fill="#A77E2C" d="M381.178,105.022c0.242-0.541,1.028-0.977,3.115-0.899
			c1.543-0.01,2.663,0.591,2.759,0.925c-0.086,0.247-1.019,0.77-2.883,0.77C382.983,105.818,381.479,105.76,381.178,105.022"/>
		<path clip-path="url(#SVGID_10_)" fill="#A77E2C" d="M389.402,105.022c0.242-0.541,1.028-0.977,3.115-0.899
			c1.543-0.01,2.663,0.591,2.759,0.925c-0.086,0.247-1.02,0.77-2.883,0.77C391.206,105.818,389.702,105.76,389.402,105.022"/>
		<path clip-path="url(#SVGID_10_)" fill="#A77E2C" d="M397.625,105.022c0.242-0.541,1.028-0.977,3.115-0.899
			c1.543-0.01,2.663,0.591,2.759,0.925c-0.086,0.247-1.019,0.77-2.883,0.77C399.429,105.818,397.925,105.76,397.625,105.022"/>
		<path clip-path="url(#SVGID_10_)" fill="#A77E2C" d="M405.848,105.022c0.242-0.541,1.028-0.977,3.115-0.899
			c1.543-0.01,2.663,0.591,2.759,0.925c-0.086,0.247-1.02,0.77-2.883,0.77C407.652,105.818,406.148,105.76,405.848,105.022"/>
		<path clip-path="url(#SVGID_10_)" fill="#A77E2C" d="M414.071,105.022c0.242-0.541,1.028-0.977,3.115-0.899
			c1.543-0.01,2.663,0.591,2.759,0.925c-0.086,0.247-1.019,0.77-2.883,0.77C415.875,105.818,414.372,105.76,414.071,105.022"/>
		<path clip-path="url(#SVGID_10_)" fill="#A77E2C" d="M422.294,105.022c0.242-0.541,1.028-0.977,3.115-0.899
			c1.543-0.01,2.663,0.591,2.759,0.925c-0.086,0.247-1.02,0.77-2.883,0.77C424.098,105.818,422.594,105.76,422.294,105.022"/>
		<path clip-path="url(#SVGID_10_)" fill="#A77E2C" d="M430.517,105.022c0.242-0.541,1.028-0.977,3.115-0.899
			c1.543-0.01,2.663,0.591,2.759,0.925c-0.086,0.247-1.019,0.77-2.883,0.77C432.322,105.818,430.818,105.76,430.517,105.022"/>
		<path clip-path="url(#SVGID_10_)" fill="#A77E2C" d="M438.741,105.022c0.242-0.541,1.027-0.977,3.115-0.899
			c1.543-0.01,2.663,0.591,2.759,0.925c-0.086,0.247-1.02,0.77-2.884,0.77C440.544,105.818,439.041,105.76,438.741,105.022"/>
		<path clip-path="url(#SVGID_10_)" fill="#A77E2C" d="M446.963,105.022c0.242-0.541,1.028-0.977,3.115-0.899
			c1.543-0.01,2.664,0.591,2.759,0.925c-0.086,0.247-1.019,0.77-2.883,0.77C448.768,105.818,447.264,105.76,446.963,105.022"/>
		<path clip-path="url(#SVGID_10_)" fill="#A77E2C" d="M455.187,105.022c0.241-0.541,1.027-0.977,3.114-0.899
			c1.543-0.01,2.664,0.591,2.76,0.925c-0.086,0.247-1.02,0.77-2.883,0.77C456.991,105.818,455.487,105.76,455.187,105.022"/>
	</g>
</g>
<g opacity="0.5">
	<g>
		<defs>
			<rect id="SVGID_11_" x="372.955" y="6.114" width="88.106" height="1.704"/>
		</defs>
		<clipPath id="SVGID_12_">
			<use xlink:href="#SVGID_11_"  overflow="visible"/>
		</clipPath>
		<path clip-path="url(#SVGID_12_)" fill="#A77E2C" d="M372.956,7.022c0.242-0.541,1.028-0.977,3.115-0.899
			c1.543-0.01,2.663,0.591,2.759,0.925c-0.086,0.247-1.02,0.77-2.883,0.77C374.759,7.818,373.255,7.76,372.956,7.022"/>
		<path clip-path="url(#SVGID_12_)" fill="#A77E2C" d="M381.178,7.022c0.242-0.541,1.028-0.977,3.115-0.899
			c1.543-0.01,2.663,0.591,2.759,0.925c-0.086,0.247-1.019,0.77-2.883,0.77C382.983,7.818,381.479,7.76,381.178,7.022"/>
		<path clip-path="url(#SVGID_12_)" fill="#A77E2C" d="M389.402,7.022c0.242-0.541,1.028-0.977,3.115-0.899
			c1.543-0.01,2.663,0.591,2.759,0.925c-0.086,0.247-1.02,0.77-2.883,0.77C391.206,7.818,389.702,7.76,389.402,7.022"/>
		<path clip-path="url(#SVGID_12_)" fill="#A77E2C" d="M397.625,7.022c0.242-0.541,1.028-0.977,3.115-0.899
			c1.543-0.01,2.663,0.591,2.759,0.925c-0.086,0.247-1.019,0.77-2.883,0.77C399.429,7.818,397.925,7.76,397.625,7.022"/>
		<path clip-path="url(#SVGID_12_)" fill="#A77E2C" d="M405.848,7.022c0.242-0.541,1.028-0.977,3.115-0.899
			c1.543-0.01,2.663,0.591,2.759,0.925c-0.086,0.247-1.02,0.77-2.883,0.77C407.652,7.818,406.148,7.76,405.848,7.022"/>
		<path clip-path="url(#SVGID_12_)" fill="#A77E2C" d="M414.071,7.022c0.242-0.541,1.028-0.977,3.115-0.899
			c1.543-0.01,2.663,0.591,2.759,0.925c-0.086,0.247-1.019,0.77-2.883,0.77C415.875,7.818,414.372,7.76,414.071,7.022"/>
		<path clip-path="url(#SVGID_12_)" fill="#A77E2C" d="M422.294,7.022c0.242-0.541,1.028-0.977,3.115-0.899
			c1.543-0.01,2.663,0.591,2.759,0.925c-0.086,0.247-1.02,0.77-2.883,0.77C424.098,7.818,422.594,7.76,422.294,7.022"/>
		<path clip-path="url(#SVGID_12_)" fill="#A77E2C" d="M430.517,7.022c0.242-0.541,1.028-0.977,3.115-0.899
			c1.543-0.01,2.663,0.591,2.759,0.925c-0.086,0.247-1.019,0.77-2.883,0.77C432.322,7.818,430.818,7.76,430.517,7.022"/>
		<path clip-path="url(#SVGID_12_)" fill="#A77E2C" d="M438.741,7.022c0.242-0.541,1.027-0.977,3.115-0.899
			c1.543-0.01,2.663,0.591,2.759,0.925c-0.086,0.247-1.02,0.77-2.884,0.77C440.544,7.818,439.041,7.76,438.741,7.022"/>
		<path clip-path="url(#SVGID_12_)" fill="#A77E2C" d="M446.963,7.022c0.242-0.541,1.028-0.977,3.115-0.899
			c1.543-0.01,2.664,0.591,2.759,0.925c-0.086,0.247-1.019,0.77-2.883,0.77C448.768,7.818,447.264,7.76,446.963,7.022"/>
		<path clip-path="url(#SVGID_12_)" fill="#A77E2C" d="M455.187,7.022c0.241-0.541,1.027-0.977,3.114-0.899
			c1.543-0.01,2.664,0.591,2.76,0.925c-0.086,0.247-1.02,0.77-2.883,0.77C456.991,7.818,455.487,7.76,455.187,7.022"/>
	</g>
</g>
<line fill="none" stroke="#14232A" stroke-width="4.968" stroke-miterlimit="10" x1="369.635" y1="112.907" x2="463.407" y2="112.907"/>
<path fill="#1B2E37" d="M361.333,393.702V3.068V393.702z"/>
<line fill="none" stroke="#14232A" stroke-width="4.952" stroke-miterlimit="10" x1="361.332" y1="393.702" x2="361.332" y2="3.068"/>
<path fill="#A79D82" d="M448.631,55.327c0,11.837-9.595,21.432-21.432,21.432c-11.836,0-21.433-9.595-21.433-21.432
	s9.597-21.432,21.433-21.432C439.037,33.895,448.631,43.49,448.631,55.327"/>
<path fill="#A79D82" d="M89.625,166.968c0,4.05-3.283,7.333-7.333,7.333c-4.05,0-7.334-3.283-7.334-7.333
	c0-4.05,3.284-7.333,7.334-7.333C86.341,159.635,89.625,162.918,89.625,166.968"/>
<g opacity="0.6">
	<g>
		<defs>
			<rect id="SVGID_13_" x="58.524" y="251.974" width="83.722" height="29.713"/>
		</defs>
		<clipPath id="SVGID_14_">
			<use xlink:href="#SVGID_13_"  overflow="visible"/>
		</clipPath>
		<pattern  id="SVGID_15_" xlink:href="#Unnamed_Pattern_1" patternTransform="matrix(0 0.3258 0.3258 0 -12111.2314 -4781.6074)">
		</pattern>
		<path clip-path="url(#SVGID_14_)" fill="url(#SVGID_15_)" d="M142.246,277.035v-25.061H58.523v25.061
			c0,2.559,2.094,4.652,4.653,4.652h74.416C140.151,281.687,142.246,279.593,142.246,277.035"/>
	</g>
</g>
<rect x="95.608" y="230.777" fill="none" stroke="#FFFFFF" stroke-width="0.219" stroke-miterlimit="10" width="1.634" height="0.985"/>
<line fill="none" stroke="#FFFFFF" stroke-width="0.219" stroke-miterlimit="10" x1="95.609" y1="232.312" x2="95.609" y2="232.677"/>
<path fill="#1B2E37" d="M272.194,115.382h-90.378c0,73.904-77.521,133.707-173.324,133.707l-7.548,145.96h271.25V115.382z"/>
<path fill="none" stroke="#14232A" stroke-width="4.952" stroke-miterlimit="10" d="M181.816,115.382
	c0,73.904-77.522,133.707-173.324,133.707"/>
<g opacity="0.5">
	<g>
		<defs>
			<rect id="SVGID_16_" x="10.852" y="117.741" width="183.329" height="141.098"/>
		</defs>
		<clipPath id="SVGID_17_">
			<use xlink:href="#SVGID_16_"  overflow="visible"/>
		</clipPath>
		<path clip-path="url(#SVGID_17_)" fill="#A77D2C" d="M193.354,117.741c0.533,0.253,0.943,1.06,0.796,3.171
			c-0.023,0.781-0.186,1.446-0.402,1.922c-0.238,0.475-0.501,0.762-0.672,0.797c-0.119-0.052-0.286-0.321-0.401-0.806
			c-0.128-0.486-0.249-1.191-0.215-2.12C192.5,119.522,192.606,118.028,193.354,117.741"/>
		<path clip-path="url(#SVGID_17_)" fill="#A77D2C" d="M192.871,125.981c0.515,0.291,0.87,1.127,0.586,3.224
			c-0.13,1.56-0.99,2.58-1.311,2.627c-0.115-0.061-0.264-0.341-0.347-0.835c-0.081-0.493-0.084-1.196-0.013-2.123
			C191.902,127.696,192.106,126.212,192.871,125.981"/>
		<path clip-path="url(#SVGID_17_)" fill="#A77D2C" d="M191.789,134.164c0.49,0.328,0.802,1.192,0.366,3.261
			c-0.343,1.526-1.184,2.5-1.531,2.518c-0.222-0.14-0.522-1.161-0.104-2.969C190.713,135.805,191.012,134.338,191.789,134.164"/>
		<path clip-path="url(#SVGID_17_)" fill="#A77D2C" d="M190.118,142.247c0.235,0.183,0.414,0.494,0.464,1.015
			c0.056,0.522-0.016,1.256-0.374,2.253c-0.438,1.502-1.338,2.415-1.685,2.408c-0.211-0.155-0.445-1.198,0.086-2.977
			C188.988,143.822,189.314,142.36,190.118,142.247"/>
		<path clip-path="url(#SVGID_17_)" fill="#A77D2C" d="M187.873,150.191c0.222,0.2,0.38,0.523,0.398,1.048
			c-0.008,0.516-0.177,1.227-0.577,2.206c-0.531,1.471-1.484,2.322-1.828,2.291c-0.201-0.17-0.368-1.23,0.272-2.973
			C186.561,151.656,187.11,150.262,187.873,150.191"/>
		<path clip-path="url(#SVGID_17_)" fill="#A77D2C" d="M185.067,157.957c0.404,0.424,0.489,1.318-0.431,3.224
			c-0.619,1.436-1.619,2.223-1.96,2.168c-0.189-0.184-0.291-1.256,0.455-2.957C183.606,159.307,184.261,157.958,185.067,157.957"/>
		<path clip-path="url(#SVGID_17_)" fill="#A77D2C" d="M181.69,165.492c0.376,0.451,0.406,1.352-0.624,3.2
			c-0.703,1.396-1.746,2.118-2.082,2.041c-0.177-0.196-0.213-1.276,0.632-2.931C180.156,166.747,180.889,165.438,181.69,165.492"/>
		<path clip-path="url(#SVGID_17_)" fill="#A77D2C" d="M177.826,172.788c0.348,0.476,0.324,1.38-0.811,3.164
			c-0.39,0.676-0.856,1.18-1.265,1.501c-0.422,0.313-0.796,0.438-0.961,0.39c-0.082-0.102-0.1-0.416,0.022-0.902
			c0.104-0.498,0.345-1.168,0.815-1.971C176.224,173.947,177.032,172.684,177.826,172.788"/>
		<path clip-path="url(#SVGID_17_)" fill="#A77D2C" d="M173.506,179.823c0.318,0.498,0.242,1.402-0.99,3.118
			c-0.83,1.325-2.054,1.84-2.364,1.732c-0.17-0.23,0.036-1.232,1.038-2.799C171.845,180.887,172.722,179.67,173.506,179.823"/>
		<path clip-path="url(#SVGID_17_)" fill="#A77D2C" d="M168.764,186.581c0.289,0.517,0.162,1.418-1.161,3.064
			c-0.96,1.23-2.171,1.705-2.484,1.572c-0.144-0.231,0.075-1.255,1.223-2.717C167.05,187.549,167.992,186.382,168.764,186.581"/>
		<path clip-path="url(#SVGID_17_)" fill="#A77D2C" d="M163.631,193.048c0.253,0.528,0.098,1.441-1.339,2.988
			c-1.05,1.154-2.261,1.582-2.572,1.426c-0.123-0.231,0.123-1.269,1.383-2.637C161.88,193.93,162.87,192.801,163.631,193.048"/>
		<path clip-path="url(#SVGID_17_)" fill="#A77D2C" d="M158.141,199.215c0.213,0.532,0.044,1.469-1.516,2.896
			c-1.106,1.1-2.335,1.465-2.636,1.293c-0.111-0.238,0.187-1.265,1.515-2.568C156.373,200.027,157.384,198.917,158.141,199.215"/>
		<path clip-path="url(#SVGID_17_)" fill="#A77D2C" d="M152.323,205.075c0.188,0.548-0.033,1.47-1.678,2.798
			c-1.159,1.045-2.402,1.349-2.694,1.161c-0.099-0.243,0.251-1.255,1.641-2.493C150.496,205.771,151.6,204.755,152.323,205.075"/>
		<path clip-path="url(#SVGID_17_)" fill="#A77D2C" d="M146.206,210.623c0.174,0.573-0.125,1.447-1.827,2.699
			c-1.206,0.988-2.461,1.23-2.743,1.03c-0.087-0.248,0.311-1.243,1.758-2.414c0.462-0.373,0.994-0.785,1.5-1.058
			C145.39,210.597,145.851,210.442,146.206,210.623"/>
		<path clip-path="url(#SVGID_17_)" fill="#A77D2C" d="M139.817,215.857c0.151,0.588-0.212,1.416-1.963,2.598
			c-1.25,0.931-2.514,1.115-2.786,0.9c-0.075-0.252,0.369-1.228,1.87-2.33C137.895,216.322,139.144,215.482,139.817,215.857"/>
		<path clip-path="url(#SVGID_17_)" fill="#A77D2C" d="M133.182,220.775c0.125,0.598-0.292,1.387-2.087,2.495
			c-1.291,0.874-2.562,1.001-2.823,0.774c-0.063-0.256,0.425-1.211,1.974-2.246C131.229,221.133,132.525,220.367,133.182,220.775"/>
		<path clip-path="url(#SVGID_17_)" fill="#A77D2C" d="M126.324,225.376c0.093,0.596-0.359,1.365-2.201,2.396
			c-1.328,0.815-2.602,0.886-2.853,0.647c-0.052-0.258,0.479-1.191,2.072-2.156C124.355,225.645,125.677,224.925,126.324,225.376"/>
		<path clip-path="url(#SVGID_17_)" fill="#A77D2C" d="M119.265,229.665c0.062,0.593-0.42,1.347-2.305,2.294
			c-1.362,0.758-2.638,0.772-2.879,0.523c-0.04-0.26,0.531-1.17,2.164-2.064C117.286,229.845,118.635,229.177,119.265,229.665"/>
		<path clip-path="url(#SVGID_17_)" fill="#A77D2C" d="M112.024,233.64c0.037,0.594-0.477,1.328-2.4,2.193
			c-1.392,0.699-2.668,0.66-2.898,0.401c-0.03-0.261,0.579-1.146,2.249-1.972C110.039,233.736,111.417,233.126,112.024,233.64"/>
		<path clip-path="url(#SVGID_17_)" fill="#A77D2C" d="M104.622,237.304c0.016,0.603-0.53,1.309-2.487,2.096
			c-1.42,0.641-2.694,0.547-2.913,0.279c-0.019-0.262,0.625-1.12,2.329-1.875C102.634,237.319,104.039,236.774,104.622,237.304"/>
		<path clip-path="url(#SVGID_17_)" fill="#A77D2C" d="M97.074,240.66c-0.006,0.609-0.579,1.296-2.567,1.999
			c-1.445,0.581-2.715,0.436-2.923,0.159c-0.009-0.262,0.67-1.092,2.404-1.777C95.09,240.597,96.52,240.123,97.074,240.66"/>
		<path clip-path="url(#SVGID_17_)" fill="#A77D2C" d="M89.397,243.708c-0.032,0.605-0.621,1.295-2.641,1.904
			c-1.467,0.522-2.731,0.326-2.929,0.041c0.002-0.262,0.714-1.063,2.474-1.677C87.425,243.589,88.864,243.148,89.397,243.708"/>
		<path clip-path="url(#SVGID_17_)" fill="#A77D2C" d="M81.608,246.456c-0.059,0.592-0.664,1.29-2.709,1.811
			c-1.487,0.462-2.742,0.216-2.929-0.076c0.011-0.262,0.753-1.034,2.537-1.576c0.569-0.173,1.217-0.354,1.789-0.417
			C80.86,246.115,81.349,246.154,81.608,246.456"/>
		<path clip-path="url(#SVGID_17_)" fill="#A77D2C" d="M73.719,248.901c-0.086,0.571-0.706,1.285-2.771,1.722
			c-1.505,0.401-2.751,0.105-2.927-0.193c0.022-0.261,0.793-1.003,2.597-1.473C71.774,248.678,73.223,248.278,73.719,248.901"/>
		<path clip-path="url(#SVGID_17_)" fill="#A77D2C" d="M65.744,251.049c-0.106,0.571-0.758,1.241-2.829,1.634
			c-1.519,0.342-2.754-0.004-2.919-0.31c0.031-0.259,0.829-0.97,2.651-1.368C63.81,250.76,65.269,250.398,65.744,251.049"/>
		<path clip-path="url(#SVGID_17_)" fill="#A77D2C" d="M57.696,252.904c-0.125,0.579-0.809,1.181-2.884,1.547
			c-1.53,0.282-2.753-0.111-2.907-0.423c0.041-0.258,0.865-0.935,2.701-1.263C55.767,252.511,57.248,252.247,57.696,252.904"/>
		<path clip-path="url(#SVGID_17_)" fill="#A77D2C" d="M49.586,254.467c-0.145,0.574-0.852,1.143-2.938,1.436
			c-1.532,0.278-2.747-0.203-2.887-0.508c0.047-0.271,0.903-0.868,2.74-1.188C47.671,253.999,49.162,253.792,49.586,254.467"/>
		<path clip-path="url(#SVGID_17_)" fill="#A77D2C" d="M41.427,255.743c-0.166,0.568-0.893,1.108-2.989,1.318
			c-1.539,0.24-2.732-0.259-2.864-0.584c0.058-0.256,0.932-0.843,2.777-1.114C39.529,255.2,41.026,255.052,41.427,255.743"/>
		<path clip-path="url(#SVGID_17_)" fill="#A77D2C" d="M33.228,256.733c-0.186,0.562-0.931,1.072-3.034,1.2
			c-1.549,0.161-2.72-0.325-2.84-0.653c0.067-0.25,0.956-0.866,2.812-1.047C31.349,256.118,32.852,256.029,33.228,256.733"/>
		<path clip-path="url(#SVGID_17_)" fill="#A77D2C" d="M24.999,257.444c-0.205,0.554-0.968,1.035-3.075,1.081
			c-1.553,0.1-2.707-0.435-2.816-0.762c0.076-0.252,0.985-0.829,2.847-0.938C23.142,256.754,24.647,256.725,24.999,257.444"/>
		<path clip-path="url(#SVGID_17_)" fill="#A77D2C" d="M16.751,257.877c-0.224,0.545-1.003,0.996-3.11,0.96
			c-1.556,0.04-2.692-0.539-2.789-0.871c0.084-0.249,1.013-0.79,2.878-0.827C14.918,257.117,16.424,257.145,16.751,257.877"/>
	</g>
</g>
<path fill="#A79D82" d="M204.464,126.563c0,4.05-3.283,7.333-7.333,7.333c-4.05,0-7.334-3.283-7.334-7.333
	c0-4.05,3.284-7.333,7.334-7.333C201.181,119.23,204.464,122.513,204.464,126.563"/>
<path fill="#A79D82" d="M26.477,261.554c0,4.05-3.283,7.333-7.333,7.333c-4.05,0-7.334-3.283-7.334-7.333s3.284-7.333,7.334-7.333
	C23.194,254.221,26.477,257.504,26.477,261.554"/>
<rect x="233.815" y="3.174" fill="#1B2E37" width="27.237" height="130.231"/>
<rect x="233.815" y="3.174" fill="none" stroke="#14232A" stroke-width="6.349" stroke-linecap="round" stroke-linejoin="round" stroke-miterlimit="10" width="27.237" height="130.231"/>
<g opacity="0.5">
	<g>
		<defs>
			<rect id="SVGID_18_" x="254.195" y="5.609" width="1.704" height="125.362"/>
		</defs>
		<clipPath id="SVGID_19_">
			<use xlink:href="#SVGID_18_"  overflow="visible"/>
		</clipPath>
		<path clip-path="url(#SVGID_19_)" fill="#A77E2C" d="M255.103,130.972c-0.541-0.251-0.977-1.065-0.899-3.228
			c-0.01-1.598,0.592-2.759,0.926-2.858c0.247,0.089,0.77,1.056,0.77,2.987C255.899,129.103,255.841,130.661,255.103,130.972"/>
		<path clip-path="url(#SVGID_19_)" fill="#A77E2C" d="M255.103,122.452c-0.541-0.251-0.977-1.065-0.899-3.228
			c-0.01-1.598,0.592-2.759,0.926-2.858c0.247,0.089,0.77,1.056,0.77,2.987C255.899,120.583,255.841,122.141,255.103,122.452"/>
		<path clip-path="url(#SVGID_19_)" fill="#A77E2C" d="M255.103,113.932c-0.541-0.25-0.977-1.065-0.899-3.228
			c-0.01-1.598,0.592-2.759,0.926-2.858c0.247,0.089,0.77,1.056,0.77,2.987C255.899,112.063,255.841,113.621,255.103,113.932"/>
		<path clip-path="url(#SVGID_19_)" fill="#A77E2C" d="M255.103,105.412c-0.541-0.25-0.977-1.065-0.899-3.228
			c-0.01-1.598,0.592-2.759,0.926-2.858c0.247,0.089,0.77,1.056,0.77,2.987C255.899,103.543,255.841,105.101,255.103,105.412"/>
		<path clip-path="url(#SVGID_19_)" fill="#A77E2C" d="M255.103,96.893c-0.541-0.251-0.977-1.065-0.899-3.228
			c-0.01-1.598,0.592-2.759,0.926-2.858c0.247,0.089,0.77,1.056,0.77,2.987C255.899,95.023,255.841,96.582,255.103,96.893"/>
		<path clip-path="url(#SVGID_19_)" fill="#A77E2C" d="M255.103,88.373c-0.541-0.251-0.977-1.065-0.899-3.228
			c-0.01-1.598,0.592-2.759,0.926-2.858c0.247,0.089,0.77,1.056,0.77,2.987C255.899,86.504,255.841,88.062,255.103,88.373"/>
		<path clip-path="url(#SVGID_19_)" fill="#A77E2C" d="M255.103,79.853c-0.541-0.251-0.977-1.065-0.899-3.228
			c-0.01-1.598,0.592-2.759,0.926-2.858c0.247,0.089,0.77,1.056,0.77,2.987C255.899,77.984,255.841,79.542,255.103,79.853"/>
		<path clip-path="url(#SVGID_19_)" fill="#A77E2C" d="M255.103,71.333c-0.541-0.25-0.977-1.065-0.899-3.228
			c-0.01-1.598,0.592-2.759,0.926-2.858c0.247,0.089,0.77,1.056,0.77,2.987C255.899,69.464,255.841,71.022,255.103,71.333"/>
		<path clip-path="url(#SVGID_19_)" fill="#A77E2C" d="M255.103,62.813c-0.541-0.251-0.977-1.064-0.899-3.228
			c-0.01-1.598,0.592-2.759,0.926-2.858c0.247,0.089,0.77,1.056,0.77,2.987C255.899,60.944,255.841,62.502,255.103,62.813"/>
		<path clip-path="url(#SVGID_19_)" fill="#A77E2C" d="M255.103,54.293c-0.541-0.251-0.977-1.065-0.899-3.228
			c-0.01-1.598,0.592-2.759,0.926-2.858c0.247,0.089,0.77,1.056,0.77,2.987C255.899,52.424,255.841,53.982,255.103,54.293"/>
		<path clip-path="url(#SVGID_19_)" fill="#A77E2C" d="M255.103,45.773c-0.541-0.251-0.977-1.065-0.899-3.228
			c-0.01-1.598,0.592-2.759,0.926-2.858c0.247,0.089,0.77,1.056,0.77,2.987C255.899,43.905,255.841,45.462,255.103,45.773"/>
		<path clip-path="url(#SVGID_19_)" fill="#A77E2C" d="M255.103,37.254c-0.541-0.25-0.977-1.065-0.899-3.228
			c-0.01-1.598,0.592-2.759,0.926-2.858c0.247,0.089,0.77,1.056,0.77,2.987C255.899,35.385,255.841,36.943,255.103,37.254"/>
		<path clip-path="url(#SVGID_19_)" fill="#A77E2C" d="M255.103,28.734c-0.541-0.251-0.977-1.065-0.899-3.228
			c-0.01-1.598,0.592-2.759,0.926-2.858c0.247,0.089,0.77,1.056,0.77,2.987C255.899,26.865,255.841,28.423,255.103,28.734"/>
		<path clip-path="url(#SVGID_19_)" fill="#A77E2C" d="M255.103,20.214c-0.541-0.251-0.977-1.065-0.899-3.228
			c-0.01-1.598,0.592-2.759,0.926-2.858c0.247,0.089,0.77,1.056,0.77,2.987C255.899,18.345,255.841,19.903,255.103,20.214"/>
		<path clip-path="url(#SVGID_19_)" fill="#A77E2C" d="M255.103,11.694c-0.541-0.251-0.977-1.065-0.899-3.228
			c-0.01-1.598,0.592-2.759,0.926-2.858c0.247,0.089,0.77,1.056,0.77,2.987C255.899,9.826,255.841,11.383,255.103,11.694"/>
	</g>
</g>
<g opacity="0.5">
	<g>
		<defs>
			<rect id="SVGID_20_" x="238.967" y="5.609" width="1.705" height="125.362"/>
		</defs>
		<clipPath id="SVGID_21_">
			<use xlink:href="#SVGID_20_"  overflow="visible"/>
		</clipPath>
		<path clip-path="url(#SVGID_21_)" fill="#A77E2C" d="M239.763,5.609c0.541,0.251,0.978,1.065,0.899,3.228
			c0.01,1.598-0.591,2.759-0.925,2.858c-0.247-0.089-0.771-1.056-0.771-2.987C238.967,7.478,239.026,5.92,239.763,5.609"/>
		<path clip-path="url(#SVGID_21_)" fill="#A77E2C" d="M239.763,14.128c0.541,0.25,0.978,1.065,0.899,3.228
			c0.01,1.598-0.591,2.759-0.925,2.858c-0.247-0.089-0.771-1.056-0.771-2.987C238.967,15.998,239.026,14.439,239.763,14.128"/>
		<path clip-path="url(#SVGID_21_)" fill="#A77E2C" d="M239.763,22.648c0.541,0.251,0.978,1.065,0.899,3.228
			c0.01,1.598-0.591,2.759-0.925,2.858c-0.247-0.089-0.771-1.056-0.771-2.987C238.967,24.518,239.026,22.959,239.763,22.648"/>
		<path clip-path="url(#SVGID_21_)" fill="#A77E2C" d="M239.763,31.168c0.541,0.251,0.978,1.065,0.899,3.228
			c0.01,1.598-0.591,2.759-0.925,2.858c-0.247-0.089-0.771-1.056-0.771-2.987C238.967,33.037,239.026,31.479,239.763,31.168"/>
		<path clip-path="url(#SVGID_21_)" fill="#A77E2C" d="M239.763,39.688c0.541,0.251,0.978,1.065,0.899,3.228
			c0.01,1.598-0.591,2.759-0.925,2.858c-0.247-0.089-0.771-1.056-0.771-2.987C238.967,41.557,239.026,39.999,239.763,39.688"/>
		<path clip-path="url(#SVGID_21_)" fill="#A77E2C" d="M239.763,48.208c0.541,0.25,0.978,1.065,0.899,3.228
			c0.01,1.598-0.591,2.759-0.925,2.858c-0.247-0.089-0.771-1.056-0.771-2.987C238.967,50.077,239.026,48.519,239.763,48.208"/>
		<path clip-path="url(#SVGID_21_)" fill="#A77E2C" d="M239.763,56.728c0.541,0.25,0.978,1.065,0.899,3.228
			c0.01,1.598-0.591,2.759-0.925,2.858c-0.247-0.089-0.771-1.056-0.771-2.987C238.967,58.597,239.026,57.039,239.763,56.728"/>
		<path clip-path="url(#SVGID_21_)" fill="#A77E2C" d="M239.763,65.248c0.541,0.251,0.978,1.065,0.899,3.228
			c0.01,1.598-0.591,2.759-0.925,2.858c-0.247-0.089-0.771-1.056-0.771-2.987C238.967,67.117,239.026,65.559,239.763,65.248"/>
		<path clip-path="url(#SVGID_21_)" fill="#A77E2C" d="M239.763,73.767c0.541,0.251,0.978,1.065,0.899,3.229
			c0.01,1.598-0.591,2.759-0.925,2.858c-0.247-0.089-0.771-1.056-0.771-2.987C238.967,75.636,239.026,74.079,239.763,73.767"/>
		<path clip-path="url(#SVGID_21_)" fill="#A77E2C" d="M239.763,82.287c0.541,0.25,0.978,1.065,0.899,3.228
			c0.01,1.598-0.591,2.759-0.925,2.858c-0.247-0.089-0.771-1.056-0.771-2.987C238.967,84.156,239.026,82.598,239.763,82.287"/>
		<path clip-path="url(#SVGID_21_)" fill="#A77E2C" d="M239.763,90.807c0.541,0.25,0.978,1.065,0.899,3.228
			c0.01,1.598-0.591,2.759-0.925,2.858c-0.247-0.089-0.771-1.056-0.771-2.987C238.967,92.676,239.026,91.118,239.763,90.807"/>
		<path clip-path="url(#SVGID_21_)" fill="#A77E2C" d="M239.763,99.327c0.541,0.251,0.978,1.065,0.899,3.228
			c0.01,1.598-0.591,2.759-0.925,2.858c-0.247-0.089-0.771-1.056-0.771-2.987C238.967,101.196,239.026,99.638,239.763,99.327"/>
		<path clip-path="url(#SVGID_21_)" fill="#A77E2C" d="M239.763,107.846c0.541,0.251,0.978,1.065,0.899,3.229
			c0.01,1.598-0.591,2.759-0.925,2.858c-0.247-0.089-0.771-1.056-0.771-2.987C238.967,109.715,239.026,108.158,239.763,107.846"/>
		<path clip-path="url(#SVGID_21_)" fill="#A77E2C" d="M239.763,116.366c0.541,0.251,0.978,1.065,0.899,3.228
			c0.01,1.598-0.591,2.759-0.925,2.858c-0.247-0.089-0.771-1.056-0.771-2.987C238.967,118.235,239.026,116.677,239.763,116.366"/>
		<path clip-path="url(#SVGID_21_)" fill="#A77E2C" d="M239.763,124.886c0.541,0.25,0.978,1.065,0.899,3.228
			c0.01,1.598-0.591,2.759-0.925,2.858c-0.247-0.089-0.771-1.056-0.771-2.987C238.967,126.755,239.026,125.197,239.763,124.886"/>
	</g>
</g>
<rect x="28.815" y="3.174" fill="#1B2E37" width="27.237" height="130.231"/>
<rect x="28.815" y="3.174" fill="none" stroke="#14232A" stroke-width="6.349" stroke-linecap="round" stroke-linejoin="round" stroke-miterlimit="10" width="27.237" height="130.231"/>
<g opacity="0.5">
	<g>
		<defs>
			<rect id="SVGID_22_" x="49.195" y="5.609" width="1.704" height="125.362"/>
		</defs>
		<clipPath id="SVGID_23_">
			<use xlink:href="#SVGID_22_"  overflow="visible"/>
		</clipPath>
		<path clip-path="url(#SVGID_23_)" fill="#A77E2C" d="M50.103,130.972c-0.541-0.251-0.977-1.065-0.899-3.228
			c-0.01-1.598,0.591-2.759,0.925-2.858c0.247,0.089,0.77,1.056,0.77,2.987C50.899,129.103,50.841,130.661,50.103,130.972"/>
		<path clip-path="url(#SVGID_23_)" fill="#A77E2C" d="M50.103,122.452c-0.541-0.251-0.977-1.065-0.899-3.228
			c-0.01-1.598,0.591-2.759,0.925-2.858c0.247,0.089,0.77,1.056,0.77,2.987C50.899,120.583,50.841,122.141,50.103,122.452"/>
		<path clip-path="url(#SVGID_23_)" fill="#A77E2C" d="M50.103,113.932c-0.541-0.25-0.977-1.065-0.899-3.228
			c-0.01-1.598,0.591-2.759,0.925-2.858c0.247,0.089,0.77,1.056,0.77,2.987C50.899,112.063,50.841,113.621,50.103,113.932"/>
		<path clip-path="url(#SVGID_23_)" fill="#A77E2C" d="M50.103,105.412c-0.541-0.25-0.977-1.065-0.899-3.228
			c-0.01-1.598,0.591-2.759,0.925-2.858c0.247,0.089,0.77,1.056,0.77,2.987C50.899,103.543,50.841,105.101,50.103,105.412"/>
		<path clip-path="url(#SVGID_23_)" fill="#A77E2C" d="M50.103,96.893c-0.541-0.251-0.977-1.065-0.899-3.228
			c-0.01-1.598,0.591-2.759,0.925-2.858c0.247,0.089,0.77,1.056,0.77,2.987C50.899,95.023,50.841,96.582,50.103,96.893"/>
		<path clip-path="url(#SVGID_23_)" fill="#A77E2C" d="M50.103,88.373c-0.541-0.251-0.977-1.065-0.899-3.228
			c-0.01-1.598,0.591-2.759,0.925-2.858c0.247,0.089,0.77,1.056,0.77,2.987C50.899,86.504,50.841,88.062,50.103,88.373"/>
		<path clip-path="url(#SVGID_23_)" fill="#A77E2C" d="M50.103,79.853c-0.541-0.251-0.977-1.065-0.899-3.228
			c-0.01-1.598,0.591-2.759,0.925-2.858c0.247,0.089,0.77,1.056,0.77,2.987C50.899,77.984,50.841,79.542,50.103,79.853"/>
		<path clip-path="url(#SVGID_23_)" fill="#A77E2C" d="M50.103,71.333c-0.541-0.25-0.977-1.065-0.899-3.228
			c-0.01-1.598,0.591-2.759,0.925-2.858c0.247,0.089,0.77,1.056,0.77,2.987C50.899,69.464,50.841,71.022,50.103,71.333"/>
		<path clip-path="url(#SVGID_23_)" fill="#A77E2C" d="M50.103,62.813c-0.541-0.251-0.977-1.064-0.899-3.228
			c-0.01-1.598,0.591-2.759,0.925-2.858c0.247,0.089,0.77,1.056,0.77,2.987C50.899,60.944,50.841,62.502,50.103,62.813"/>
		<path clip-path="url(#SVGID_23_)" fill="#A77E2C" d="M50.103,54.293c-0.541-0.251-0.977-1.065-0.899-3.228
			c-0.01-1.598,0.591-2.759,0.925-2.858c0.247,0.089,0.77,1.056,0.77,2.987C50.899,52.424,50.841,53.982,50.103,54.293"/>
		<path clip-path="url(#SVGID_23_)" fill="#A77E2C" d="M50.103,45.773c-0.541-0.251-0.977-1.065-0.899-3.228
			c-0.01-1.598,0.591-2.759,0.925-2.858c0.247,0.089,0.77,1.056,0.77,2.987C50.899,43.905,50.841,45.462,50.103,45.773"/>
		<path clip-path="url(#SVGID_23_)" fill="#A77E2C" d="M50.103,37.254c-0.541-0.25-0.977-1.065-0.899-3.228
			c-0.01-1.598,0.591-2.759,0.925-2.858c0.247,0.089,0.77,1.056,0.77,2.987C50.899,35.385,50.841,36.943,50.103,37.254"/>
		<path clip-path="url(#SVGID_23_)" fill="#A77E2C" d="M50.103,28.734c-0.541-0.251-0.977-1.065-0.899-3.228
			c-0.01-1.598,0.591-2.759,0.925-2.858c0.247,0.089,0.77,1.056,0.77,2.987C50.899,26.865,50.841,28.423,50.103,28.734"/>
		<path clip-path="url(#SVGID_23_)" fill="#A77E2C" d="M50.103,20.214c-0.541-0.251-0.977-1.065-0.899-3.228
			c-0.01-1.598,0.591-2.759,0.925-2.858c0.247,0.089,0.77,1.056,0.77,2.987C50.899,18.345,50.841,19.903,50.103,20.214"/>
		<path clip-path="url(#SVGID_23_)" fill="#A77E2C" d="M50.103,11.694c-0.541-0.251-0.977-1.065-0.899-3.228
			c-0.01-1.598,0.591-2.759,0.925-2.858c0.247,0.089,0.77,1.056,0.77,2.987C50.899,9.826,50.841,11.383,50.103,11.694"/>
	</g>
</g>
<g opacity="0.5">
	<g>
		<defs>
			<rect id="SVGID_24_" x="33.967" y="5.609" width="1.705" height="125.362"/>
		</defs>
		<clipPath id="SVGID_25_">
			<use xlink:href="#SVGID_24_"  overflow="visible"/>
		</clipPath>
		<path clip-path="url(#SVGID_25_)" fill="#A77E2C" d="M34.764,5.609c0.541,0.251,0.977,1.065,0.899,3.228
			c0.01,1.598-0.591,2.759-0.925,2.858c-0.247-0.089-0.77-1.056-0.77-2.987C33.968,7.478,34.025,5.92,34.764,5.609"/>
		<path clip-path="url(#SVGID_25_)" fill="#A77E2C" d="M34.764,14.128c0.541,0.25,0.977,1.065,0.899,3.228
			c0.01,1.598-0.591,2.759-0.925,2.858c-0.247-0.089-0.77-1.056-0.77-2.987C33.968,15.998,34.025,14.439,34.764,14.128"/>
		<path clip-path="url(#SVGID_25_)" fill="#A77E2C" d="M34.764,22.648c0.541,0.251,0.977,1.065,0.899,3.228
			c0.01,1.598-0.591,2.759-0.925,2.858c-0.247-0.089-0.77-1.056-0.77-2.987C33.968,24.518,34.025,22.959,34.764,22.648"/>
		<path clip-path="url(#SVGID_25_)" fill="#A77E2C" d="M34.764,31.168c0.541,0.251,0.977,1.065,0.899,3.228
			c0.01,1.598-0.591,2.759-0.925,2.858c-0.247-0.089-0.77-1.056-0.77-2.987C33.968,33.037,34.025,31.479,34.764,31.168"/>
		<path clip-path="url(#SVGID_25_)" fill="#A77E2C" d="M34.764,39.688c0.541,0.251,0.977,1.065,0.899,3.228
			c0.01,1.598-0.591,2.759-0.925,2.858c-0.247-0.089-0.77-1.056-0.77-2.987C33.968,41.557,34.025,39.999,34.764,39.688"/>
		<path clip-path="url(#SVGID_25_)" fill="#A77E2C" d="M34.764,48.208c0.541,0.25,0.977,1.065,0.899,3.228
			c0.01,1.598-0.591,2.759-0.925,2.858c-0.247-0.089-0.77-1.056-0.77-2.987C33.968,50.077,34.025,48.519,34.764,48.208"/>
		<path clip-path="url(#SVGID_25_)" fill="#A77E2C" d="M34.764,56.728c0.541,0.25,0.977,1.065,0.899,3.228
			c0.01,1.598-0.591,2.759-0.925,2.858c-0.247-0.089-0.77-1.056-0.77-2.987C33.968,58.597,34.025,57.039,34.764,56.728"/>
		<path clip-path="url(#SVGID_25_)" fill="#A77E2C" d="M34.764,65.248c0.541,0.251,0.977,1.065,0.899,3.228
			c0.01,1.598-0.591,2.759-0.925,2.858c-0.247-0.089-0.77-1.056-0.77-2.987C33.968,67.117,34.025,65.559,34.764,65.248"/>
		<path clip-path="url(#SVGID_25_)" fill="#A77E2C" d="M34.764,73.767c0.541,0.251,0.977,1.065,0.899,3.229
			c0.01,1.598-0.591,2.759-0.925,2.858c-0.247-0.089-0.77-1.056-0.77-2.987C33.968,75.636,34.025,74.079,34.764,73.767"/>
		<path clip-path="url(#SVGID_25_)" fill="#A77E2C" d="M34.764,82.287c0.541,0.25,0.977,1.065,0.899,3.228
			c0.01,1.598-0.591,2.759-0.925,2.858c-0.247-0.089-0.77-1.056-0.77-2.987C33.968,84.156,34.025,82.598,34.764,82.287"/>
		<path clip-path="url(#SVGID_25_)" fill="#A77E2C" d="M34.764,90.807c0.541,0.25,0.977,1.065,0.899,3.228
			c0.01,1.598-0.591,2.759-0.925,2.858c-0.247-0.089-0.77-1.056-0.77-2.987C33.968,92.676,34.025,91.118,34.764,90.807"/>
		<path clip-path="url(#SVGID_25_)" fill="#A77E2C" d="M34.764,99.327c0.541,0.251,0.977,1.065,0.899,3.228
			c0.01,1.598-0.591,2.759-0.925,2.858c-0.247-0.089-0.77-1.056-0.77-2.987C33.968,101.196,34.025,99.638,34.764,99.327"/>
		<path clip-path="url(#SVGID_25_)" fill="#A77E2C" d="M34.764,107.846c0.541,0.251,0.977,1.065,0.899,3.229
			c0.01,1.598-0.591,2.759-0.925,2.858c-0.247-0.089-0.77-1.056-0.77-2.987C33.968,109.715,34.025,108.158,34.764,107.846"/>
		<path clip-path="url(#SVGID_25_)" fill="#A77E2C" d="M34.764,116.366c0.541,0.251,0.977,1.065,0.899,3.228
			c0.01,1.598-0.591,2.759-0.925,2.858c-0.247-0.089-0.77-1.056-0.77-2.987C33.968,118.235,34.025,116.677,34.764,116.366"/>
		<path clip-path="url(#SVGID_25_)" fill="#A77E2C" d="M34.764,124.886c0.541,0.25,0.977,1.065,0.899,3.228
			c0.01,1.598-0.591,2.759-0.925,2.858c-0.247-0.089-0.77-1.056-0.77-2.987C33.968,126.755,34.025,125.197,34.764,124.886"/>
	</g>
</g>
</svg>
