<?xml version="1.0" encoding="utf-8"?>
<!-- Generator: Adobe Illustrator 15.1.0, SVG Export Plug-In . SVG Version: 6.00 Build 0)  -->
<!DOCTYPE svg PUBLIC "-//W3C//DTD SVG 1.1//EN" "http://www.w3.org/Graphics/SVG/1.1/DTD/svg11.dtd">
<svg version="1.1" id="Layer_1" xmlns="http://www.w3.org/2000/svg" xmlns:xlink="http://www.w3.org/1999/xlink" x="0px" y="0px"
	 width="465.731px" height="395.05px" viewBox="0 0 465.731 395.05" enable-background="new 0 0 465.731 395.05"
	 xml:space="preserve">
<path fill="#1B2E37" d="M272.194,115.382h-90.378c0,73.904-77.521,133.708-173.324,133.708L0.944,395.048h271.25V115.382z"/>
<path fill="none" stroke="#14232A" stroke-width="4.952" stroke-miterlimit="10" d="M181.816,115.382
	c0,73.904-77.522,133.708-173.324,133.708"/>
<g opacity="0.5">
	<g>
		<g>
			<defs>
				<rect id="SVGID_1_" x="10.852" y="117.741" width="183.329" height="141.098"/>
			</defs>
			<clipPath id="SVGID_2_">
				<use xlink:href="#SVGID_1_"  overflow="visible"/>
			</clipPath>
			<path clip-path="url(#SVGID_2_)" fill="#A77D2C" d="M193.354,117.741c0.533,0.253,0.943,1.06,0.796,3.171
				c-0.023,0.781-0.186,1.446-0.402,1.922c-0.238,0.475-0.501,0.762-0.672,0.797c-0.119-0.052-0.286-0.321-0.401-0.806
				c-0.128-0.486-0.249-1.191-0.215-2.12C192.5,119.522,192.606,118.028,193.354,117.741"/>
		</g>
		<g>
			<defs>
				<rect id="SVGID_3_" x="10.852" y="117.741" width="183.329" height="141.098"/>
			</defs>
			<clipPath id="SVGID_4_">
				<use xlink:href="#SVGID_3_"  overflow="visible"/>
			</clipPath>
			<path clip-path="url(#SVGID_4_)" fill="#A77D2C" d="M192.871,125.981c0.515,0.291,0.87,1.127,0.586,3.224
				c-0.13,1.56-0.99,2.58-1.311,2.627c-0.115-0.061-0.264-0.341-0.347-0.835c-0.081-0.493-0.084-1.196-0.013-2.123
				C191.902,127.696,192.106,126.212,192.871,125.981"/>
		</g>
		<g>
			<defs>
				<rect id="SVGID_5_" x="10.852" y="117.741" width="183.329" height="141.098"/>
			</defs>
			<clipPath id="SVGID_6_">
				<use xlink:href="#SVGID_5_"  overflow="visible"/>
			</clipPath>
			<path clip-path="url(#SVGID_6_)" fill="#A77D2C" d="M191.789,134.164c0.49,0.328,0.802,1.192,0.366,3.261
				c-0.343,1.526-1.184,2.5-1.531,2.518c-0.222-0.14-0.522-1.161-0.104-2.969C190.713,135.805,191.012,134.338,191.789,134.164"/>
		</g>
		<g>
			<defs>
				<rect id="SVGID_7_" x="10.852" y="117.741" width="183.329" height="141.098"/>
			</defs>
			<clipPath id="SVGID_8_">
				<use xlink:href="#SVGID_7_"  overflow="visible"/>
			</clipPath>
			<path clip-path="url(#SVGID_8_)" fill="#A77D2C" d="M190.118,142.247c0.235,0.183,0.414,0.494,0.464,1.015
				c0.056,0.522-0.016,1.256-0.374,2.253c-0.438,1.502-1.338,2.415-1.685,2.408c-0.211-0.155-0.445-1.198,0.086-2.977
				C188.988,143.822,189.314,142.36,190.118,142.247"/>
		</g>
		<g>
			<defs>
				<rect id="SVGID_9_" x="10.852" y="117.741" width="183.329" height="141.098"/>
			</defs>
			<clipPath id="SVGID_10_">
				<use xlink:href="#SVGID_9_"  overflow="visible"/>
			</clipPath>
			<path clip-path="url(#SVGID_10_)" fill="#A77D2C" d="M187.873,150.191c0.222,0.2,0.38,0.523,0.398,1.048
				c-0.008,0.516-0.177,1.227-0.577,2.206c-0.531,1.471-1.484,2.322-1.828,2.291c-0.201-0.17-0.368-1.23,0.272-2.973
				C186.561,151.656,187.11,150.262,187.873,150.191"/>
		</g>
		<g>
			<defs>
				<rect id="SVGID_11_" x="10.852" y="117.741" width="183.329" height="141.098"/>
			</defs>
			<clipPath id="SVGID_12_">
				<use xlink:href="#SVGID_11_"  overflow="visible"/>
			</clipPath>
			<path clip-path="url(#SVGID_12_)" fill="#A77D2C" d="M185.067,157.957c0.404,0.424,0.489,1.318-0.431,3.224
				c-0.619,1.436-1.619,2.223-1.96,2.168c-0.189-0.184-0.291-1.256,0.455-2.957C183.606,159.307,184.261,157.958,185.067,157.957"/>
		</g>
		<g>
			<defs>
				<rect id="SVGID_13_" x="10.852" y="117.741" width="183.329" height="141.098"/>
			</defs>
			<clipPath id="SVGID_14_">
				<use xlink:href="#SVGID_13_"  overflow="visible"/>
			</clipPath>
			<path clip-path="url(#SVGID_14_)" fill="#A77D2C" d="M181.69,165.492c0.376,0.451,0.406,1.352-0.624,3.2
				c-0.703,1.396-1.746,2.118-2.082,2.041c-0.177-0.196-0.213-1.276,0.632-2.931C180.156,166.747,180.889,165.438,181.69,165.492"/>
		</g>
		<g>
			<defs>
				<rect id="SVGID_15_" x="10.852" y="117.741" width="183.329" height="141.098"/>
			</defs>
			<clipPath id="SVGID_16_">
				<use xlink:href="#SVGID_15_"  overflow="visible"/>
			</clipPath>
			<path clip-path="url(#SVGID_16_)" fill="#A77D2C" d="M177.826,172.788c0.348,0.476,0.324,1.38-0.811,3.164
				c-0.39,0.676-0.856,1.18-1.265,1.501c-0.422,0.313-0.796,0.438-0.961,0.39c-0.082-0.102-0.1-0.416,0.022-0.902
				c0.104-0.498,0.345-1.168,0.815-1.971C176.224,173.947,177.032,172.684,177.826,172.788"/>
		</g>
		<g>
			<defs>
				<rect id="SVGID_17_" x="10.852" y="117.741" width="183.329" height="141.098"/>
			</defs>
			<clipPath id="SVGID_18_">
				<use xlink:href="#SVGID_17_"  overflow="visible"/>
			</clipPath>
			<path clip-path="url(#SVGID_18_)" fill="#A77D2C" d="M173.506,179.823c0.318,0.498,0.242,1.402-0.99,3.118
				c-0.83,1.325-2.054,1.84-2.364,1.732c-0.17-0.23,0.036-1.232,1.038-2.799C171.845,180.887,172.722,179.67,173.506,179.823"/>
		</g>
		<g>
			<defs>
				<rect id="SVGID_19_" x="10.852" y="117.741" width="183.329" height="141.098"/>
			</defs>
			<clipPath id="SVGID_20_">
				<use xlink:href="#SVGID_19_"  overflow="visible"/>
			</clipPath>
			<path clip-path="url(#SVGID_20_)" fill="#A77D2C" d="M168.764,186.581c0.289,0.517,0.162,1.418-1.161,3.064
				c-0.96,1.23-2.171,1.705-2.484,1.572c-0.144-0.231,0.075-1.255,1.223-2.717C167.05,187.549,167.992,186.382,168.764,186.581"/>
		</g>
		<g>
			<defs>
				<rect id="SVGID_21_" x="10.852" y="117.741" width="183.329" height="141.098"/>
			</defs>
			<clipPath id="SVGID_22_">
				<use xlink:href="#SVGID_21_"  overflow="visible"/>
			</clipPath>
			<path clip-path="url(#SVGID_22_)" fill="#A77D2C" d="M163.631,193.048c0.253,0.528,0.098,1.441-1.339,2.988
				c-1.05,1.154-2.261,1.582-2.572,1.426c-0.123-0.231,0.123-1.269,1.383-2.637C161.88,193.93,162.87,192.801,163.631,193.048"/>
		</g>
		<g>
			<defs>
				<rect id="SVGID_23_" x="10.852" y="117.741" width="183.329" height="141.098"/>
			</defs>
			<clipPath id="SVGID_24_">
				<use xlink:href="#SVGID_23_"  overflow="visible"/>
			</clipPath>
			<path clip-path="url(#SVGID_24_)" fill="#A77D2C" d="M158.141,199.214c0.213,0.533,0.044,1.47-1.516,2.896
				c-1.106,1.1-2.335,1.465-2.636,1.293c-0.111-0.238,0.187-1.265,1.515-2.568C156.373,200.027,157.384,198.917,158.141,199.214"/>
		</g>
		<g>
			<defs>
				<rect id="SVGID_25_" x="10.852" y="117.741" width="183.329" height="141.098"/>
			</defs>
			<clipPath id="SVGID_26_">
				<use xlink:href="#SVGID_25_"  overflow="visible"/>
			</clipPath>
			<path clip-path="url(#SVGID_26_)" fill="#A77D2C" d="M152.323,205.076c0.188,0.547-0.033,1.469-1.678,2.797
				c-1.159,1.045-2.402,1.35-2.694,1.162c-0.099-0.244,0.251-1.256,1.641-2.494C150.496,205.771,151.6,204.755,152.323,205.076"/>
		</g>
		<g>
			<defs>
				<rect id="SVGID_27_" x="10.852" y="117.741" width="183.329" height="141.098"/>
			</defs>
			<clipPath id="SVGID_28_">
				<use xlink:href="#SVGID_27_"  overflow="visible"/>
			</clipPath>
			<path clip-path="url(#SVGID_28_)" fill="#A77D2C" d="M146.206,210.623c0.174,0.573-0.125,1.447-1.827,2.699
				c-1.206,0.988-2.461,1.23-2.743,1.03c-0.087-0.248,0.311-1.243,1.758-2.414c0.462-0.373,0.994-0.785,1.5-1.058
				C145.39,210.597,145.851,210.442,146.206,210.623"/>
		</g>
		<g>
			<defs>
				<rect id="SVGID_29_" x="10.852" y="117.741" width="183.329" height="141.098"/>
			</defs>
			<clipPath id="SVGID_30_">
				<use xlink:href="#SVGID_29_"  overflow="visible"/>
			</clipPath>
			<path clip-path="url(#SVGID_30_)" fill="#A77D2C" d="M139.817,215.857c0.151,0.588-0.212,1.416-1.963,2.598
				c-1.25,0.932-2.514,1.115-2.786,0.9c-0.075-0.252,0.369-1.229,1.87-2.33C137.895,216.322,139.144,215.482,139.817,215.857"/>
		</g>
		<g>
			<defs>
				<rect id="SVGID_31_" x="10.852" y="117.741" width="183.329" height="141.098"/>
			</defs>
			<clipPath id="SVGID_32_">
				<use xlink:href="#SVGID_31_"  overflow="visible"/>
			</clipPath>
			<path clip-path="url(#SVGID_32_)" fill="#A77D2C" d="M133.182,220.775c0.125,0.598-0.292,1.387-2.087,2.495
				c-1.291,0.874-2.562,1.001-2.823,0.774c-0.063-0.256,0.425-1.211,1.974-2.246C131.229,221.132,132.525,220.367,133.182,220.775"
				/>
		</g>
		<g>
			<defs>
				<rect id="SVGID_33_" x="10.852" y="117.741" width="183.329" height="141.098"/>
			</defs>
			<clipPath id="SVGID_34_">
				<use xlink:href="#SVGID_33_"  overflow="visible"/>
			</clipPath>
			<path clip-path="url(#SVGID_34_)" fill="#A77D2C" d="M126.324,225.376c0.093,0.596-0.359,1.365-2.201,2.396
				c-1.328,0.815-2.602,0.886-2.853,0.647c-0.052-0.258,0.479-1.191,2.072-2.156C124.355,225.645,125.677,224.925,126.324,225.376"
				/>
		</g>
		<g>
			<defs>
				<rect id="SVGID_35_" x="10.852" y="117.741" width="183.329" height="141.098"/>
			</defs>
			<clipPath id="SVGID_36_">
				<use xlink:href="#SVGID_35_"  overflow="visible"/>
			</clipPath>
			<path clip-path="url(#SVGID_36_)" fill="#A77D2C" d="M119.265,229.666c0.062,0.592-0.42,1.346-2.305,2.293
				c-1.362,0.758-2.638,0.772-2.879,0.523c-0.04-0.26,0.531-1.17,2.164-2.064C117.286,229.845,118.635,229.177,119.265,229.666"/>
		</g>
		<g>
			<defs>
				<rect id="SVGID_37_" x="10.852" y="117.741" width="183.329" height="141.098"/>
			</defs>
			<clipPath id="SVGID_38_">
				<use xlink:href="#SVGID_37_"  overflow="visible"/>
			</clipPath>
			<path clip-path="url(#SVGID_38_)" fill="#A77D2C" d="M112.024,233.64c0.037,0.594-0.477,1.328-2.4,2.193
				c-1.392,0.699-2.668,0.66-2.898,0.4c-0.03-0.261,0.579-1.146,2.249-1.973C110.039,233.736,111.417,233.126,112.024,233.64"/>
		</g>
		<g>
			<defs>
				<rect id="SVGID_39_" x="10.852" y="117.741" width="183.329" height="141.098"/>
			</defs>
			<clipPath id="SVGID_40_">
				<use xlink:href="#SVGID_39_"  overflow="visible"/>
			</clipPath>
			<path clip-path="url(#SVGID_40_)" fill="#A77D2C" d="M104.622,237.304c0.016,0.604-0.53,1.309-2.487,2.096
				c-1.42,0.641-2.694,0.547-2.913,0.279c-0.019-0.262,0.625-1.12,2.329-1.875C102.634,237.319,104.039,236.774,104.622,237.304"/>
		</g>
		<g>
			<defs>
				<rect id="SVGID_41_" x="10.852" y="117.741" width="183.329" height="141.098"/>
			</defs>
			<clipPath id="SVGID_42_">
				<use xlink:href="#SVGID_41_"  overflow="visible"/>
			</clipPath>
			<path clip-path="url(#SVGID_42_)" fill="#A77D2C" d="M97.074,240.66c-0.006,0.609-0.579,1.297-2.567,2
				c-1.445,0.58-2.715,0.436-2.923,0.158c-0.009-0.262,0.67-1.092,2.404-1.777C95.09,240.597,96.52,240.123,97.074,240.66"/>
		</g>
		<g>
			<defs>
				<rect id="SVGID_43_" x="10.852" y="117.741" width="183.329" height="141.098"/>
			</defs>
			<clipPath id="SVGID_44_">
				<use xlink:href="#SVGID_43_"  overflow="visible"/>
			</clipPath>
			<path clip-path="url(#SVGID_44_)" fill="#A77D2C" d="M89.397,243.708c-0.032,0.604-0.621,1.295-2.641,1.903
				c-1.467,0.522-2.731,0.326-2.929,0.041c0.002-0.262,0.714-1.063,2.474-1.677C87.425,243.589,88.864,243.148,89.397,243.708"/>
		</g>
		<g>
			<defs>
				<rect id="SVGID_45_" x="10.852" y="117.741" width="183.329" height="141.098"/>
			</defs>
			<clipPath id="SVGID_46_">
				<use xlink:href="#SVGID_45_"  overflow="visible"/>
			</clipPath>
			<path clip-path="url(#SVGID_46_)" fill="#A77D2C" d="M81.608,246.457c-0.059,0.592-0.664,1.289-2.709,1.811
				c-1.487,0.462-2.742,0.216-2.929-0.076c0.011-0.262,0.753-1.033,2.537-1.576c0.569-0.173,1.217-0.354,1.789-0.416
				C80.86,246.115,81.349,246.154,81.608,246.457"/>
		</g>
		<g>
			<defs>
				<rect id="SVGID_47_" x="10.852" y="117.741" width="183.329" height="141.098"/>
			</defs>
			<clipPath id="SVGID_48_">
				<use xlink:href="#SVGID_47_"  overflow="visible"/>
			</clipPath>
			<path clip-path="url(#SVGID_48_)" fill="#A77D2C" d="M73.719,248.901c-0.086,0.571-0.706,1.285-2.771,1.722
				c-1.505,0.401-2.751,0.105-2.927-0.192c0.022-0.261,0.793-1.003,2.597-1.474C71.774,248.677,73.223,248.278,73.719,248.901"/>
		</g>
		<g>
			<defs>
				<rect id="SVGID_49_" x="10.852" y="117.741" width="183.329" height="141.098"/>
			</defs>
			<clipPath id="SVGID_50_">
				<use xlink:href="#SVGID_49_"  overflow="visible"/>
			</clipPath>
			<path clip-path="url(#SVGID_50_)" fill="#A77D2C" d="M65.744,251.048c-0.106,0.572-0.758,1.242-2.829,1.635
				c-1.519,0.342-2.754-0.004-2.919-0.311c0.031-0.258,0.829-0.97,2.651-1.367C63.81,250.759,65.269,250.398,65.744,251.048"/>
		</g>
		<g>
			<defs>
				<rect id="SVGID_51_" x="10.852" y="117.741" width="183.329" height="141.098"/>
			</defs>
			<clipPath id="SVGID_52_">
				<use xlink:href="#SVGID_51_"  overflow="visible"/>
			</clipPath>
			<path clip-path="url(#SVGID_52_)" fill="#A77D2C" d="M57.696,252.904c-0.125,0.579-0.809,1.182-2.884,1.547
				c-1.53,0.282-2.753-0.111-2.907-0.423c0.041-0.258,0.865-0.935,2.701-1.263C55.767,252.511,57.248,252.248,57.696,252.904"/>
		</g>
		<g>
			<defs>
				<rect id="SVGID_53_" x="10.852" y="117.741" width="183.329" height="141.098"/>
			</defs>
			<clipPath id="SVGID_54_">
				<use xlink:href="#SVGID_53_"  overflow="visible"/>
			</clipPath>
			<path clip-path="url(#SVGID_54_)" fill="#A77D2C" d="M49.586,254.466c-0.145,0.574-0.852,1.144-2.938,1.437
				c-1.532,0.278-2.747-0.202-2.887-0.508c0.047-0.271,0.903-0.868,2.74-1.188C47.671,254,49.162,253.792,49.586,254.466"/>
		</g>
		<g>
			<defs>
				<rect id="SVGID_55_" x="10.852" y="117.741" width="183.329" height="141.098"/>
			</defs>
			<clipPath id="SVGID_56_">
				<use xlink:href="#SVGID_55_"  overflow="visible"/>
			</clipPath>
			<path clip-path="url(#SVGID_56_)" fill="#A77D2C" d="M41.427,255.744c-0.166,0.567-0.893,1.107-2.989,1.317
				c-1.539,0.239-2.732-0.259-2.864-0.584c0.058-0.257,0.932-0.843,2.777-1.114C39.529,255.201,41.026,255.052,41.427,255.744"/>
		</g>
		<g>
			<defs>
				<rect id="SVGID_57_" x="10.852" y="117.741" width="183.329" height="141.098"/>
			</defs>
			<clipPath id="SVGID_58_">
				<use xlink:href="#SVGID_57_"  overflow="visible"/>
			</clipPath>
			<path clip-path="url(#SVGID_58_)" fill="#A77D2C" d="M33.228,256.733c-0.186,0.562-0.931,1.072-3.034,1.2
				c-1.549,0.16-2.72-0.325-2.84-0.652c0.067-0.25,0.956-0.867,2.812-1.048C31.349,256.119,32.852,256.029,33.228,256.733"/>
		</g>
		<g>
			<defs>
				<rect id="SVGID_59_" x="10.852" y="117.741" width="183.329" height="141.098"/>
			</defs>
			<clipPath id="SVGID_60_">
				<use xlink:href="#SVGID_59_"  overflow="visible"/>
			</clipPath>
			<path clip-path="url(#SVGID_60_)" fill="#A77D2C" d="M24.999,257.444c-0.205,0.554-0.968,1.035-3.075,1.081
				c-1.553,0.1-2.707-0.436-2.816-0.762c0.076-0.252,0.985-0.829,2.847-0.938C23.142,256.753,24.647,256.725,24.999,257.444"/>
		</g>
		<g>
			<defs>
				<rect id="SVGID_61_" x="10.852" y="117.741" width="183.329" height="141.098"/>
			</defs>
			<clipPath id="SVGID_62_">
				<use xlink:href="#SVGID_61_"  overflow="visible"/>
			</clipPath>
			<path clip-path="url(#SVGID_62_)" fill="#A77D2C" d="M16.751,257.876c-0.224,0.545-1.003,0.996-3.11,0.961
				c-1.556,0.039-2.692-0.539-2.789-0.871c0.084-0.25,1.013-0.791,2.878-0.827C14.918,257.117,16.424,257.145,16.751,257.876"/>
		</g>
	</g>
</g>
<path fill="#A79D82" d="M204.464,126.563c0,4.05-3.283,7.333-7.333,7.333c-4.05,0-7.334-3.283-7.334-7.333s3.284-7.333,7.334-7.333
	C201.181,119.23,204.464,122.513,204.464,126.563"/>
<path fill="#A79D82" d="M26.477,261.554c0,4.05-3.283,7.332-7.333,7.332s-7.334-3.282-7.334-7.332c0-4.051,3.284-7.334,7.334-7.334
	C23.194,254.221,26.477,257.503,26.477,261.554"/>
</svg>
