<?xml version="1.0" encoding="utf-8"?>
<!-- Generator: Adobe Illustrator 15.1.0, SVG Export Plug-In . SVG Version: 6.00 Build 0)  -->
<!DOCTYPE svg PUBLIC "-//W3C//DTD SVG 1.1//EN" "http://www.w3.org/Graphics/SVG/1.1/DTD/svg11.dtd">
<svg version="1.1" id="Layer_1" xmlns="http://www.w3.org/2000/svg" xmlns:xlink="http://www.w3.org/1999/xlink" x="0px" y="0px"
	 width="404.874px" height="190.512px" viewBox="-0.194 -0.556 404.874 190.512"
	 enable-background="new -0.194 -0.556 404.874 190.512" xml:space="preserve">
<g id="Layer_1_1_">
	<g>
		<rect x="30.613" y="0.444" fill="#FFFFFF" width="2" height="188.512"/>
		<polygon fill="#FFFFFF" points="0.194,86.899 -0.194,84.937 207.439,43.868 2.183,10.799 2.501,8.825 218.763,43.667 		"/>
		<path fill="#FFFFFF" d="M394.542,127.899H380.54v-21.904h14.002V127.899z M382.54,125.899h10.002v-17.904H382.54V125.899z"/>
		<polygon fill="#FFFFFF" points="386.651,189.956 339.549,189.956 339.549,-0.556 386.651,-0.556 386.651,77.674 384.651,77.674 
			384.651,1.444 341.549,1.444 341.549,187.956 384.651,187.956 384.651,157.667 386.651,157.667 		"/>
		<rect x="400.227" y="125.899" fill="#FFFFFF" width="4.453" height="2"/>
		<path fill="#FFFFFF" d="M314.907,127.899H187.394v-16.073l-11.004-3.468v19.541h-57.629l-6.851-16.902l-6.85,16.902H48.43v-2
			h55.282l8.198-20.227l8.199,20.227h54.281v-20.268l15.004,4.728v15.54h54.509v-17.564h17.071l-13.996,17.564h65.929V0h2V127.899z
			 M245.903,110.334v13.705l10.921-13.705H245.903z"/>
	</g>
</g>
<g id="Layer_2">
</g>
</svg>
