<?xml version="1.0" encoding="utf-8"?>
<!-- Generator: Adobe Illustrator 15.1.0, SVG Export Plug-In . SVG Version: 6.00 Build 0)  -->
<!DOCTYPE svg PUBLIC "-//W3C//DTD SVG 1.1//EN" "http://www.w3.org/Graphics/SVG/1.1/DTD/svg11.dtd">
<svg version="1.1" id="Layer_1" xmlns="http://www.w3.org/2000/svg" xmlns:xlink="http://www.w3.org/1999/xlink" x="0px" y="0px"
	 width="29.332px" height="256.5px" viewBox="0 0 29.332 256.5" enable-background="new 0 0 29.332 256.5" xml:space="preserve">
<path fill="none" stroke="#231F20" stroke-width="3.629" stroke-miterlimit="10" d="M27.518,125.838v109.954
	c0,7.862-10.888,15.421-10.888,15.421c-6.297,0.1-14.816,1.826-14.816-4.65V125.234"/>
<path fill="none" stroke="#231F20" stroke-width="3.629" stroke-miterlimit="10" d="M27.518,126.657V14.861
	c0-4.838-10.888-11.578-10.888-11.578S1.814,3.912,1.814,9.055v118.206"/>
<g>
	<g>
		<defs>
			<path id="SVGID_1_" d="M18.08,256.5c0.248,0,0.453-0.205,0.453-0.454V0.453C18.533,0.205,18.328,0,18.08,0h-3.175
				c-0.25,0-0.454,0.205-0.454,0.453v255.593c0,0.249,0.204,0.454,0.454,0.454H18.08z"/>
		</defs>
		<clipPath id="SVGID_2_">
			<use xlink:href="#SVGID_1_"  overflow="visible"/>
		</clipPath>
		
			<linearGradient id="SVGID_3_" gradientUnits="userSpaceOnUse" x1="-670.6514" y1="62.123" x2="-669.6514" y2="62.123" gradientTransform="matrix(-4.0822 0 0 -4.0822 -2719.2095 381.8494)">
			<stop  offset="0" style="stop-color:#BABABA"/>
			<stop  offset="1" style="stop-color:#E8E8E8"/>
		</linearGradient>
		<rect x="14.451" clip-path="url(#SVGID_2_)" fill="url(#SVGID_3_)" width="4.083" height="256.5"/>
	</g>
</g>
<path fill="#EB2E92" d="M11.827,248.784c0,0.256,0.21,0.466,0.467,0.466h1.167c0.256,0,0.466-0.21,0.466-0.466V7.716
	c0-0.257-0.21-0.467-0.466-0.467h-1.167c-0.257,0-0.467,0.21-0.467,0.467V248.784z"/>
<path fill="#2CBDBD" d="M9.582,248.784c0,0.256,0.21,0.466,0.467,0.466h1.167c0.256,0,0.466-0.21,0.466-0.466V7.716
	c0-0.257-0.21-0.467-0.466-0.467h-1.167c-0.257,0-0.467,0.21-0.467,0.467V248.784z"/>
<path fill="#F79320" d="M7.336,248.784c0,0.256,0.21,0.466,0.467,0.466H8.97c0.256,0,0.466-0.21,0.466-0.466V7.716
	c0-0.257-0.21-0.467-0.466-0.467H7.803c-0.257,0-0.467,0.21-0.467,0.467V248.784z"/>
<path fill="#E82444" d="M5.091,248.784c0,0.256,0.21,0.466,0.467,0.466h1.167c0.256,0,0.466-0.21,0.466-0.466V7.716
	c0-0.257-0.21-0.467-0.466-0.467H5.558c-0.257,0-0.467,0.21-0.467,0.467V248.784z"/>
<path fill="#823A94" d="M2.846,248.784c0,0.256,0.21,0.466,0.467,0.466H4.48c0.256,0,0.466-0.21,0.466-0.466V7.716
	c0-0.257-0.21-0.467-0.466-0.467H3.313c-0.257,0-0.467,0.21-0.467,0.467V248.784z"/>
<path fill="none" stroke="#437C53" stroke-width="0.907" stroke-miterlimit="10" d="M20.8,16.857v221.311
	c0,0.814,0.66,1.475,1.476,1.475c0.814,0,1.475-0.66,1.475-1.475V16.857"/>
<path fill="none" stroke="#437C53" stroke-width="0.907" stroke-miterlimit="10" d="M19.439,16.784v221.309
	c0,1.563,1.272,2.835,2.836,2.835c1.562,0,2.834-1.271,2.834-2.835V16.784"/>
<path fill="none" stroke="#437C53" stroke-width="0.907" stroke-miterlimit="10" d="M22.389,16.784v221.309
	c0,0.126-0.227,0.126-0.227,0V16.784"/>
</svg>
