<?xml version="1.0" encoding="utf-8"?>
<!-- Generator: Adobe Illustrator 15.1.0, SVG Export Plug-In . SVG Version: 6.00 Build 0)  -->
<!DOCTYPE svg PUBLIC "-//W3C//DTD SVG 1.1//EN" "http://www.w3.org/Graphics/SVG/1.1/DTD/svg11.dtd">
<svg version="1.1" id="Layer_1" xmlns="http://www.w3.org/2000/svg" xmlns:xlink="http://www.w3.org/1999/xlink" x="0px" y="0px"
	 width="29.332px" height="256.5px" viewBox="0 0 29.332 256.5" enable-background="new 0 0 29.332 256.5" xml:space="preserve">
<path fill="none" stroke="#231F20" stroke-width="3.629" stroke-miterlimit="10" d="M1.814,131.266V9.938
	c0-6.477,8.519-4.75,14.816-4.651c0,0,10.887,7.559,10.887,15.421v109.954"/>
<path fill="none" stroke="#231F20" stroke-width="3.629" stroke-miterlimit="10" d="M1.814,129.239v118.207
	c0,5.142,14.816,5.771,14.816,5.771s10.887-6.741,10.887-11.579V129.843"/>
<g>
	<defs>
		<path id="SVGID_1_" d="M14.905,0c-0.25,0-0.454,0.205-0.454,0.454v255.593c0,0.248,0.204,0.453,0.454,0.453h3.175
			c0.248,0,0.453-0.205,0.453-0.453V0.454C18.533,0.205,18.328,0,18.08,0H14.905z"/>
	</defs>
	<clipPath id="SVGID_2_">
		<use xlink:href="#SVGID_1_"  overflow="visible"/>
	</clipPath>
	
		<linearGradient id="SVGID_3_" gradientUnits="userSpaceOnUse" x1="-308.5732" y1="528.0903" x2="-307.5732" y2="528.0903" gradientTransform="matrix(-4.0822 0 0 -4.0822 -1241.1324 2284.0327)">
		<stop  offset="0" style="stop-color:#BABABA"/>
		<stop  offset="1" style="stop-color:#E8E8E8"/>
	</linearGradient>
	<rect x="14.451" clip-path="url(#SVGID_2_)" fill="url(#SVGID_3_)" width="4.083" height="256.5"/>
</g>
<path fill="#EB2E92" d="M11.827,248.784c0,0.257,0.21,0.467,0.467,0.467h1.167c0.256,0,0.466-0.21,0.466-0.467V7.716
	c0-0.256-0.21-0.466-0.466-0.466h-1.167c-0.257,0-0.467,0.21-0.467,0.466V248.784z"/>
<path fill="#2CBDBD" d="M9.582,248.784c0,0.257,0.21,0.467,0.467,0.467h1.167c0.256,0,0.466-0.21,0.466-0.467V7.716
	c0-0.256-0.21-0.466-0.466-0.466h-1.167c-0.257,0-0.467,0.21-0.467,0.466V248.784z"/>
<path fill="#F79320" d="M7.336,248.784c0,0.257,0.21,0.467,0.467,0.467H8.97c0.256,0,0.466-0.21,0.466-0.467V7.716
	c0-0.256-0.21-0.466-0.466-0.466H7.803c-0.257,0-0.467,0.21-0.467,0.466V248.784z"/>
<path fill="#E82444" d="M5.091,248.784c0,0.257,0.21,0.467,0.467,0.467h1.167c0.256,0,0.466-0.21,0.466-0.467V7.716
	c0-0.256-0.21-0.466-0.466-0.466H5.558c-0.257,0-0.467,0.21-0.467,0.466V248.784z"/>
<path fill="#823A94" d="M2.846,248.784c0,0.257,0.21,0.467,0.467,0.467H4.48c0.256,0,0.466-0.21,0.466-0.467V7.716
	c0-0.256-0.21-0.466-0.466-0.466H3.313c-0.257,0-0.467,0.21-0.467,0.466V248.784z"/>
<path fill="none" stroke="#437C53" stroke-width="0.907" stroke-miterlimit="10" d="M23.75,239.642V18.332
	c0-0.814-0.66-1.474-1.475-1.474s-1.475,0.66-1.475,1.474v221.31"/>
<path fill="none" stroke="#437C53" stroke-width="0.907" stroke-miterlimit="10" d="M25.11,239.716V18.407
	c0-1.563-1.272-2.835-2.835-2.835s-2.835,1.272-2.835,2.835v221.309"/>
<path fill="none" stroke="#437C53" stroke-width="0.907" stroke-miterlimit="10" d="M22.162,239.716V18.407
	c0-0.126,0.227-0.126,0.227,0v221.309"/>
</svg>
