<?xml version="1.0" encoding="utf-8"?>
<!-- Generator: Adobe Illustrator 15.1.0, SVG Export Plug-In . SVG Version: 6.00 Build 0)  -->
<!DOCTYPE svg PUBLIC "-//W3C//DTD SVG 1.1//EN" "http://www.w3.org/Graphics/SVG/1.1/DTD/svg11.dtd">
<svg version="1.1" xmlns="http://www.w3.org/2000/svg" xmlns:xlink="http://www.w3.org/1999/xlink" x="0px" y="0px"
	 width="404.681px" height="189.2px" viewBox="0 0 404.681 189.2" enable-background="new 0 0 404.681 189.2" xml:space="preserve">
<g id="Layer_1">
	<g>
		<line fill="none" stroke="#000000" stroke-width="2" stroke-miterlimit="10" x1="31.613" y1="188.956" x2="31.613" y2="0.444"/>
		<polyline fill="none" stroke="#000000" stroke-width="2" stroke-miterlimit="10" points="2.342,9.812 213.101,43.767 0,85.918 		
			"/>
		
			<rect x="381.54" y="106.994" fill="none" stroke="#000000" stroke-width="2" stroke-miterlimit="10" width="12.002" height="19.905"/>
		<polyline fill="none" stroke="#000000" stroke-width="2" stroke-miterlimit="10" points="385.651,157.667 385.651,188.956 
			340.55,188.956 340.55,0.444 385.651,0.444 385.651,77.674 		"/>
		
			<line fill="none" stroke="#000000" stroke-width="2" stroke-miterlimit="10" x1="400.228" y1="126.899" x2="404.681" y2="126.899"/>
		<polyline fill="none" stroke="#000000" stroke-width="2" stroke-miterlimit="10" points="313.907,0 313.907,126.899 
			244.903,126.899 258.899,109.335 244.903,109.335 244.903,126.899 188.394,126.899 188.394,111.092 175.39,106.994 
			175.39,126.899 119.435,126.899 111.91,108.334 104.386,126.899 48.43,126.899 		"/>
	</g>
</g>
<g id="Layer_2">
</g>
</svg>
