<?xml version="1.0" encoding="utf-8"?>
<!-- Generator: Adobe Illustrator 15.1.0, SVG Export Plug-In . SVG Version: 6.00 Build 0)  -->
<!DOCTYPE svg PUBLIC "-//W3C//DTD SVG 1.1//EN" "http://www.w3.org/Graphics/SVG/1.1/DTD/svg11.dtd">
<svg version="1.1" id="Layer_1" xmlns="http://www.w3.org/2000/svg" xmlns:xlink="http://www.w3.org/1999/xlink" x="0px" y="0px"
	 width="51.98px" height="272.667px" viewBox="0 0 51.98 272.667" enable-background="new 0 0 51.98 272.667" xml:space="preserve">
<path fill="#F79320" d="M51.98,47.239L39.242,34.813c-6.658,6.487-12.683,13.622-17.974,21.302v38.637
	C27.769,76.609,38.386,60.406,51.98,47.239"/>
<path fill="#F79320" d="M21.268,177.921v38.63c5.291,7.68,11.315,14.813,17.974,21.301l12.738-12.425
	C38.385,212.271,27.769,196.065,21.268,177.921"/>
<line fill="none" stroke="#F79320" stroke-width="11" stroke-miterlimit="10" x1="16.601" y1="0" x2="16.601" y2="272.667"/>
<path fill="#231F20" d="M17.205,116.002C7.719,116.002,0,123.72,0,133.206c0,9.487,7.719,17.205,17.205,17.205
	c9.487,0,17.206-7.718,17.206-17.205C34.411,123.72,26.692,116.002,17.205,116.002 M27.959,133.206c0,1.789-0.481,3.451-1.256,4.937
	L12.27,123.71c1.485-0.775,3.146-1.257,4.935-1.257C23.134,122.453,27.959,127.277,27.959,133.206 M6.452,133.206
	c0-1.789,0.481-3.45,1.256-4.936l14.433,14.433c-1.485,0.775-3.146,1.257-4.936,1.257C11.276,143.96,6.452,139.136,6.452,133.206"/>
</svg>
