<?xml version="1.0" encoding="utf-8"?>
<!-- Generator: Adobe Illustrator 15.1.0, SVG Export Plug-In . SVG Version: 6.00 Build 0)  -->
<!DOCTYPE svg PUBLIC "-//W3C//DTD SVG 1.1//EN" "http://www.w3.org/Graphics/SVG/1.1/DTD/svg11.dtd">
<svg version="1.1" id="Layer_1" xmlns="http://www.w3.org/2000/svg" xmlns:xlink="http://www.w3.org/1999/xlink" x="0px" y="0px"
	 width="242.646px" height="153.014px" viewBox="0 0 242.646 153.014" enable-background="new 0 0 242.646 153.014"
	 xml:space="preserve">
<pattern  x="-184.531" y="-319.564" width="34" height="29.251" patternUnits="userSpaceOnUse" id="Unnamed_Pattern_5" viewBox="7.018 -37.396 34 29.251" overflow="visible">
	<g>
		<polygon fill="none" points="7.018,-37.396 41.018,-37.396 41.018,-8.146 7.018,-8.146 		"/>
		<g>
			<defs>
				<rect id="SVGID_1_" x="7.018" y="-37.396" width="34" height="29.251"/>
			</defs>
			<clipPath id="SVGID_2_">
				<use xlink:href="#SVGID_1_"  overflow="visible"/>
			</clipPath>
			<polygon clip-path="url(#SVGID_2_)" fill="#DB8327" points="0,-4.053 7.018,0 14.037,-4.053 14.037,-12.157 7.018,-16.209 
				0,-12.157 			"/>
			<polygon clip-path="url(#SVGID_2_)" fill="#DB8327" points="8.748,-18.521 15.768,-14.47 22.785,-18.521 22.785,-26.625 
				15.768,-30.679 8.748,-26.625 			"/>
			<polygon clip-path="url(#SVGID_2_)" fill="#DB8327" points="17,-4.053 24.018,0 31.037,-4.053 31.037,-12.157 24.018,-16.209 
				17,-12.157 			"/>
			<polygon clip-path="url(#SVGID_2_)" fill="#DB8327" points="25.748,-18.521 32.768,-14.47 39.785,-18.521 39.785,-26.625 
				32.768,-30.679 25.748,-26.625 			"/>
			<polygon clip-path="url(#SVGID_2_)" fill="#DB8327" points="34,-4.053 41.018,0 48.037,-4.053 48.037,-12.157 41.018,-16.209 
				34,-12.157 			"/>
			<polygon clip-path="url(#SVGID_2_)" fill="#DB8327" points="0,-33.386 7.018,-29.334 14.037,-33.386 14.037,-41.49 
				7.018,-45.543 0,-41.49 			"/>
			<polygon clip-path="url(#SVGID_2_)" fill="#DB8327" points="17,-33.386 24.018,-29.334 31.037,-33.386 31.037,-41.49 
				24.018,-45.543 17,-41.49 			"/>
			<polygon clip-path="url(#SVGID_2_)" fill="#DB8327" points="34,-33.386 41.018,-29.334 48.037,-33.386 48.037,-41.49 
				41.018,-45.543 34,-41.49 			"/>
		</g>
	</g>
</pattern>
<path fill="#F79320" d="M242.646,144.51c0,4.677-3.827,8.504-8.504,8.504H8.504c-4.677,0-8.504-3.827-8.504-8.504V8.504
	C0,3.827,3.827,0,8.504,0h225.638c4.677,0,8.504,3.827,8.504,8.504V144.51z"/>
<g opacity="0.4">
	<g>
		<defs>
			<rect id="SVGID_3_" x="25.771" y="32.121" width="86.583" height="104.773"/>
		</defs>
		<clipPath id="SVGID_4_">
			<use xlink:href="#SVGID_3_"  overflow="visible"/>
		</clipPath>
		<pattern  id="SVGID_5_" xlink:href="#Unnamed_Pattern_5" patternTransform="matrix(0.5954 0 0 -0.5954 -3797.6782 -1990.0015)">
		</pattern>
		<path clip-path="url(#SVGID_4_)" fill="url(#SVGID_5_)" d="M25.771,124.12V81.876l3.006-27.96
			c1.055-9.469,2.257-12.779,7.667-15.634c9.47-5.108,26.155-6.161,32.619-6.161c9.169,0,24.354,1.654,32.77,6.161
			c5.413,3.008,6.464,6.165,7.516,15.634l3.006,27.96v42.243h-6.914v4.959c0,4.209-1.2,7.815-6.161,7.815
			c-4.81,0-6.314-3.606-6.314-8.268v-4.809H45.164v4.809c0,4.661-1.354,8.268-6.315,8.268c-4.959,0-6.16-3.606-6.16-7.815v-4.959
			H25.771z M43.057,50.458c-6.312,0-6.914,0.902-7.666,7.967l-2.102,20.446c0,4.055,1.651,4.055,9.768,4.055H95.07
			c7.969,0,9.771,0,9.771-4.055l-2.104-20.446c-0.752-7.364-1.505-7.967-7.666-7.967H43.057z M45.015,103.675
			c0-3.309-2.559-5.861-5.863-5.861c-3.158,0-5.862,2.553-5.862,5.861c0,3.304,2.704,5.86,5.862,5.86
			C42.456,109.536,45.015,106.979,45.015,103.675 M84.248,40.087H54.031c-4.207,0-6.011,0.45-6.011,2.555
			c0,2.405,1.652,2.705,6.011,2.705h30.217c4.208,0,5.86-0.3,5.86-2.555C90.108,40.689,88.605,40.087,84.248,40.087 M98.979,97.814
			c-3.307,0-5.863,2.553-5.863,5.861c0,3.304,2.557,5.86,5.863,5.86c3.157,0,5.862-2.557,5.862-5.86
			C104.841,100.367,102.136,97.814,98.979,97.814"/>
	</g>
</g>
<g opacity="0.4">
	<g>
		<defs>
			<rect id="SVGID_6_" x="188.341" width="54.305" height="153.014"/>
		</defs>
		<clipPath id="SVGID_7_">
			<use xlink:href="#SVGID_6_"  overflow="visible"/>
		</clipPath>
		<pattern  id="SVGID_8_" xlink:href="#Unnamed_Pattern_5" patternTransform="matrix(0.5954 0 0 -0.5954 -3806.6782 -1998.0015)">
		</pattern>
		<path clip-path="url(#SVGID_7_)" fill="url(#SVGID_8_)" d="M234.142,0h-45.801v153.014h45.801c4.678,0,8.504-3.827,8.504-8.504
			V8.504C242.646,3.827,238.819,0,234.142,0"/>
	</g>
</g>
<polygon fill="#FFFFFF" points="205.217,55.231 205.217,92.831 224.016,74.032 "/>
<g>
	<path fill="#FFFFFF" d="M71.059,14.402h1.31l2.129,3.308l2.129-3.308h1.309v6.996h-1.229v-5.017l-2.209,3.298h-0.04l-2.189-3.278
		v4.997h-1.209V14.402z"/>
	<path fill="#FFFFFF" d="M84.217,14.352h1.14l3.078,7.046h-1.299l-0.71-1.689h-3.309l-0.719,1.689h-1.26L84.217,14.352z
		 M85.976,18.62l-1.209-2.799l-1.199,2.799H85.976z"/>
	<path fill="#FFFFFF" d="M91.049,20.378l0.739-0.879c0.67,0.58,1.34,0.91,2.209,0.91c0.76,0,1.239-0.35,1.239-0.88v-0.02
		c0-0.5-0.279-0.77-1.579-1.069c-1.489-0.36-2.328-0.799-2.328-2.089v-0.02c0-1.199,0.999-2.029,2.389-2.029
		c1.02,0,1.829,0.31,2.538,0.879l-0.659,0.93c-0.63-0.47-1.26-0.72-1.899-0.72c-0.72,0-1.14,0.37-1.14,0.83v0.02
		c0,0.54,0.32,0.78,1.659,1.1c1.479,0.36,2.249,0.889,2.249,2.049v0.02c0,1.309-1.029,2.089-2.498,2.089
		C92.897,21.498,91.889,21.128,91.049,20.378z"/>
	<path fill="#FFFFFF" d="M99.349,20.378l0.739-0.879c0.67,0.58,1.34,0.91,2.209,0.91c0.76,0,1.239-0.35,1.239-0.88v-0.02
		c0-0.5-0.279-0.77-1.579-1.069c-1.489-0.36-2.328-0.799-2.328-2.089v-0.02c0-1.199,0.999-2.029,2.389-2.029
		c1.02,0,1.829,0.31,2.538,0.879l-0.659,0.93c-0.63-0.47-1.26-0.72-1.899-0.72c-0.72,0-1.14,0.37-1.14,0.83v0.02
		c0,0.54,0.32,0.78,1.659,1.1c1.479,0.36,2.249,0.889,2.249,2.049v0.02c0,1.309-1.029,2.089-2.498,2.089
		C101.197,21.498,100.188,21.128,99.349,20.378z"/>
	<path fill="#FFFFFF" d="M114.938,15.541h-2.219v-1.139h5.678v1.139h-2.22v5.857h-1.239V15.541z"/>
	<path fill="#FFFFFF" d="M121.698,14.402h3.118c0.88,0,1.569,0.26,2.02,0.7c0.369,0.379,0.579,0.899,0.579,1.509v0.02
		c0,1.149-0.689,1.839-1.669,2.119l1.889,2.648h-1.449l-1.719-2.438h-1.539v2.438h-1.229V14.402z M124.727,17.87
		c0.88,0,1.439-0.46,1.439-1.169v-0.02c0-0.75-0.54-1.16-1.449-1.16h-1.789v2.349H124.727z"/>
	<path fill="#FFFFFF" d="M133.407,14.352h1.14l3.078,7.046h-1.299l-0.71-1.689h-3.309l-0.719,1.689h-1.26L133.407,14.352z
		 M135.166,18.62l-1.209-2.799l-1.199,2.799H135.166z"/>
	<path fill="#FFFFFF" d="M140.828,14.402h1.14l3.748,4.837v-4.837h1.209v6.996h-1.029l-3.858-4.977v4.977h-1.209V14.402z"/>
	<path fill="#FFFFFF" d="M150.259,20.378l0.739-0.879c0.67,0.58,1.34,0.91,2.209,0.91c0.76,0,1.239-0.35,1.239-0.88v-0.02
		c0-0.5-0.279-0.77-1.579-1.069c-1.489-0.36-2.328-0.799-2.328-2.089v-0.02c0-1.199,0.999-2.029,2.389-2.029
		c1.02,0,1.829,0.31,2.538,0.879l-0.659,0.93c-0.63-0.47-1.26-0.72-1.899-0.72c-0.72,0-1.14,0.37-1.14,0.83v0.02
		c0,0.54,0.32,0.78,1.659,1.1c1.479,0.36,2.249,0.889,2.249,2.049v0.02c0,1.309-1.029,2.089-2.498,2.089
		C152.107,21.498,151.099,21.128,150.259,20.378z"/>
	<path fill="#FFFFFF" d="M159.198,14.402h1.229v6.996h-1.229V14.402z"/>
	<path fill="#FFFFFF" d="M166.017,15.541h-2.219v-1.139h5.677v1.139h-2.219v5.857h-1.239V15.541z"/>
</g>
</svg>
