<?xml version="1.0" encoding="utf-8"?>
<!-- Generator: Adobe Illustrator 15.1.0, SVG Export Plug-In . SVG Version: 6.00 Build 0)  -->
<!DOCTYPE svg PUBLIC "-//W3C//DTD SVG 1.1//EN" "http://www.w3.org/Graphics/SVG/1.1/DTD/svg11.dtd">
<svg version="1.1" id="Layer_1" xmlns="http://www.w3.org/2000/svg" xmlns:xlink="http://www.w3.org/1999/xlink" x="0px" y="0px"
	 width="72px" height="72px" viewBox="0 0 72 72" enable-background="new 0 0 72 72" xml:space="preserve">
<path fill="#4DC8F1" d="M36,0C16.118,0,0,16.117,0,36c0,19.883,16.118,36,36,36c19.881,0,36-16.117,36-36C72,16.117,55.881,0,36,0
	 M54.105,29.797c0.526,11.744-8.229,24.838-23.733,24.838c-4.715,0-9.104-1.383-12.799-3.752c4.429,0.521,8.851-0.706,12.361-3.458
	c-3.653-0.067-6.737-2.481-7.799-5.798c1.308,0.25,2.595,0.177,3.77-0.143c-4.016-0.808-6.787-4.424-6.697-8.292
	c1.126,0.625,2.414,1.001,3.783,1.043c-3.719-2.484-4.772-7.394-2.584-11.147c4.117,5.052,10.269,8.376,17.209,8.725
	c-1.217-5.224,2.745-10.253,8.135-10.253c2.401,0,4.571,1.013,6.094,2.636c1.902-0.374,3.689-1.069,5.302-2.026
	c-0.623,1.95-1.947,3.587-3.671,4.619c1.689-0.201,3.298-0.65,4.796-1.314C57.152,27.15,55.736,28.62,54.105,29.797"/>
</svg>
